<svg width="19.949mm" height="20.821mm" version="1.1" viewBox="0 0 19.949 20.821" xmlns="http://www.w3.org/2000/svg">
 <g transform="translate(-38.446 -178.13)">
  <path d="m52.601 198.62c-0.1068-0.68008-0.20892-1.0559-0.30892-1.1368-0.13448-0.1089-0.44762-0.10314-0.5951 0.011-0.20899 0.16167-0.41357 0.29399-0.55483 0.35886-0.07683 0.0353-0.1397 0.0821-0.1397 0.10412 0 0.0732-0.2432 0.14732-0.32922 0.10037-0.04352-0.0238-0.33549-0.3027-0.64884-0.61987l-0.56972-0.57668 0.04913-0.14668c0.02702-0.0807 0.08288-0.18536 0.12412-0.23264 0.04124-0.0473 0.10681-0.14399 0.1457-0.21492 0.03889-0.0709 0.14751-0.23533 0.24136-0.36535s0.17068-0.27389 0.17072-0.31971c1.3e-4 -0.14926-0.18304-0.36694-0.34379-0.40857-0.20145-0.0522-0.74896-0.16764-0.9886-0.20851l-0.19342-0.033-0.0117-0.83219c-0.01423-1.0124-0.01652-1.0064 0.40754-1.0711 0.16054-0.0245 0.40145-0.0554 0.53538-0.0686 0.13392-0.0132 0.27019-0.0343 0.30281-0.0468 0.0788-0.0302 0.29186-0.36198 0.29186-0.45443 0-0.0402-0.07856-0.18619-0.17458-0.32451s-0.21399-0.31435-0.26214-0.39119c-0.04816-0.0768-0.10141-0.13969-0.11833-0.13969-0.01693 0-0.06413-0.0699-0.10489-0.15542-0.06765-0.14186-0.06825-0.16437-0.0069-0.258 0.08725-0.13317 0.97968-1.0257 1.1128-1.1129 0.12112-0.0794 0.25491-0.0361 0.49969 0.16139 0.22945 0.18518 0.23127 0.1865 0.41884 0.30491 0.09663 0.061 0.18813 0.13104 0.20334 0.15564 0.0152 0.0246 0.11246 0.0447 0.21613 0.0447 0.2868 0 0.41056-0.12811 0.45786-0.474 0.02065-0.15104 0.06493-0.37213 0.0984-0.49132 0.03346-0.11919 0.0767-0.29408 0.09609-0.38864l0.03524-0.17193 0.84801-0.0117c0.78417-0.0108 0.85414-6e-3 0.92954 0.0699 0.08315 0.0831 0.17818 0.50384 0.17818 0.78883 0 0.25893 0.04697 0.40615 0.17394 0.54515 0.102 0.11167 0.15393 0.13369 0.31541 0.13369 0.10632 0 0.20575-0.0201 0.22095-0.0447 0.01521-0.0246 0.09855-0.0924 0.18522-0.15065 0.08667-0.0583 0.24461-0.17315 0.351-0.2553 0.34487-0.26633 0.41985-0.29646 0.54066-0.2173 0.18707 0.12257 1.0532 1.0154 1.0971 1.1309 0.0346 0.091 0.02595 0.13365-0.0451 0.22241-0.04835 0.0604-0.12526 0.1788-0.17092 0.26312-0.04565 0.0843-0.11344 0.17857-0.15062 0.20944-0.03719 0.0309-0.06762 0.0761-0.06762 0.10052 0 0.0244-0.04836 0.10781-0.10746 0.18529-0.07447 0.0976-0.10746 0.1953-0.10746 0.31811 0 0.30242 0.26386 0.47287 0.73071 0.47204 0.08274-1.3e-4 0.30034 0.0332 0.48356 0.0742l0.33312 0.0744v1.8298h-0.09809c-0.05395 0-0.20385 0.0295-0.33312 0.0655-0.1768 0.0493-0.64751 0.15039-0.8887 0.19088-0.0049 8.1e-4 -0.0581 0.0854-0.1182 0.18795-0.12838 0.21906-0.13755 0.33791-0.03405 0.44139 0.04137 0.0414 0.15834 0.20174 0.25993 0.35639 0.10159 0.15466 0.1983 0.29145 0.21492 0.30397 0.01661 0.0125 0.0763 0.0883 0.13264 0.16847 0.09923 0.14114 0.10013 0.14959 0.02874 0.27044-0.04053 0.0686-0.30584 0.35605-0.58958 0.63875-0.57182 0.56972-0.6369 0.59919-0.89995 0.40763-0.08033-0.0585-0.18474-0.12398-0.23202-0.14551-0.04728-0.0215-0.12281-0.08-0.16785-0.13004-0.04503-0.05-0.10641-0.0909-0.1364-0.0909-0.02998 0-0.11198-0.0484-0.18222-0.10746-0.07024-0.0591-0.17544-0.10746-0.23379-0.10746-0.0815 0-0.31831 0.14496-0.45138 0.2763-0.0061 6e-3 -0.03074 0.16764-0.05476 0.35914-0.02401 0.1915-0.07221 0.42911-0.1071 0.52801s-0.06345 0.22575-0.06345 0.28188v0.10206h-1.7878zm1.1286-0.67133c0.01004-0.0504 0.02891-0.18424 0.04193-0.29745 0.01301-0.11321 0.06564-0.35028 0.11694-0.52682 0.09174-0.31574 0.09615-0.32175 0.26924-0.36733 0.09678-0.0255 0.25334-0.0825 0.3479-0.12678 0.09456-0.0443 0.24292-0.10163 0.32968-0.12751 0.08676-0.0259 0.18101-0.0751 0.20943-0.10934 0.07912-0.0953 0.17193-0.0748 0.40651 0.09 0.1182 0.083 0.26327 0.18302 0.32237 0.22219 0.0591 0.0392 0.1487 0.10755 0.1991 0.15196 0.10926 0.0963 0.35231 0.11319 0.4061 0.0282 0.06489-0.1025 0.04367-0.28462-0.04544-0.38985-0.04674-0.0552-0.16163-0.20674-0.25532-0.33677-0.09368-0.13002-0.20051-0.26704-0.23739-0.30448-0.08392-0.0852-0.08581-0.18522-0.0048-0.25247 0.03425-0.0284 0.08529-0.12267 0.11342-0.20943 0.02813-0.0868 0.08715-0.20909 0.13115-0.27184 0.044-0.0627 0.08011-0.14012 0.08024-0.17193 1.28e-4 -0.0318 0.0197-0.1279 0.04348-0.21353 0.06467-0.23282 0.2893-0.369 0.70378-0.42665 0.43441-0.0604 0.53415-0.10067 0.58574-0.23638 0.07304-0.1921-0.0025-0.25571-0.39602-0.33339-0.19632-0.0388-0.44399-0.0829-0.55038-0.0982-0.27959-0.04-0.32891-0.0789-0.36178-0.2848-0.01618-0.10133-0.05898-0.22942-0.09512-0.28465-0.03614-0.0552-0.09326-0.19314-0.12691-0.30648-0.03366-0.11333-0.09015-0.23009-0.12553-0.25946-0.09743-0.0809-0.07775-0.17232 0.08784-0.40822 0.31322-0.4462 0.49256-0.72789 0.49256-0.77364 0-0.0825-0.09916-0.15049-0.21957-0.15049-0.07295 0-0.20213 0.0691-0.34601 0.18495-0.31934 0.25723-0.63033 0.45979-0.70592 0.45979-0.03502 0-0.07444-0.0281-0.08761-0.0624s-0.09477-0.0854-0.18133-0.11342c-0.08656-0.0281-0.20639-0.0854-0.26629-0.12734-0.0599-0.042-0.18562-0.0898-0.27939-0.10631-0.34944-0.0615-0.37744-0.10786-0.5187-0.85853-0.08933-0.47474-0.12451-0.52227-0.33509-0.45277-0.08517 0.0281-0.15502 0.0738-0.15521 0.1015-1.63e-4 0.0277-0.01994 0.22139-0.04389 0.43038-0.06285 0.5486-0.1719 0.72137-0.4916 0.7788-0.09376 0.0169-0.22247 0.0676-0.28602 0.1129s-0.13799 0.0823-0.16542 0.0823-0.14755 0.042-0.26694 0.0934c-0.16985 0.0731-0.23236 0.0827-0.28736 0.0442-0.03866-0.0271-0.13315-0.081-0.20998-0.11977-0.07683-0.0388-0.13969-0.0864-0.13969-0.10575 0-0.0193-0.03699-0.0469-0.08219-0.0613-0.04521-0.0143-0.15543-0.0843-0.24494-0.15542-0.12473-0.0991-0.1984-0.12634-0.3154-0.1165-0.1415 0.0119-0.1536 0.0242-0.16563 0.16806-0.0093 0.11121 0.01508 0.19042 0.08596 0.27938 0.15844 0.19881 0.28335 0.38433 0.40274 0.59818 0.09727 0.17424 0.10369 0.20849 0.05075 0.27105-0.15115 0.17862-0.29629 0.49932-0.31956 0.70606-0.04257 0.37832-0.02048 0.3619-0.70121 0.52119-0.15366 0.036-0.34092 0.0772-0.41611 0.0916-0.19897 0.0382-0.24713 0.11383-0.18751 0.29447 0.04712 0.14278 0.05849 0.14912 0.31551 0.17596 0.72032 0.0752 0.93694 0.19238 0.99195 0.53641 0.01643 0.10278 0.06789 0.24024 0.11434 0.30548 0.04645 0.0652 0.08446 0.14338 0.08446 0.17363 0 0.0303 0.04065 0.13898 0.09033 0.24161 0.07563 0.15623 0.08115 0.19765 0.03391 0.25456-0.05797 0.0698-0.08373 0.10959-0.2317 0.35737-0.04728 0.0792-0.13916 0.20652-0.20417 0.28298-0.11932 0.14033-0.15262 0.32913-0.07866 0.44595 0.05766 0.0911 0.29115 0.0655 0.42746-0.0468 0.06645-0.0547 0.20289-0.1479 0.3032-0.20701 0.10031-0.0591 0.2368-0.15097 0.30331-0.20416 0.14009-0.11205 0.22739-0.12207 0.30011-0.0344 0.02843 0.0342 0.12267 0.0853 0.20943 0.11342 0.08676 0.0281 0.20676 0.0855 0.26666 0.12746 0.0599 0.042 0.18562 0.0902 0.27939 0.10715 0.09376 0.017 0.20244 0.0473 0.24151 0.0674 0.12298 0.0633 0.24478 0.38759 0.27264 0.72577 0.03817 0.46332 0.05189 0.50789 0.16145 0.52438 0.17384 0.0262 0.29032-0.0154 0.30924-0.11039zm-0.77138-2.2193c-0.07092-0.047-0.15848-0.0855-0.19458-0.0857-0.16829-6.5e-4 -0.65027-0.45424-0.77687-0.73099-0.02704-0.0591-0.08698-0.18047-0.13321-0.2697-0.06588-0.12715-0.08387-0.24802-0.08321-0.55878 8.12e-4 -0.35951 0.01467-0.42687 0.14895-0.72142 0.19382-0.42519 0.45893-0.69078 0.88596-0.88761 0.29626-0.13655 0.3597-0.14975 0.71991-0.1498 0.30954-4e-5 0.43045 0.0183 0.55878 0.0848 0.09007 0.0467 0.21212 0.10703 0.27122 0.13407 0.27676 0.1266 0.73027 0.60857 0.73099 0.77687 1.63e-4 0.0361 0.03871 0.12365 0.08568 0.19457 0.12102 0.18274 0.12436 0.90256 0.0052 1.1332-0.04439 0.086-0.10283 0.20465-0.12987 0.26375-0.12672 0.27701-0.50248 0.63725-0.73993 0.70936-0.05641 0.0171-0.16288 0.0676-0.23659 0.11221-0.19863 0.12015-0.92853 0.11693-1.1125-5e-3zm1.0379-0.90145c0.29543-0.21727 0.40211-0.41248 0.4012-0.73421-6.5e-4 -0.23455-0.02006-0.30552-0.1264-0.46242-0.06909-0.10194-0.19712-0.24217-0.28452-0.31163-0.14148-0.11243-0.19174-0.12628-0.45841-0.12628-0.30093 0-0.40064 0.0426-0.62512 0.26708-0.22447 0.22447-0.26707 0.32418-0.26707 0.62511 0 0.26667 0.01384 0.31694 0.12628 0.45841 0.06945 0.0874 0.20968 0.21543 0.31163 0.28452 0.15769 0.10687 0.22738 0.12573 0.46701 0.1264 0.24543 6.5e-4 0.30402-0.0157 0.4554-0.12698zm-15.496 2.3241c-0.08041-0.0509-0.06733-0.73628 0.01992-1.0436 0.0357-0.12573 0.09029-0.33498 0.12133-0.465 0.11129-0.46622 0.46837-1.0471 0.90524-1.4727 0.39526-0.38503 0.5035-0.47465 0.77495-0.64165 0.1182-0.0727 0.26327-0.16404 0.32237-0.20293 0.16837-0.11078 1.2066-0.60546 1.2714-0.60576 0.02177-9e-5 0.13474-0.0485 0.25104-0.10746 0.1163-0.059 0.23617-0.10727 0.26637-0.10727s0.14586-0.0484 0.25701-0.10746c0.11116-0.0591 0.23044-0.10746 0.26506-0.10746s0.1333-0.0366 0.21926-0.0812c0.08596-0.0447 0.29141-0.14623 0.45655-0.22566 0.3831-0.18427 0.64626-0.37784 0.84953-0.62489l0.16119-0.19591v-0.84932c0-0.71749-0.01041-0.85797-0.06714-0.90504-0.08359-0.0694-0.36269-0.4864-0.36269-0.54192 0-0.0225-0.04835-0.10647-0.10746-0.18658-0.0591-0.0801-0.10746-0.17388-0.10746-0.20837 0-0.0345-0.04653-0.1613-0.1034-0.28179-0.05687-0.12048-0.11731-0.31239-0.13431-0.42646-0.0248-0.16637-0.06476-0.23865-0.20204-0.36535-0.17367-0.1603-0.46288-0.56048-0.46288-0.64048 0-0.0241-0.05017-0.19616-0.11149-0.38239-0.14716-0.44696-0.13103-0.86857 0.04651-1.2153 0.11198-0.21866 0.11709-0.25304 0.08944-0.60176-0.01613-0.20341-0.0708-0.56326-0.12149-0.79967-0.13478-0.62858-0.13315-1.9097 0.0031-2.4044 0.05168-0.18767 0.09396-0.39151 0.09396-0.45298 0-0.0615 0.03826-0.18681 0.08502-0.27852 0.04676-0.0917 0.10716-0.23384 0.13421-0.31582 0.02706-0.082 0.09518-0.21682 0.15139-0.29965 0.05621-0.0828 0.1022-0.17468 0.1022-0.20412 0-0.0294 0.17892-0.23294 0.39759-0.45223 0.46559-0.46689 0.48036-0.4795 0.67698-0.57809 0.08274-0.0415 0.17585-0.0957 0.2069-0.12058 0.03105-0.0248 0.14711-0.0784 0.2579-0.11914 0.90928-0.33407 1.3004-0.40608 2.1786-0.4011 0.64318 4e-3 0.75793 0.0152 0.95796 0.0967 0.12499 0.0509 0.27006 0.0926 0.32237 0.0926 0.05232 4e-5 0.16282 0.037 0.24556 0.0822s0.20847 0.11112 0.27939 0.14651c0.07092 0.0354 0.22485 0.15313 0.34206 0.26163 0.1321 0.12228 0.25299 0.19728 0.31802 0.19728 0.31067 0 1.1195 0.61703 1.3382 1.0209 0.048 0.0886 0.10476 0.19018 0.12612 0.22564 0.12208 0.20269 0.26524 0.57805 0.32787 0.85966 0.03943 0.1773 0.10025 0.4481 0.13515 0.60176 0.0921 0.40549 0.0574 2.1286-0.04848 2.407-0.04046 0.10639-0.08432 0.32931-0.09746 0.49538-0.02146 0.27114-0.01192 0.32485 0.09346 0.52638 0.11345 0.21697 0.11668 0.24196 0.09727 0.75113-0.01723 0.452-0.03694 0.56632-0.13894 0.80609-0.11886 0.27939-0.3281 0.58829-0.44897 0.66282-0.15514 0.0957-0.25289 0.23959-0.28225 0.4156-0.01739 0.10426-0.07764 0.27646-0.13389 0.38265-0.05625 0.1062-0.10227 0.22594-0.10227 0.26611 0 0.0402-0.0215 0.0863-0.04778 0.10255-0.02628 0.0163-0.09451 0.12861-0.15161 0.24969-0.14804 0.31391-0.26407 0.46144-0.77581 0.98649-0.33746 0.34623-0.46608 0.45298-0.50217 0.41675-0.03055-0.0307-0.04851-0.23688-0.04851-0.55691v-0.50821l0.22566-0.2152c0.12411-0.11835 0.22566-0.23881 0.22566-0.26769 0-0.0289 0.04836-0.10996 0.10746-0.18019 0.0591-0.0702 0.10753-0.16007 0.10762-0.19963 8.6e-5 -0.0396 0.04048-0.13806 0.08975-0.21888 0.09241-0.15158 0.21789-0.56237 0.30961-1.0136l0.05243-0.2579 0.18156-0.0243c0.09986-0.0134 0.18747-0.0327 0.19469-0.043 0.24795-0.35334 0.25826-0.38233 0.27934-0.78551l0.02097-0.401-0.22038-0.18979c-0.12121-0.10439-0.22039-0.21286-0.2204-0.24106-1.2e-5 -0.0282 0.03683-0.11524 0.08187-0.19342 0.04504-0.0782 0.09485-0.2292 0.1107-0.33558 0.01584-0.10638 0.06987-0.33849 0.12006-0.51579 0.08075-0.28527 0.09126-0.43369 0.09132-1.2895 4.2e-5 -0.87714-0.0084-0.99111-0.0914-1.225-0.05031-0.14185-0.10421-0.34-0.11979-0.44035s-0.04595-0.19334-0.06749-0.20665c-0.02154-0.0133-0.08676-0.12483-0.14494-0.2478-0.18449-0.38999-0.55469-0.70819-0.89611-0.77024-0.29792-0.0541-0.44254-0.13445-0.69677-0.3869-0.16664-0.16546-0.2935-0.24296-0.55878-0.34134-0.32669-0.12116-0.37626-0.12734-1.0309-0.12851-0.37825-6.8e-4 -0.7651 0.0195-0.85966 0.0449s-0.29766 0.0778-0.45132 0.11644c-0.41192 0.10366-0.97385 0.39519-1.2616 0.65454-0.13377 0.12055-0.4461 0.54853-0.48009 0.65787-0.01751 0.0563-0.06633 0.15143-0.10848 0.21133s-0.08989 0.18563-0.10609 0.27939c-0.0162 0.0938-0.06786 0.29621-0.1148 0.44987-0.12478 0.40848-0.12496 1.7411-3.25e-4 2.2996 0.04749 0.21276 0.09889 0.49322 0.11421 0.62325 0.01532 0.13002 0.06807 0.35457 0.1172 0.499l0.08933 0.26261-0.18274 0.18829c-0.1005 0.10357-0.20151 0.23685-0.22445 0.29618-0.06522 0.16868-3.3e-5 0.57274 0.13588 0.84219 0.1368 0.2712 0.18703 0.31715 0.34779 0.31811 0.13568 8.1e-4 0.21277 0.0736 0.21277 0.20096 0 0.16598 0.22266 0.97092 0.3067 1.1087 0.0439 0.072 0.0799 0.1574 0.07999 0.18979 3.25e-4 0.10537 0.23156 0.44489 0.45148 0.66279l0.21492 0.21295 7e-3 0.68571c8e-3 0.7838 0.0021 0.76926 0.39052 0.96609 0.46824 0.23731 0.54884 0.28149 0.61257 0.33578 0.03546 0.0302 0.11283 0.0695 0.17193 0.0874s0.15998 0.0764 0.22417 0.13 0.1923 0.11031 0.28468 0.12592c0.17919 0.0303 0.25581 3e-3 0.70409-0.24791 0.50516-0.2831 0.69079-0.37602 0.71091-0.35589 0.04397 0.044-0.03835 0.31747-0.11697 0.38862-0.04548 0.0412-0.0947 0.12952-0.10938 0.19635-0.01469 0.0668-0.0544 0.14452-0.08826 0.17263-0.03387 0.0281-0.08911 0.14383-0.12277 0.25716-0.03366 0.11334-0.08989 0.25125-0.12495 0.30648-0.03507 0.0552-0.07661 0.18745-0.09232 0.29383-0.01571 0.10639-0.07071 0.31915-0.12223 0.47282-0.08365 0.24949-0.09357 0.36906-0.09277 1.1176 8.12e-4 0.73899 0.01178 0.87123 0.09283 1.1176 0.05056 0.15366 0.10415 0.36553 0.1191 0.47082s0.06266 0.25036 0.10601 0.32237c0.04335 0.072 0.09136 0.20151 0.10668 0.28776 0.01532 0.0863 0.06483 0.20384 0.11002 0.26129 0.04519 0.0575 0.09478 0.15471 0.11019 0.21611 0.01542 0.0614 0.06497 0.14509 0.11012 0.18595 0.11056 0.10005 0.10368 0.2171-0.0146 0.2488-0.15419 0.0413-9.9333 0.0299-9.9989-0.0117zm7.4747-0.94982c0.01754-0.0355 0.05499-0.15152 0.08322-0.2579 0.14502-0.54652 0.21655-0.7676 0.29848-0.92248 0.04954-0.0936 0.09007-0.19341 0.09007-0.22169 0-0.0476 0.17288-0.42647 0.26241-0.57515 0.02135-0.0355 0.08954-0.16638 0.15152-0.29094s0.1296-0.23692 0.15026-0.24969c0.02066-0.0128 0.03757-0.0695 0.03757-0.12612 0-0.0761-0.04074-0.12224-0.15636-0.1771l-0.15636-0.0742-0.15527 0.17233c-0.0854 0.0948-0.20362 0.23659-0.26272 0.31514-0.12504 0.16617-0.28813 0.35198-0.48171 0.54879-0.11026 0.11209-0.17188 0.13969-0.31188 0.13969-0.15896 0-0.19548-0.0232-0.41041-0.26115-0.31695-0.35084-0.43338-0.48541-0.54377-0.62849-0.47807-0.61968-0.6953-0.81084-0.80114-0.705-0.02599 0.026-0.07723 0.0473-0.11388 0.0474-0.03664 8e-5 -0.18268 0.058-0.32452 0.12879-0.14184 0.0707-0.28105 0.12869-0.30935 0.12878s-0.1424 0.0485-0.25355 0.10762c-0.11116 0.0591-0.23307 0.10806-0.27092 0.1088-0.03785 8.1e-4 -0.14619 0.049-0.24075 0.10724-0.09456 0.0582-0.20382 0.10599-0.24279 0.10611-0.03897 1.3e-4 -0.17458 0.0548-0.30135 0.12147-0.12678 0.0667-0.26897 0.13519-0.31599 0.15223-0.09819 0.0356-0.39314 0.20702-0.66924 0.38899-0.24339 0.16042-0.92399 0.84598-0.96353 0.97057-0.01661 0.0523-0.07662 0.16355-0.13335 0.24715s-0.10315 0.18876-0.10315 0.23368c0 0.0449-0.03983 0.15976-0.08851 0.25518-0.16145 0.31648-0.37531 0.29775 3.2593 0.28541 2.8349-0.01 3.2498-0.0192 3.2777-0.0755zm-0.0418-3.3118c0.15244-0.1903 0.33035-0.41045 0.39536-0.48923 0.06501-0.0788 0.1182-0.18289 0.1182-0.23135 0-0.0911-0.16137-0.22796-0.42928-0.36413-0.08304-0.0422-0.19934-0.10309-0.25845-0.13529-0.0591-0.0322-0.16916-0.0715-0.24458-0.0873-0.12155-0.0255-0.14458-0.0143-0.20282 0.0983-0.03614 0.0699-0.14986 0.2114-0.25273 0.31448-0.10286 0.10308-0.22179 0.24068-0.26429 0.30578l-0.07727 0.11836 0.16586 0.20401c0.09122 0.1122 0.20476 0.24363 0.25232 0.29205 0.04756 0.0484 0.12071 0.1403 0.16256 0.20417 0.05707 0.0871 0.11132 0.11613 0.21702 0.11613 0.12463 0 0.173-0.04 0.41809-0.346z" stroke-width=".042983"/>
 </g>
</svg>
