<svg width="71.557mm" height="129.29mm" version="1.1" viewBox="0 0 71.557 129.29" xmlns="http://www.w3.org/2000/svg">
 <g transform="translate(-68.257 -70.053)">
  <path d="m75.17 199.34c0.68319 0 1.3663-0.26198 1.8898-0.78548l57.73-57.729c1.7e-4 -1.8e-4 2.6e-4 -2.7e-4 5.3e-4 -5.3e-4l4.2385-4.2385c1.047-1.047 1.047-2.7326 0-3.7796l-4.2385-4.2385-57.73-57.73c-1.047-1.047-2.7326-1.047-3.7796 0l-4.2385 4.2385c-1.047 1.047-1.047 2.7326 0 3.7796l55.841 55.841-55.841 55.84c-1.047 1.047-1.047 2.7331 0 3.7801l4.2385 4.238c0.52349 0.5235 1.2066 0.78548 1.8898 0.78548z" fill-rule="evenodd"/>
 </g>
</svg>
