<svg width="129.29mm" height="71.557mm" version="1.1" viewBox="0 0 129.29 71.557" xmlns="http://www.w3.org/2000/svg">
 <g transform="translate(-39.391 -98.918)">
  <path d="m39.391 105.83c0 0.68319 0.26198 1.3663 0.78548 1.8898l57.729 57.73c1.8e-4 1.7e-4 2.7e-4 2.6e-4 5.3e-4 5.3e-4l4.2385 4.2385c1.047 1.047 2.7326 1.047 3.7796 0l4.2385-4.2385 57.73-57.73c1.047-1.047 1.047-2.7326 0-3.7796l-4.2385-4.2385c-1.047-1.047-2.7326-1.047-3.7796 0l-55.841 55.841-55.84-55.841c-1.047-1.047-2.7331-1.047-3.7801 0l-4.238 4.2385c-0.5235 0.52349-0.78548 1.2066-0.78548 1.8898z" fill-rule="evenodd"/>
 </g>
</svg>
