<svg width="129.29mm" height="71.557mm" version="1.1" viewBox="0 0 129.29 71.557" xmlns="http://www.w3.org/2000/svg">
 <g transform="translate(-39.392 -98.918)">
  <path d="m168.68 163.56c0-0.68319-0.26198-1.3663-0.78548-1.8898l-57.729-57.73c-1.8e-4 -1.7e-4 -2.7e-4 -2.6e-4 -5.3e-4 -5.3e-4l-4.2385-4.2385c-1.047-1.047-2.7326-1.047-3.7796 0l-4.2385 4.2385-57.73 57.73c-1.047 1.047-1.047 2.7326 0 3.7796l4.2385 4.2385c1.047 1.047 2.7326 1.047 3.7796 0l55.841-55.841 55.84 55.841c1.047 1.047 2.7331 1.047 3.7801 0l4.238-4.2385c0.5235-0.52349 0.78548-1.2066 0.78548-1.8898z" fill-rule="evenodd"/>
 </g>
</svg>
