<svg width="143.26mm" height="143.26mm" version="1.1" viewBox="0 0 143.26 143.26" xmlns="http://www.w3.org/2000/svg">
 <g transform="translate(-30.201 -98.151)">
  <path transform="scale(.26458)" d="m384.87 370.96a270.72 270.72 0 0 0-270.72 270.72 270.72 270.72 0 0 0 270.72 270.72 270.72 270.72 0 0 0 270.72-270.72 270.72 270.72 0 0 0-270.72-270.72zm0 27.92a242.8 242.8 0 0 1 242.8 242.8 242.8 242.8 0 0 1-242.8 242.8 242.8 242.8 0 0 1-242.8-242.8 242.8 242.8 0 0 1 242.8-242.8zm-47.822 137.4c-2.0672 0.12686-4.2043 1.1429-6.5879 3.0371-7.923 6.2964-97.549 97.25-98.137 99.59-0.33634 1.3389-0.33812 3.518-6e-3 4.8418 0.58324 2.3238 90.239 93.335 98.096 99.578 5.2474 4.1701 9.2805 4.0448 14.033-0.4375 2.5975-2.4497 3.8091-4.5643 4.1738-7.2832 0.67542-5.0356 1.195-4.4431-39.994-45.688-18.593-18.618-33.594-34.401-33.336-35.072 0.25777-0.67173 1.9117-1.5099 3.6777-1.8633 1.766-0.35308 58.481-0.64258 126.03-0.64258h122.82l3.6914-3.3809c3.1425-2.8789 3.6914-4.0142 3.6914-7.6191 0-3.605-0.54892-4.7383-3.6914-7.6172l-3.6914-3.3828h-122.82c-67.551 0-124.26-0.28724-126.03-0.64062-1.766-0.3532-3.4219-1.1935-3.6797-1.8652-0.25777-0.67173 14.743-16.453 33.336-35.07s35.267-35.596 37.055-37.73c4.648-5.5505 4.4701-9.7076-0.63281-14.811-2.7997-2.7997-5.3421-4.1065-8-3.9434z" fill-rule="evenodd"/>
 </g>
</svg>
