<svg width="19.96mm" height="19.136mm" version="1.1" viewBox="0 0 19.96 19.136" xmlns="http://www.w3.org/2000/svg">
 <g transform="translate(-38.481 -179.81)">
  <path d="m55.912 198.93c-0.21016-0.0152-0.42444-0.0446-0.47618-0.0653-0.05174-0.0206-0.27058-0.0633-0.48632-0.0949s-0.44696-0.085-0.51383-0.11872c-0.06687-0.0337-0.20498-0.079-0.3069-0.10066-0.10192-0.0216-0.25043-0.0767-0.33-0.12244-0.07957-0.0457-0.1944-0.0935-0.25517-0.10618-0.06078-0.0126-0.13089-0.0476-0.15582-0.0776-0.02493-0.0301-0.10808-0.084-0.18477-0.11989-0.14593-0.0684-0.31099-0.17559-0.48681-0.31639-0.05731-0.0459-0.17025-0.12002-0.25096-0.16469-0.14509-0.0804-0.14942-0.0806-0.38211-0.0251-0.51564 0.12305-1.9434 0.10896-2.4126-0.0238-0.10166-0.0288-0.31771-0.0697-0.4801-0.0911-0.1624-0.0214-0.36072-0.0676-0.44073-0.10279-0.08-0.0352-0.23632-0.0824-0.34737-0.1048-0.11105-0.0224-0.23863-0.0642-0.28351-0.0928-0.04488-0.0286-0.16884-0.082-0.27547-0.11867-0.10663-0.0367-0.21842-0.088-0.2484-0.11407-0.02999-0.026-0.13641-0.074-0.23649-0.10658-0.10008-0.0325-0.19168-0.0749-0.20357-0.0942-0.01188-0.0192-0.08632-0.0652-0.16541-0.10215-0.07909-0.0369-0.19288-0.10203-0.25287-0.14475-0.10339-0.0735-0.22756-0.15146-0.4283-0.26867-0.04908-0.0287-0.12937-0.0912-0.17842-0.13895-0.04905-0.0477-0.14254-0.12941-0.20775-0.18145-0.39383-0.31422-0.61016-0.51428-0.81142-0.75044-0.66002-0.77442-0.71835-0.86992-0.64276-1.0524 0.05367-0.12957 0.21065-0.20483 0.42264-0.20258 0.27026 3e-3 0.33557 0.0531 0.62926 0.48474 0.10142 0.14905 0.69347 0.73949 0.89826 0.89583 0.08231 0.0628 0.21644 0.16742 0.29807 0.23239 0.08163 0.0649 0.17788 0.12749 0.2139 0.13892 0.03602 0.0115 0.07365 0.0421 0.08363 0.068 0.01 0.026 0.07786 0.0664 0.15084 0.0898 0.07299 0.0234 0.16396 0.0708 0.20217 0.10533 0.03821 0.0345 0.142 0.0939 0.23065 0.1318 0.08865 0.038 0.17089 0.0847 0.18277 0.10384 0.01188 0.0192 0.07221 0.0456 0.13409 0.0587 0.06187 0.0131 0.19066 0.0672 0.28618 0.12023 0.09552 0.0531 0.24531 0.10672 0.33286 0.11916 0.08754 0.0124 0.21639 0.0532 0.28632 0.0908 0.06993 0.0375 0.28024 0.0912 0.46734 0.11924 0.18711 0.0281 0.40998 0.078 0.49527 0.11093 0.13294 0.0512 0.29389 0.06 1.1277 0.0619 0.9114 2e-3 0.992-3e-3 1.2802-0.079 0.18257-0.048 0.34493-0.0719 0.39948-0.0586 0.12529 0.0306 0.32905 0.17318 0.55928 0.39145 0.1058 0.10034 0.21076 0.18236 0.23325 0.18236 0.02249 0 0.08755 0.0392 0.1446 0.0873 0.05703 0.048 0.17079 0.11093 0.25278 0.13985 0.08199 0.0289 0.1733 0.0742 0.2029 0.10055 0.02961 0.0264 0.12417 0.0665 0.21015 0.0893 0.08598 0.0227 0.22401 0.0721 0.30674 0.10958 0.08274 0.0375 0.28594 0.0906 0.45158 0.11791 0.16564 0.0273 0.37932 0.075 0.47485 0.10608 0.2545 0.0826 1.499 0.11169 1.5974 0.0374 0.06611-0.05 0.0532-0.0676-0.31313-0.4287-0.35864-0.35351-0.64832-0.69639-0.74756-0.88486-0.02383-0.0453-0.08008-0.12645-0.12501-0.18046-0.04493-0.054-0.08168-0.12608-0.08168-0.16016 0-0.0341-0.03727-0.11686-0.0828-0.18397-0.047-0.0693-0.1078-0.24541-0.14063-0.4074-0.07984-0.39407-0.05232-0.46495 0.32443-0.83503 0.36044-0.35407 0.66923-0.7083 0.74196-0.85114 0.0292-0.0574 0.08596-0.13404 0.12613-0.17039 0.04017-0.0363 0.07303-0.0859 0.07303-0.11014 0-0.0242 0.03949-0.091 0.08774-0.14833 0.04826-0.0574 0.10513-0.15626 0.12639-0.21978 0.02126-0.0636 0.06635-0.14675 0.10021-0.18496 0.03385-0.0383 0.08001-0.13983 0.10258-0.22579 0.02257-0.086 0.06955-0.20322 0.1044-0.26053 0.03486-0.0573 0.07377-0.16675 0.08647-0.24316 0.01269-0.0764 0.06482-0.27964 0.11581-0.45158 0.08881-0.29943 0.09271-0.34639 0.09225-1.1116-3.93e-4 -0.74795-0.0054-0.81064-0.07794-0.98206-0.04261-0.10065-0.08769-0.27266-0.10019-0.38211-0.01301-0.11391-0.06508-0.27907-0.1218-0.38627-0.0545-0.10299-0.09914-0.22022-0.09921-0.26052-7.1e-5 -0.0403-0.03444-0.12798-0.07638-0.19484-0.04194-0.0669-0.11307-0.19193-0.15806-0.27791-0.15092-0.28834-0.21147-0.38908-0.2789-0.46398-0.03687-0.0409-0.09611-0.12525-0.13164-0.18733-0.03553-0.0621-0.07646-0.1129-0.09096-0.1129s-0.04865-0.0429-0.07589-0.0956c-0.05459-0.10522-0.63558-0.71084-0.79004-0.82346-0.05357-0.039-0.19334-0.1463-0.31059-0.23832-0.11725-0.0921-0.25073-0.1844-0.29662-0.20531-0.04588-0.0209-0.08344-0.052-0.08344-0.069s-0.05862-0.0551-0.13026-0.0846c-0.07165-0.0296-0.21122-0.10697-0.31016-0.17212-0.17498-0.11523-0.18048-0.12394-0.2014-0.318-0.01183-0.10974-0.03638-0.26506-0.05458-0.34517-0.04093-0.1802-0.0426-0.3233-0.0038-0.3233 0.0788 0 0.45307 0.15084 0.56259 0.22673 0.06817 0.0472 0.1405 0.0859 0.16073 0.0859 0.02023 0 0.09579 0.0469 0.16791 0.10427 0.07213 0.0573 0.15189 0.10416 0.17725 0.10416 0.02537 0 0.09953 0.0469 0.16481 0.10417 0.06528 0.0573 0.13011 0.10427 0.14407 0.10427 0.0309 0 0.13089 0.08 0.62962 0.50416 0.33799 0.28742 0.5244 0.48234 0.86326 0.90269 0.0462 0.0573 0.13958 0.17213 0.2075 0.25513 0.06792 0.083 0.12393 0.16898 0.12446 0.19105 5.25e-4 0.0221 0.04743 0.10151 0.10421 0.17659 0.05678 0.075 0.10325 0.15592 0.10325 0.17971 0 0.0238 0.03806 0.0884 0.08459 0.14378 0.04652 0.0553 0.09521 0.14637 0.10821 0.20239 0.013 0.056 0.06011 0.15659 0.10471 0.22347 0.04459 0.0668 0.09743 0.1952 0.11742 0.28519 0.01998 0.09 0.06663 0.22286 0.10366 0.29527 0.03703 0.0724 0.09141 0.26451 0.12084 0.42691 0.02943 0.1624 0.0796 0.38124 0.11149 0.48632 0.04607 0.15182 0.05817 0.34085 0.05893 0.92053 7.88e-4 0.64011-0.0081 0.76187-0.073 0.9938-0.04068 0.14538-0.09095 0.37204-0.11172 0.50369-0.02078 0.13165-0.0684 0.29861-0.10582 0.37101-0.03742 0.0724-0.08414 0.20527-0.10382 0.29527-0.01967 0.09-0.06403 0.20269-0.09856 0.25046-0.03453 0.0477-0.08281 0.14937-0.10729 0.22579-0.02448 0.0764-0.07234 0.17021-0.10637 0.20842-0.03402 0.0383-0.08586 0.12773-0.11519 0.19892-0.02933 0.0712-0.08553 0.16403-0.12491 0.20629-0.03937 0.0423-0.07159 0.0959-0.07159 0.11911 0 0.0233-0.05557 0.11018-0.12349 0.19319-0.06792 0.083-0.16562 0.20336-0.21711 0.26745-0.21573 0.26852-0.3432 0.4154-0.52248 0.60199-0.2767 0.28798-0.25917 0.37681 0.20863 1.0576 0.23338 0.33962 0.93942 0.97212 1.3188 1.1814 0.03945 0.0218 0.13278 0.0992 0.2074 0.17205 0.11356 0.11089 0.13567 0.15538 0.13567 0.27308 0 0.11633-0.02329 0.16456-0.13495 0.27953-0.20267 0.20866-0.3161 0.28202-0.5258 0.34006-0.10466 0.029-0.25852 0.0782-0.3419 0.10934-0.1839 0.0688-0.94866 0.0968-1.5158 0.0556zm-16.174-4.5858c-0.12637-0.0158-0.278-0.0539-0.33695-0.0843-0.05895-0.0305-0.18423-0.072-0.27841-0.0922-0.101-0.0217-0.20393-0.0715-0.25095-0.12158-0.04384-0.0467-0.09783-0.0848-0.11996-0.0848-0.02213 0-0.08975-0.0617-0.15026-0.13691-0.15387-0.19146-0.15038-0.3561 0.01121-0.52987 0.06564-0.0706 0.15305-0.14638 0.19423-0.16843 0.04118-0.022 0.16834-0.11277 0.28257-0.20164 0.11424-0.0889 0.2403-0.18492 0.28013-0.21345 0.16352-0.11712 0.75447-0.74306 0.75447-0.79915 0-0.0178 0.04479-0.0838 0.09952-0.14646 0.05474-0.0628 0.11102-0.15089 0.12506-0.19585 0.01404-0.045 0.06305-0.13702 0.1089-0.20458 0.12528-0.18462 0.11127-0.331-0.04689-0.49004-0.15075-0.15157-0.49963-0.53843-0.59991-0.66523-0.03777-0.0477-0.1117-0.14154-0.16426-0.20841-0.05256-0.0669-0.12539-0.1802-0.16183-0.25185-0.03645-0.0716-0.07813-0.13026-0.09265-0.13026s-0.05297-0.0696-0.08545-0.15462c-0.03247-0.085-0.08848-0.18125-0.12445-0.2138-0.03597-0.0325-0.0654-0.0772-0.0654-0.0993 0-0.022-0.05466-0.14855-0.12147-0.2812-0.06681-0.13264-0.12167-0.26461-0.12192-0.29327-2.49e-4 -0.0287-0.03723-0.13111-0.0822-0.22767-0.04496-0.0965-0.10024-0.28414-0.12284-0.41684-0.0226-0.13271-0.07439-0.35852-0.11511-0.50181-0.06557-0.2308-0.07377-0.34577-0.07183-1.0074 0.0019-0.6477 0.01151-0.77682 0.07237-0.97264 0.03861-0.12418 0.0882-0.33396 0.11021-0.46617 0.02201-0.13221 0.07639-0.3276 0.12084-0.43421 0.04445-0.10661 0.09151-0.2439 0.10457-0.30509 0.01306-0.0612 0.05167-0.14717 0.08577-0.19106 0.03411-0.0439 0.08185-0.14232 0.10609-0.21875 0.02423-0.0764 0.07309-0.17088 0.10856-0.20991 0.03547-0.039 0.08294-0.125 0.10548-0.19105 0.02254-0.066 0.07757-0.16427 0.12228-0.21828 0.0447-0.054 0.08129-0.11115 0.08129-0.12697 0-0.0256 0.05163-0.0948 0.31123-0.41747 0.39824-0.4949 0.69397-0.79915 1.0435-1.0736 0.12418-0.0975 0.26487-0.20953 0.31263-0.24899 0.11348-0.0937 0.30368-0.22311 0.43422-0.29533 0.05731-0.0317 0.13547-0.0851 0.17368-0.11878 0.03821-0.0336 0.1262-0.0793 0.19554-0.1015 0.06933-0.0222 0.15218-0.0692 0.18411-0.10449 0.03193-0.0353 0.12731-0.0835 0.21196-0.10723 0.08465-0.0237 0.17189-0.0647 0.19386-0.0912 0.02197-0.0265 0.12778-0.0731 0.23513-0.10374 0.10736-0.0306 0.24209-0.0835 0.29941-0.1177 0.05731-0.0341 0.198-0.0811 0.31263-0.10427 0.11463-0.0233 0.26313-0.0698 0.33-0.10364 0.06687-0.0337 0.26113-0.0798 0.43168-0.10225 0.17055-0.0225 0.44411-0.0736 0.6079-0.11368 0.26258-0.0641 0.40256-0.0727 1.1836-0.0727 0.77835 0 0.92161 9e-3 1.1811 0.0721 0.1624 0.0396 0.42755 0.0901 0.58923 0.11224 0.16168 0.0221 0.38052 0.076 0.48632 0.11976 0.10579 0.0438 0.26198 0.0901 0.34707 0.1031 0.0851 0.013 0.20233 0.0523 0.26053 0.0876 0.05819 0.0352 0.19365 0.0891 0.30101 0.11968 0.10736 0.0306 0.21317 0.0773 0.23514 0.10374 0.02197 0.0265 0.10921 0.0675 0.19386 0.0912 0.08465 0.0237 0.18004 0.072 0.21196 0.10724 0.03193 0.0353 0.11477 0.0823 0.18411 0.10448 0.06933 0.0222 0.15733 0.0678 0.19554 0.1015 0.03821 0.0336 0.11637 0.0871 0.17369 0.11878 0.13118 0.0726 0.32133 0.20312 0.43421 0.29814 0.04777 0.0402 0.18845 0.15189 0.31263 0.2482 0.31759 0.24631 0.48548 0.41185 0.82915 0.81755 0.4268 0.50383 0.73402 0.9393 0.73402 1.0404 0 0.0231 0.03682 0.0861 0.08181 0.14012 0.04499 0.054 0.10218 0.16071 0.12706 0.23714 0.02489 0.0764 0.07351 0.17803 0.10804 0.22579 0.03453 0.0477 0.07889 0.16047 0.09856 0.25047s0.0664 0.22286 0.10382 0.29526c0.03742 0.0724 0.085 0.24107 0.10573 0.3748 0.02073 0.13375 0.07097 0.3604 0.11165 0.50369 0.06459 0.22749 0.07397 0.35083 0.07397 0.97264s-0.0094 0.74515-0.07397 0.97264c-0.04069 0.14329-0.09093 0.36994-0.11165 0.50369-0.02073 0.13373-0.0683 0.30239-0.10573 0.3748-0.03742 0.0724-0.08419 0.20368-0.10392 0.29173-0.01973 0.088-0.06438 0.20075-0.09922 0.25046-0.03484 0.0498-0.08308 0.15291-0.10719 0.22933-0.02412 0.0764-0.0713 0.17022-0.10488 0.20843-0.03357 0.0382-0.09163 0.13981-0.12902 0.22578-0.03739 0.086-0.09397 0.17777-0.12574 0.20399-0.03177 0.0263-0.05775 0.0677-0.05775 0.0923s-0.0543 0.11247-0.12068 0.19548c-0.06637 0.083-0.15201 0.19-0.1903 0.23777-0.0383 0.0477-0.19336 0.22752-0.34458 0.39947-0.26482 0.30113-0.37505 0.40525-0.7513 0.70975-0.09552 0.0773-0.21277 0.17275-0.26053 0.21208-0.14216 0.11706-0.32307 0.23804-0.43492 0.29083-0.0577 0.0272-0.13311 0.0807-0.16756 0.11872-0.03445 0.038-0.10447 0.0796-0.15561 0.0924-0.05114 0.0128-0.16208 0.0689-0.24656 0.12471-0.08447 0.0558-0.17854 0.1015-0.20904 0.1015-0.03049 0-0.11095 0.0377-0.17878 0.0838-0.06783 0.0461-0.1926 0.10225-0.27728 0.12475-0.08467 0.0225-0.20156 0.0701-0.25976 0.10566-0.05821 0.0356-0.17544 0.0754-0.26053 0.0883-0.0851 0.013-0.24127 0.0593-0.34707 0.1031-0.1058 0.0438-0.32137 0.0973-0.47906 0.11882-0.15769 0.0216-0.42284 0.0684-0.58923 0.10385-0.61776 0.13195-1.9034 0.12063-2.3518-0.0207-0.18938-0.0597-0.19856-0.0595-0.32195 6e-3 -0.06985 0.0372-0.198 0.12574-0.28476 0.19667-0.32245 0.2636-0.36961 0.29701-0.52249 0.37025-0.08598 0.0412-0.1954 0.0959-0.24316 0.12157-0.23536 0.12654-0.48431 0.23242-0.62527 0.26593-0.08598 0.0204-0.22962 0.0677-0.3192 0.10501-0.08959 0.0373-0.28498 0.0838-0.43421 0.10332-0.14923 0.0195-0.39638 0.0654-0.54922 0.10204-0.31954 0.0766-1.3763 0.11968-1.7582 0.0716zm1.7693-0.88482c0.10163-0.0319 0.31387-0.079 0.47162-0.10448 0.15775-0.0255 0.35596-0.0778 0.44047-0.11611 0.08451-0.0384 0.22385-0.0884 0.30965-0.11141 0.0858-0.023 0.19522-0.069 0.24316-0.10225 0.04794-0.0333 0.13913-0.0782 0.20266-0.0997 0.06352-0.0216 0.16242-0.0787 0.21977-0.1269 0.05735-0.0483 0.12268-0.0877 0.14516-0.0877 0.02249 0 0.12745-0.0821 0.23325-0.18238 0.23923-0.2268 0.43601-0.36046 0.57159-0.38822 0.06387-0.0131 0.2118 0.01 0.38211 0.0573 0.26003 0.0736 0.34155 0.0784 1.2679 0.0767 0.83623-1e-3 1.0197-0.0112 1.1811-0.0617 0.10508-0.0329 0.33901-0.0835 0.51983-0.11258 0.18083-0.029 0.37623-0.0818 0.43421-0.11742 0.05799-0.0356 0.1952-0.0811 0.30492-0.10118 0.10972-0.0201 0.24259-0.0674 0.29526-0.10512 0.05268-0.0377 0.16017-0.0853 0.23888-0.10555 0.07871-0.0203 0.18031-0.0659 0.22579-0.10129 0.04548-0.0354 0.1411-0.0833 0.21248-0.10662 0.07137-0.0233 0.13892-0.0571 0.15009-0.0752 0.01117-0.0181 0.09345-0.0723 0.18285-0.12038 0.21203-0.11417 0.52074-0.32737 0.77674-0.53643 0.14276-0.11659 0.82179-0.80308 0.93541-0.94569 0.04986-0.0626 0.11469-0.16072 0.14408-0.21809 0.02938-0.0574 0.08629-0.13403 0.12645-0.17038 0.04017-0.0363 0.07303-0.0859 0.07303-0.11015 0-0.0242 0.03949-0.091 0.08774-0.14834 0.04825-0.0574 0.10513-0.15624 0.12639-0.21976 0.02126-0.0636 0.06635-0.14676 0.1002-0.18498 0.03385-0.0383 0.08002-0.13981 0.10258-0.22579 0.02257-0.086 0.06954-0.2032 0.1044-0.26052 0.03486-0.0573 0.07378-0.16674 0.08647-0.24316 0.01269-0.0764 0.06482-0.27964 0.11581-0.45159 0.08845-0.29826 0.09272-0.34855 0.09272-1.0942s-0.0043-0.79596-0.09272-1.0942c-0.051-0.17195-0.10311-0.37516-0.11581-0.45158-0.01269-0.0764-0.05161-0.18585-0.08647-0.24316-0.03486-0.0573-0.08184-0.17455-0.1044-0.26053-0.02257-0.086-0.06896-0.18758-0.10311-0.22579-0.03415-0.0383-0.08045-0.12685-0.10289-0.19697-0.02244-0.0701-0.06435-0.14703-0.09313-0.17091-0.02878-0.0239-0.07501-0.0916-0.10271-0.15041-0.05488-0.11655-0.15585-0.26744-0.33436-0.49968-0.12681-0.16497-0.7942-0.84629-0.95257-0.97245-0.25158-0.20039-0.39608-0.30745-0.50173-0.3717-0.06283-0.0382-0.1936-0.11987-0.2906-0.18145-0.097-0.0616-0.24671-0.14478-0.33268-0.18486-0.08598-0.0401-0.17976-0.0934-0.20842-0.11845-0.02866-0.0251-0.13994-0.0707-0.2473-0.1014s-0.21407-0.0786-0.23714-0.10634c-0.02308-0.0279-0.13063-0.0689-0.23902-0.0912-0.10839-0.0223-0.25498-0.07-0.32576-0.10608-0.07078-0.0359-0.23925-0.081-0.37439-0.10023-0.13513-0.0191-0.37423-0.07-0.53132-0.11299-0.26508-0.0725-0.35679-0.0781-1.2756-0.0781-0.91884 0-1.0105 5e-3 -1.2756 0.0781-0.15709 0.0429-0.39618 0.0939-0.53132 0.11299-0.13514 0.0191-0.30361 0.0641-0.37439 0.0999-0.07078 0.0358-0.21256 0.0829-0.31508 0.10458-0.10252 0.0218-0.22771 0.069-0.27822 0.10491-0.05051 0.0359-0.16203 0.0841-0.24783 0.10695-0.0858 0.0229-0.17945 0.0624-0.2081 0.0879-0.02866 0.0255-0.12245 0.0799-0.20842 0.12092-0.26235 0.12507-0.45879 0.23785-0.53518 0.30726-0.04 0.0363-0.10975 0.0853-0.155 0.10859-0.18652 0.0963-0.53066 0.38848-0.89037 0.75577-0.48632 0.4966-0.56544 0.58802-0.64695 0.74752-0.03662 0.0716-0.0795 0.13026-0.09532 0.13026s-0.05699 0.0626-0.0915 0.13915c-0.03451 0.0765-0.08298 0.15595-0.10771 0.17647-0.02473 0.0205-0.06332 0.0947-0.08575 0.16479-0.02244 0.0702-0.06873 0.15876-0.10288 0.19697-0.03415 0.0383-0.07989 0.13653-0.10164 0.21848-0.02176 0.0819-0.07787 0.22106-0.12469 0.30912-0.04682 0.0881-0.08514 0.20193-0.08514 0.25303s-0.04225 0.22464-0.09389 0.38562c-0.09054 0.28229-0.09394 0.32113-0.09552 1.0916-0.0016 0.76697 2e-3 0.81147 0.09107 1.1116 0.051 0.17195 0.10266 0.37204 0.1148 0.44463 0.01214 0.0726 0.0603 0.2039 0.10702 0.29176 0.04671 0.0879 0.08495 0.18651 0.08495 0.21921s0.03644 0.11314 0.08096 0.17876c0.04452 0.0656 0.09883 0.17057 0.12068 0.23323 0.02184 0.0627 0.07921 0.16086 0.12746 0.21821 0.04826 0.0574 0.08774 0.12411 0.08774 0.14834 0 0.0242 0.03286 0.0738 0.07303 0.11015 0.04017 0.0363 0.09692 0.11302 0.12613 0.17038 0.07191 0.14125 0.37901 0.49383 0.74135 0.85114 0.37806 0.37283 0.4064 0.44599 0.32597 0.84161-0.03213 0.15805-0.09576 0.35125-0.14139 0.42935-0.04563 0.0781-0.08297 0.16583-0.08297 0.19496 0 0.0291-0.04689 0.11197-0.10421 0.18409-0.05731 0.0722-0.10421 0.147-0.10421 0.16639 0 0.10023-0.48981 0.63766-0.92099 1.0105-0.15385 0.13303-0.19707 0.24016-0.11244 0.27866 0.02388 0.0108 0.34824 0.0139 0.7208 6e-3 0.50646-0.01 0.724-0.0276 0.86217-0.071zm0.99626-5.3668c-0.12121-0.0512-0.26242-0.22978-0.28326-0.35815-0.01783-0.10987-0.0041-0.14116 0.12039-0.27464l0.14051-0.15064h4.0333l0.13005 0.13006c0.10703 0.10702 0.13005 0.15473 0.13005 0.26942s-0.02303 0.1624-0.13004 0.26943l-0.13004 0.13005-1.9708 6e-3c-1.0839 4e-3 -2.002-6e-3 -2.0402-0.0224zm5.419 5.3e-4c-0.12177-0.0524-0.26247-0.23063-0.28326-0.35872-0.01783-0.10987-0.0041-0.14115 0.12039-0.27463l0.14051-0.15064h1.5323l0.13005 0.13006c0.10703 0.10702 0.13005 0.15472 0.13005 0.26941 0 0.11468-0.02304 0.16243-0.12998 0.26944l-0.12998 0.13004-0.72029 7e-3c-0.39616 4e-3 -0.75155-6e-3 -0.78977-0.0224zm-5.419-2.5018c-0.12104-0.0508-0.26241-0.22952-0.28326-0.35798-0.01783-0.10988-0.0041-0.14116 0.12039-0.27464l0.14051-0.15063h6.9512l0.13005 0.13005c0.10703 0.10703 0.13005 0.15473 0.13005 0.26942 0 0.1147-0.02303 0.1624-0.13005 0.26942l-0.13005 0.13006-3.4297 6e-3c-1.8863 3e-3 -3.461-6e-3 -3.4992-0.0224z" stroke-width=".034737"/>
 </g>
</svg>
