<svg width="177.03mm" height="197.09mm" version="1.1" viewBox="0 0 177.03 197.09" xmlns="http://www.w3.org/2000/svg">
 <g transform="translate(-23.341 -15.669)">
  <path d="m164.43 212.01c-0.40078-0.46883-1.1454-1.3211-1.6547-1.8939-0.50932-0.5728-1.3077-1.4846-1.7741-2.0263-0.46647-0.54167-1.3191-1.5206-1.8948-2.1755-1.405-1.5983-3.0631-3.5722-4.6654-5.5543-0.72761-0.90005-1.6801-2.045-2.1167-2.5444-0.43656-0.49936-1.2105-1.3998-1.7198-2.001-0.50932-0.60118-1.4023-1.6087-1.9844-2.239-0.58209-0.63029-1.5941-1.8118-2.249-2.6256-0.65485-0.81381-1.4883-1.8119-1.8521-2.2179-0.3638-0.40607-1.3163-1.54-2.1167-2.5199-2.7135-3.3221-3.8174-4.6151-6.4823-7.5932-2.9252-3.2689-3.9779-4.5031-4.0713-4.7734-0.0564-0.16316 0.11518-0.45587 0.3813-0.65046 0.38161-0.27904 2.3988-0.3538 9.5464-0.3538h9.0626l0.41986-0.59531c0.37404-0.53032 0.41668-2.5249 0.39066-18.27-0.0222-13.416 0.0474-17.767 0.28899-18.058 0.2704-0.32582 2.3795-0.38342 14.038-0.38342h13.72l0.41766 0.63744c0.37114 0.56643 0.41252 2.6001 0.37146 18.257-0.0359 13.699 0.0269 17.708 0.28229 18.016 0.27961 0.33691 1.6446 0.39581 9.1728 0.39581 7.471 0 8.9674 0.0637 9.6374 0.41011l0.79307 0.41011-1.8666 2.1696c-1.0267 1.1933-2.2921 2.6458-2.8122 3.2279-3.3364 3.7346-6.4918 7.457-8.1784 9.6482-0.58208 0.75623-1.475 1.831-1.9844 2.3884-3.5295 3.947-6.551 7.4115-10.236 11.937-1.4715 1.8123-2.304 2.779-4.1906 4.8657-1.5249 1.6866-2.6415 2.9793-3.379 3.9115-0.37932 0.47949-0.92856 0.7916-1.5738 0.89433-0.88172 0.14039-1.0715 0.0637-1.7198-0.6946zm3.196-12.247 14.133-16.752c0.65215-0.42901 0.77411-1.1531 0.27781-1.6494-0.22026-0.22026-1.6031-0.3175-4.5153-0.3175-2.3877 0-4.4185-0.1181-4.7096-0.27389-0.49827-0.26666-0.51178-0.7482-0.51178-18.237 0-15.978-0.046-18.009-0.41577-18.379l-11.875 7e-3c-0.3789 0.3789-0.42027 2.265-0.40166 18.316 0.0194 16.728-9e-3 17.915-0.44082 18.231-0.32917 0.24069-1.6899 0.33749-4.7442 0.33749-3.4211 0-4.3468 0.0773-4.6015 0.38418l16.116 19.195c0.84317 0 1.1421-0.15221 1.689-0.8599zm-143.77 5.8294c-0.50682-0.18748-0.51339-1.4015-0.51339-94.904 0-58.571 0.0945-94.772 0.24776-94.867 0.13627-0.08422 20.926-0.15215 46.2-0.15095l45.953 0.0022 0.96148 0.86898c0.52882 0.47794 13.195 13.104 28.147 28.059l27.186 27.19v27.342c0 22.23-0.0649 27.396-0.34687 27.63-0.43538 0.36133-7.0174 0.45602-7.3674 0.10599-0.15529-0.15529-0.27194-9.5575-0.30381-24.487-0.0369-17.29-0.13558-24.318-0.34438-24.527-0.21023-0.21029-7.6549-0.28656-26.43-0.27078-24.137 0.0203-26.175-0.0121-26.629-0.42303-0.47292-0.42799-0.49172-1.4444-0.49172-26.579 0-23.405-0.0434-26.177-0.41578-26.55-0.37416-0.37416-4.2665-0.41577-38.894-0.41577-38.125 0-38.483 0.0049-39.007 0.52917-0.52699 0.527-0.52916 0.88194-0.52916 86.519 0 85.637 2e-3 85.992 0.52916 86.519 0.52573 0.52573 0.88195 0.52917 54.752 0.52917 33.561 0 54.474 0.0957 54.883 0.25107 0.36319 0.13808 1.1292 0.88566 1.7021 1.6613 0.57298 0.77562 1.7719 2.1517 2.6642 3.058 1.6416 1.6673 2.0379 2.6477 1.1594 2.8685-0.7977 0.20053-122.57 0.24111-123.11 0.041zm132.69-136.46c0.37328-0.14192 0.67868-0.42338 0.67868-0.62547 0-0.2021-8.3344-8.7028-18.521-18.891-10.186-10.188-18.521-18.645-18.521-18.793 0-0.58843-0.92349-0.62098-1.3868-0.04888-0.4342 0.53622-0.46534 1.8195-0.46534 19.18 0 16.561 0.0457 18.651 0.41578 19.021 0.36998 0.36999 2.437 0.41578 18.768 0.41578 11.284 0 18.614-0.0994 19.031-0.25804zm-91.311 91.06c-0.31685-0.0451-0.72313-0.25919-0.90284-0.47573l22.387-36.772-20.552-36.292 18.6-0.51603 13.981 27.056 14.992-27.225 16.514 0.0998-20.363 36.309 20.989 35.874c0.88603 1.9649 1.0102 1.938-8.9432 1.9324-4.7469-3e-3 -8.8568-0.0766-9.1331-0.16433l-14.767-26.336-15.305 26.499-8.4609 0.0457c-4.6535 0.0251-8.7201 9e-3 -9.037-0.0364z" stroke-width=".26458"/>
 </g>
</svg>
