<svg width="83.674mm" height="91mm" version="1.1" viewBox="0 0 83.674 91" xmlns="http://www.w3.org/2000/svg">
 <g transform="translate(-65.234 -84.576)">
  <g>
   <path d="m79.594 175.56s-0.14748-1.7791-0.24016-2.6668c-0.23696-2.2698-0.35926-4.5609-0.80759-6.7985-1.4245-7.1096-1.5474-14.23-5.9539-20.922-0.86242-1.3097-1.3075-2.0053-1.9033-3.0427-0.44658-0.7775-0.86426-1.5723-1.2511-2.3812-0.3337-0.69788-0.6447-1.4075-0.92146-2.1299-0.79634-2.0785-1.643-4.1576-2.1224-6.3311-0.74585-3.3814-1.0665-6.8627-1.148-10.324-0.05719-2.429 0.09207-4.8733 0.46368-7.2744 0.14594-0.94295 0.3775-1.8766 0.68998-2.7781 1.2958-3.7385 2.6026-7.5854 4.8818-10.82 2.5419-3.6069 5.9026-6.6763 9.5323-9.1856 2.7923-1.9304 5.9892-3.2657 9.2011-4.3642 2.3687-0.81011 4.863-1.2179 7.3353-1.611 3.3715-0.53603 11.567-0.61199 17.066 0.87531 5.3506 1.4473 10.576 4.0138 14.772 7.6359 2.9246 2.5248 4.9601 5.9952 6.7681 9.4096 1.2724 2.4028 2.0356 5.0519 2.8003 7.6611 0.33041 1.1274 0.55767 2.2838 0.76829 3.4396 0.17862 0.98016 0.20277 1.9869 0.4193 2.9593 0.21682 0.97378 0.47154 1.95 0.87707 2.8615 0.50152 1.1272 1.267 2.1174 1.9024 3.175 0.61578 1.025 1.2345 2.0483 1.8509 3.073 0.29169 0.48491 0.58348 0.96975 0.87426 1.4552 0.84929 1.4179 1.8599 2.7517 2.5422 4.2571 0.3974 0.87677 1.0659 1.8016 0.88863 2.7478-0.40533 2.1633-2.4238 3.779-4.1683 5.1208-0.92027 0.70784-2.1251 0.93636-3.175 1.4321-0.48916 0.23098-1.1552 0.26824-1.4552 0.71839-0.56184 0.84304-0.10921 2.0236-0.19279 3.0332-0.13139 1.5871-0.32053 3.169-0.48511 4.753-0.17206 1.656-0.24113 3.3266-0.52521 4.9671-0.32147 1.8565-0.40198 3.854-1.3303 5.4935-1.2443 2.1976-3.1581 4.1483-5.3966 5.3173-1.4347 0.74918-3.1561 0.8194-4.7731 0.89081-1.5073 0.0666-3.0136-0.20931-4.5054-0.43494-0.75336-0.11394-1.4822-0.36938-2.2384-0.46302-0.21901-0.0271-0.5458-0.10375-0.66146-0.0281-0.0858 0.0561-0.0534 2.2074-0.14245 3.3073-0.10525 1.2998-0.29273 2.5917-0.46271 3.8846-0.13632 1.0369-0.29421 1.6785-0.44678 3.1056-12.137-5e-3 -26.935-0.14008-39.326-0.0184z" fill="#ff0" stroke-width=".26458"/>
   <path d="m107.98 140.56c0.17342-1.2924 0.33289-2.6059 0.7642-3.8365 0.79071-2.2559 2.2808-4.2049 3.2965-6.3689 1.7777-3.787 4.6233-7.384 4.8889-11.559 0.16588-2.6071-0.88631-5.2406-2.1135-7.5469-0.92704-1.7421-2.2746-3.3027-3.8365-4.509-1.7437-1.3467-3.8063-2.3768-5.9531-2.8719-2.3906-0.55137-4.9606-0.53959-7.3601-0.0284-2.0087 0.42792-3.9904 1.2784-5.6165 2.5328-1.759 1.357-3.1914 3.1978-4.1924 5.181-1.122 2.223-1.932 4.74-1.881 7.2295 0.04484 2.1879 1.0524 4.2681 1.9121 6.2806 0.86433 2.0233 2.2853 3.7689 3.2333 5.7544 1.4581 3.054 3.0324 6.1263 3.756 9.4323 0.1948 0.88998 0.14207 2.7295 0.14207 2.7295 0.32188-4.6e-4 4.4131 0.0646 6.5279 0.0964 2.1148 0.0318 6.2569-0.0209 6.2569-0.0209s0.0645-1.6688 0.17536-2.4952z" fill="#fff" stroke-width=".26458"/>
   <path d="m95.017 143.21 12.785 0.0755c-0.0247 1.4113 0.0359 2.4258 2e-3 3.6995-0.0176 0.6602-0.16691 1.379-0.32787 1.9381-0.16095 0.55913-0.36596 0.97363-0.60323 1.4174-0.26818 0.5016-0.59287 0.98735-1.006 1.3783-0.52208 0.49399-1.1366 0.91986-1.8092 1.1731-0.73273 0.2758-1.5415 0.31914-2.3242 0.33884-0.76565 0.0193-1.5474-0.0193-2.2874-0.21667-0.7197-0.192-1.4256-0.49564-2.034-0.92537-0.51856-0.36626-0.91371-0.88565-1.2561-1.4203-0.3066-0.47873-0.52933-0.99255-0.68578-1.5391-0.219-0.76507-0.36673-1.5539-0.44193-2.3461-0.11255-1.1857-0.01102-3.5732-0.01102-3.5732z" fill="#333"/>
  </g>
 </g>
</svg>
