<svg width="19.468mm" height="9.6643mm" version="1.1" viewBox="0 0 19.468 9.6643" xmlns="http://www.w3.org/2000/svg" xmlns:xlink="http://www.w3.org/1999/xlink">
 <defs>
  <linearGradient id="linearGradient4561">
   <stop stop-color="#f6ff00" offset="0"/>
   <stop stop-color="#f60" offset="1"/>
  </linearGradient>
  <linearGradient id="linearGradient4629" x1="42.298" x2="58.431" y1="182.02" y2="182.02" gradientUnits="userSpaceOnUse" xlink:href="#linearGradient4561"/>
 </defs>
 <g transform="translate(-39.012 -182.2)">
  <text x="47.242195" y="187.78633" fill="#000000" font-family="Stencil" font-size="10.583px" letter-spacing="0px" stroke-width=".26458" word-spacing="0px" style="font-feature-settings:normal;font-variant-caps:normal;font-variant-ligatures:normal;font-variant-numeric:normal;line-height:1.25" xml:space="preserve"><tspan x="47.242195" y="199.69258" stroke-width=".26458"/></text>
  <path d="m52.196 191.59c-0.09173-0.42214-0.12495-0.61385-0.16289-0.9403-0.05585-0.48045-0.11356-0.61726-0.35016-0.82997-0.06408-0.0576-0.11259-0.10795-0.10777-0.11173 0.01669-0.0133 1.5404-0.23834 1.9545-0.2886 0.34822-0.0423 0.53178-0.0506 1.1247-0.0511 0.64987-6e-4 0.72998 3e-3 0.96724 0.0508 0.30197 0.0602 0.49219 0.11775 0.70293 0.21279 0.17185 0.0776 0.17332 0.0813 0.11462 0.29654-0.03493 0.12808-0.05412 0.15322-0.3139 0.41074-0.36147 0.35833-0.39957 0.42918-0.40122 0.74599l-0.0012 0.233-0.13496 0.0685c-0.45944 0.23307-0.99589 0.32981-1.8356 0.33103-0.52804 7.6e-4 -1.1919 0.0679-1.4486 0.14651-0.04144 0.0127-0.05009-9e-3 -0.10764-0.27416zm1.4236-0.30037c0.49483-0.10784 0.72983-0.13906 1.0705-0.14207l0.33944-3e-3 0.0513-0.14622c0.07568-0.21566 0.12798-0.4135 0.16948-0.64108 0.02031-0.11138 0.05566-0.26626 0.07855-0.34427l0.04163-0.14183-0.05163-0.0197c-0.20925-0.0795-0.56416-0.13538-0.85575-0.13461-0.24536 6.7e-4 -0.31828 0.012-0.9335 0.1455-0.24637 0.0533-0.3118 0.0593-0.5286 0.0475-0.13609-6e-3 -0.27954-0.0197-0.31878-0.0273-0.06274-0.012-0.07554-5e-3 -0.10619 0.0538-0.06663 0.12884-0.06641 0.22822 0.0011 0.50035 0.05486 0.22113 0.06391 0.30187 0.06358 0.5671l-3.39e-4 0.30926 0.06787 0.0108c0.17168 0.0278 0.21795 0.0299 0.45026 0.0214 0.13609-4e-3 0.3436-0.0301 0.46112-0.0559zm-8.0462-0.14856c-0.11681-0.0168-0.43178-0.37112-0.90706-1.02-0.14046-0.19175-0.30141-0.40644-0.35767-0.47705l-0.10229-0.12841-0.16892 0.0925c-0.09291 0.0508-0.29039 0.16517-0.43885 0.25396-0.79298 0.47426-1.3375 0.66935-2.1338 0.76445-0.23079 0.0276-0.15304-0.0277 0.53794-0.38242 0.91882-0.47167 1.3093-0.7494 1.6059-1.1423l0.09532-0.12626-0.03907-0.11764c-0.0924-0.27816-0.28216-0.50583-0.83959-1.0072-0.2256-0.20294-0.29497-0.29348-0.2951-0.38518-1.34e-4 -0.0947 0.04534-0.13135 0.18182-0.14702 0.33552-0.0385 0.56287 0.14057 0.85426 0.67308 0.13578 0.24814 0.25271 0.39751 0.31118 0.39751 0.02155 0 0.0823-0.0368 0.135-0.0821 0.27792-0.23788 0.37135-0.63093 0.39903-1.6786l0.01511-0.57165-0.11034-0.0289c-0.1904-0.0499-0.54398-0.0562-0.7432-0.0131-0.22748 0.0491-0.5762 0.21909-0.80573 0.39273-0.09842 0.0745-0.18346 0.13083-0.18899 0.12531-0.02958-0.0296 0.14869-0.46354 0.39558-0.96311 0.5367-1.0859 0.77476-1.708 0.87077-2.2755 0.03368-0.19909 0.06119-0.20619 0.3126-0.0806 0.12728 0.0636 0.2259 0.096 0.32151 0.10588l0.13791 0.0143-0.03134 0.13767c-0.14677 0.6446-0.28445 0.93384-0.74002 1.5546-0.13549 0.18461-0.27989 0.44514-0.31347 0.56557-0.01853 0.0664 0.05214 0.0807 0.266 0.0537 0.22492-0.0285 0.44778-0.087 0.85793-0.22543 0.70897-0.23917 1.1552-0.32432 1.6318-0.31138 0.15825 3e-3 0.29432 0.0144 0.30239 0.0225 0.02158 0.0216-0.06413 0.17856-0.13775 0.25217-0.14667 0.14668-0.35206 0.20259-0.87469 0.23814-0.1853 0.0126-0.353 0.023-0.37266 0.0231-0.03155 3.5e-4 -0.03575 0.0565-0.0356 0.47834 2.63e-4 0.83211-0.11743 1.4392-0.47111 2.4302l-0.08661 0.24267 0.05186 0.15097c0.22791 0.66355 1.0169 1.1278 2.6242 1.5442 0.62745 0.16258 0.60668 0.15017 0.48441 0.28942-0.12516 0.14256-0.39413 0.25427-0.77683 0.32267-0.17704 0.0317-1.2652 0.0607-1.4218 0.0381zm-6.2889-0.38245c-0.0065-0.0108-0.02976-0.10024-0.05152-0.19909-0.051-0.23163-0.05079-0.85696 4.76e-4 -1.4732 0.05069-0.6091 0.06872-1.4762 0.03797-1.8267-0.0138-0.1572-0.05041-0.40519-0.08138-0.55109-0.03097-0.14591-0.05636-0.27272-0.05642-0.28182-6.3e-5 -9e-3 0.05303 4e-3 0.11798 0.0317 0.63382 0.25873 1.2398 0.17118 1.647-0.23791 0.17723-0.17805 0.29204-0.37511 0.37478-0.64321 0.04371-0.14166 0.05216-0.2192 0.05268-0.48363 3.4e-4 -0.1732-0.0078-0.3644-0.0181-0.42486l-0.01872-0.10999-0.16124 0.0131c-0.11629 9e-3 -0.31174 0.063-0.70109 0.19255-0.58748 0.19534-0.82597 0.25049-1.0835 0.25049-0.17632 0-0.38308-0.0397-0.35197-0.0674 0.01011-9e-3 0.06858-0.0285 0.13001-0.0435 0.10627-0.0258 0.30649-0.10327 0.93014-0.35956 0.40371-0.16594 0.85449-0.31237 1.1626-0.37766 0.36084-0.0764 0.77893-0.0797 1.0066-7e-3l0.15183 0.0479v0.0867c0 0.13269-0.08107 0.36933-0.22013 0.64255-0.28831 0.56646-0.34456 0.69298-0.38715 0.87063-0.066 0.27532-0.05729 0.49811 0.03337 0.85322l0.01514 0.0592-0.36732 9e-5c-0.30256 6e-5 -0.39905 7e-3 -0.54728 0.0479-0.27822 0.0738-0.44858 0.17001-0.64407 0.36382-0.33899 0.33608-0.49149 0.81213-0.49221 1.5364-3.99e-4 0.40684 0.06001 0.97958 0.10515 0.9969 0.04346 0.0166 0.29385-0.10718 0.87612-0.43349 0.27993-0.15685 0.62164-0.33832 0.75937-0.40326 0.3403-0.16046 0.68904-0.26791 0.68904-0.21233 0 0.0685-0.79255 0.78873-1.3189 1.1988-0.76613 0.59679-1.5253 1.048-1.5893 0.9445zm10.736-1.7073c-0.03093-5e-3 -0.13974-0.0206-0.24181-0.0344-0.10207-0.0138-0.18557-0.0337-0.18557-0.0442 0-0.0237 0.23306-0.0969 0.45376-0.14252 0.23706-0.0489 0.74359-0.0979 1.3008-0.12579 0.48379-0.0242 0.91768-0.0725 1.0275-0.11417 0.05507-0.0209 0.05769-0.0288 0.04616-0.14054-8e-3 -0.077-0.05616-0.21299-0.13796-0.3891-0.11387-0.24518-0.21589-0.55889-0.21589-0.66382 0-0.046-0.03116-0.0657-0.1912-0.121-0.07857-0.0271-0.23113-0.0442-0.50611-0.0567-0.2165-9e-3 -0.43163-0.0306-0.47805-0.0461-0.08171-0.0274-0.08314-0.0297-0.04498-0.072 0.10318-0.11417 0.43169-0.22565 0.81215-0.27552 0.2687-0.0353 1.1132-0.0767 1.5826-0.0777l0.26344-5.2e-4 0.0257-0.0954c0.01413-0.0525 0.01949-0.14612 0.01191-0.20807-0.0076-0.062-0.02009-0.19996-0.02779-0.30671l-0.01402-0.19405-0.07751-0.0368c-0.14821-0.0706-0.38867-0.0867-0.86248-0.0574-0.51593 0.0319-0.66776 0.0198-0.76385-0.061-0.05566-0.0468-0.06726-0.0734-0.06726-0.1543 0-0.0817 0.0084-0.10035 0.05062-0.11382 0.02783-9e-3 0.34922-0.0177 0.71418-0.0197 0.69298-3e-3 0.84678-0.0203 0.95226-0.10338 0.11014-0.0866 0.1433-0.43022 0.05426-0.56234-0.11228-0.16663-0.30111-0.21289-0.95739-0.23456-0.30177-0.0108-0.49593-0.0266-0.57167-0.0491-0.148-0.044-0.24226-0.13608-0.24226-0.23679v-0.0752l0.37677-2e-3c0.43655-2e-3 0.74479-0.0307 1.3553-0.12328 0.24125-0.0365 0.60565-0.0918 0.80978-0.12269 0.20413-0.0309 0.54323-0.0709 0.75354-0.0889 0.41361-0.0354 1.0364-0.0443 1.0544-0.0152 0.0062 9e-3 -0.02183 0.0596-0.0621 0.11057-0.13592 0.17174-0.28133 0.2683-0.51996 0.34527-0.1403 0.0453-0.21534 0.0519-0.68877 0.0607l-0.53131 0.0108-0.02541 0.15386c-0.03652 0.22111-0.03165 0.33166 0.02146 0.48895 0.04278 0.12665 0.05408 0.1408 0.12934 0.16171 0.13604 0.0378 0.26597 0.0269 0.66633-0.0557 0.40077-0.0826 0.61787-0.0961 0.75452-0.0467 0.04331 0.0156 0.082 0.0452 0.08598 0.0657 0.0042 0.0214-0.04363 0.088-0.11247 0.15659-0.19974 0.19918-0.53898 0.29128-1.1994 0.32567l-0.31491 0.0163-0.01444 0.14621c-0.0092 0.0916-0.04416 0.21478-0.09374 0.32917-0.11993 0.27665-0.12017 0.27503 0.05436 0.36424 0.24973 0.12765 0.56748 0.12237 1.1448-0.0191 0.26911-0.0659 0.71293-0.13454 0.86978-0.13454 0.29524 0 0.74978 0.137 0.74978 0.226 0 0.06-0.12335 0.15181-0.25455 0.18934-0.06413 0.0184-0.25831 0.0432-0.43151 0.0555-0.17995 0.0126-0.37276 0.0398-0.44988 0.0635l-0.13496 0.0416 0.0042 0.0888c0.0178 0.38099 0.01366 0.47706-0.02551 0.59494-0.05039 0.15156-0.154 0.36187-0.2403 0.48768-0.03547 0.0517-0.06449 0.10435-0.06449 0.11707 0 0.081 0.52528 0.0733 1.1022-0.0161 0.67502-0.10468 0.88334-0.12388 1.1809-0.10906 0.26494 0.0132 0.51007 0.0638 0.69168 0.14285 0.07252 0.0317 0.08436 0.0468 0.08436 0.10951 0 0.0852 0.02114 0.08-0.53985 0.13467-0.19176 0.0187-0.42963 0.0439-0.52861 0.056-0.09896 0.012-0.43301 0.0477-0.7423 0.079-0.30929 0.0314-0.75467 0.0768-0.98973 0.10096-1.0165 0.10436-2.269 0.21254-3.1491 0.27189-0.62002 0.0418-2.3339 0.0781-2.4856 0.0527zm3.1379-0.52509c0.29772-0.093 0.55875-0.12132 1.1186-0.12084l0.53375 4.3e-4 0.01229-0.0816c0.02801-0.18568 0.08106-0.43111 0.1343-0.62135 0.05684-0.20308 0.07578-0.49566 0.04276-0.66076l-0.01406-0.0703-0.16027 2e-5c-0.44156 8e-5 -1.6051 0.12048-1.971 0.20394-0.20357 0.0464-0.36523 0.10773-0.35492 0.1347 0.0034 9e-3 0.06014 0.0588 0.12601 0.11057 0.12825 0.10086 0.23783 0.2534 0.27473 0.38223 0.02459 0.0859 0.05469 0.31338 0.07822 0.59124 0.0081 0.0959 0.02148 0.17421 0.02971 0.17404 0.0083-1.6e-4 0.07569-0.0194 0.14992-0.0425zm-0.47792-4.6912c-0.24218-0.0757-0.55214-0.36627-0.69158-0.64841-0.04555-0.0922-0.07942-0.19134-0.07525-0.2204 0.01634-0.11393 0.31776-0.23921 0.51826-0.21546 0.21723 0.0258 0.42926 0.18953 0.53913 0.4165 0.06148 0.12701 0.08202 0.40842 0.04059 0.55637-0.04054 0.14479-0.12898 0.17454-0.33115 0.11137zm1.8012-0.25207c0.01882-0.0364 0.1039-0.15672 0.18909-0.2674 0.28239-0.36691 0.42216-0.64849 0.48247-0.97193l0.02627-0.14087 0.08041 0.014c0.1675 0.0295 0.43856 0.13202 0.5652 0.21387 0.17348 0.11207 0.25562 0.23595 0.25669 0.38695 8.77e-4 0.11382 5.95e-4 0.11406-0.08344 0.13184-0.12359 0.0261-0.31097 0.1266-0.62062 0.33284-0.41147 0.27404-0.55887 0.34288-0.76211 0.35593l-0.16817 0.0108z" fill="#dadada" stroke-width=".022494"/>
  <g transform="translate(.35013 -.35987)" fill="#07074d" fill-opacity=".98876" stroke-width=".13809" style="font-feature-settings:normal;font-variant-caps:normal;font-variant-ligatures:normal;font-variant-numeric:normal" aria-label="KAIZEN">
   <path d="m40.706 183.82h1.1759q0.02158 3e-3 0.02158 0.0216v1.5319h0.01079q0-0.0351 0.50703-1.5534h1.1219l-0.67964 1.8663 0.74436 2.2547h-1.2406l-0.45309-1.6937h-0.01079v1.6937h-1.1975z"/>
   <path d="m44.493 183.83h1.7153q0.02697 0 0.06473 0.34522 0.04315 0.178 0.6257 3.765h-1.1004q-0.02697 0-0.05394-0.356-0.01079 0-0.05394-0.40994h-0.39915v-0.0108q0.03236-0.39645 0.07552-0.67963h0.23733q0-0.0432-0.20497-1.7045h-0.010792q0 0.0809-0.37758 3.1608h-1.1219q0.0027-0.0485 0.60412-4.1102z"/>
   <path d="m47.147 183.82h1.1759q0.02158 3e-3 0.02158 0.0216v4.0994h-1.1975z"/>
   <path d="m48.638 183.82h2.198v0.7983l-0.88461 2.492h0.88461v0.83067h-2.2007v-0.57176q0-0.0243 0.90618-2.7186h-0.90349z"/>
   <path d="m51.095 183.82h1.985v0.83066h-0.78752v0.77673h0.73358v0.78752h-0.73358v0.89539h0.86303v0.83067h-2.0605z"/>
   <path d="m53.468 183.82h1.0033l0.64727 1.8339h0.01079v-1.8339h0.9817q0.02158 3e-3 0.02158 0.0216v4.0994h-1.0572l-0.59334-1.8124h-0.01079v1.8124h-1.0033z"/>
  </g>
  <g transform="matrix(.96026 0 0 1.0414 .35013 -.35987)" fill="url(#linearGradient4629)" stroke-width=".074931" style="font-feature-settings:normal;font-variant-caps:normal;font-variant-ligatures:normal;font-variant-numeric:normal" aria-label="CHALLENGE">
   <path d="m43.012 180.88h0.08781q0.46393 0 0.66735 0.32197 0.06439 0.17122 0.06439 0.48002v0.21074h-0.64979v-0.3688q0-0.25757-0.05854-0.25757-0.01024-6e-3 -0.02342-6e-3h-0.05269q-0.09366 0-0.09366 0.17561v1.2001q0 0.1522 0.05854 0.16976 0.0322 6e-3 0.05269 6e-3h0.01756q0.09952 0 0.09952-0.19904v-0.35709h0.64979v0.0937q0 0.46539-0.11122 0.57955-0.22684 0.26342-0.62052 0.26342h-0.06439q-0.42149 0-0.62052-0.24586-0.11708-0.10537-0.11708-0.76687v-0.23416q0-0.64979 0.05269-0.70833 0.09805-0.20635 0.35709-0.30441 0.15659-0.0527 0.30441-0.0527z"/>
   <path d="m44.35 180.9h0.63808q0.01171 0 0.01171 0.0176v2.2186h-0.64979zm0.83712 0h0.64979v2.2362h-0.64979v-0.93663h-0.10537v-0.50344h0.10537z"/>
   <path d="m46.688 180.91h0.93078q0.01464 0 0.03512 0.18733 0.02342 0.0966 0.33953 2.043h-0.5971q-0.01463 0-0.02927-0.19318-0.0059 0-0.02927-0.22245h-0.2166v-6e-3q0.01756-0.21514 0.04098-0.3688h0.12879q0-0.0234-0.11123-0.92493h-0.0059q0 0.0439-0.20489 1.7152h-0.60881q0.0015-0.0263 0.32782-2.2304z"/>
   <path d="m48.506 180.91h0.64394v1.7738h0.39222v0.45075h-1.0303l-0.01171-6e-3 0.0059-0.0117z"/>
   <path d="m50.066 180.91h0.64394v1.7738h0.39222v0.45075h-1.0303l-0.01171-6e-3 0.0059-0.0117z"/>
   <path d="m51.62 180.9h1.0771v0.45075h-0.42734v0.42149h0.39807v0.42734h-0.39807v0.48588h0.46832v0.45075h-1.1181z"/>
   <path d="m53.28 180.9h0.54442l0.35124 0.99517h0.0059v-0.99517h0.53271q0.01171 1e-3 0.01171 0.0117v2.2245h-0.57369l-0.32197-0.98346h-0.0059v0.98346h-0.54442z"/>
   <path d="m55.981 180.86h0.05854q0.40978 0 0.62638 0.24001 0.12293 0.13025 0.12293 0.56198h-0.64979v-0.1405q0-0.27513-0.06439-0.27513-0.0322-6e-3 -0.05269-6e-3 -0.11122 0-0.11122 0.16391-0.0059 0.1566-0.0059 0.32197v0.61467q0 0.4449 0.04098 0.4449 0.03073 0.0234 0.06439 0.0234h0.02342q0.09366-0.0117 0.09366-0.0878 0.01171-0.0849 0.01171-0.22831v-0.24001h-0.11122v-0.34538h0.76102v0.52115q0 0.45661-0.19904 0.5854-0.21952 0.17561-0.5093 0.17561h-0.09366q-0.51515 0-0.67321-0.35123-0.05854-0.17123-0.05854-0.55613v-0.521q0-0.52101 0.08196-0.59125 0.20342-0.31026 0.64394-0.31026z"/>
   <path d="m57.313 180.9h1.0771v0.45075h-0.42734v0.42149h0.39807v0.42734h-0.39807v0.48588h0.46832v0.45075h-1.1181z"/>
  </g>
 </g>
</svg>
