<svg width="124.02mm" height="60.422mm" version="1.1" viewBox="0 0 124.02 60.422" xmlns="http://www.w3.org/2000/svg" xmlns:xlink="http://www.w3.org/1999/xlink">
 <defs>
  <linearGradient id="linearGradient4561">
   <stop stop-color="#f6ff00" offset="0"/>
   <stop stop-color="#f60" offset="1"/>
  </linearGradient>
  <linearGradient id="linearGradient4629" x1="42.298" x2="58.431" y1="182.02" y2="182.02" gradientUnits="userSpaceOnUse" xlink:href="#linearGradient4561"/>
 </defs>
 <text x="60.532402" y="30.962425" fill="#000000" font-family="Stencil" font-size="10.583px" letter-spacing="0px" stroke-width=".26458" word-spacing="0px" style="font-feature-settings:normal;font-variant-caps:normal;font-variant-ligatures:normal;font-variant-numeric:normal;line-height:1.25" xml:space="preserve"><tspan x="60.532402" y="42.868675" stroke-width=".26458"/></text>
 <path d="m84.146 58.71c-0.5844-2.6393-0.79604-3.8379-1.0377-5.8789-0.35581-3.0038-0.72347-3.8592-2.2308-5.1891-0.40824-0.36012-0.71729-0.67492-0.68658-0.69855 0.10634-0.08315 9.8136-1.4901 12.452-1.8044 2.2184-0.26446 3.3879-0.31636 7.1653-0.31948 4.1402-0.0038 4.6506 0.01867 6.1621 0.31761 1.9238 0.37638 3.1356 0.73619 4.4782 1.3304 1.0948 0.48517 1.1042 0.5083 0.73022 1.854-0.22253 0.80077-0.34479 0.95795-1.9998 2.568-2.3029 2.2403-2.5456 2.6833-2.5561 4.664l-8e-3 1.4568-0.8598 0.42827c-2.927 1.4572-6.3446 2.062-11.694 2.0696-3.3641 0.0048-7.5934 0.42452-9.2288 0.916-0.26401 0.07939-0.31912-0.05628-0.68576-1.7141zm9.0695-1.878c3.1525-0.67423 4.6496-0.86942 6.82-0.88824l2.1625-0.01867 0.32683-0.91419c0.48214-1.3483 0.81533-2.5853 1.0797-4.0081 0.12939-0.69636 0.3546-1.6647 0.50043-2.1524l0.26522-0.88674-0.32893-0.12316c-1.3331-0.49704-3.5942-0.84642-5.4518-0.8416-1.5632 0.0042-2.0277 0.07503-5.9472 0.90969-1.5696 0.33324-1.9864 0.37075-3.3676 0.29698-0.867-0.03751-1.7809-0.12316-2.0309-0.17068-0.3997-0.07503-0.48125-0.03126-0.67652 0.33637-0.42449 0.80553-0.42309 1.4269 0.0071 3.1283 0.3495 1.3825 0.40716 1.8873 0.40506 3.5456l-0.0022 1.9335 0.43239 0.06752c1.0937 0.1738 1.3885 0.18695 2.8685 0.13381 0.867-0.025 2.189-0.1882 2.9377-0.3495zm-51.261-0.92882c-0.74418-0.10503-2.7508-2.3203-5.7787-6.3772-0.89484-1.1988-1.9202-2.5411-2.2787-2.9826l-0.65167-0.80284-1.0762 0.57832c-0.59191 0.31761-1.85 1.0327-2.7958 1.5878-5.0519 2.9651-8.521 4.1849-13.594 4.7794-1.4703 0.17255-0.97499-0.17319 3.4271-2.3909 5.8536-2.9489 8.3413-4.6854 10.231-7.1418l0.60727-0.7894-0.24891-0.7355c-0.58866-1.7391-1.7976-3.1625-5.3489-6.2972-1.4373-1.2688-1.8792-1.8349-1.88-2.4082-8.54e-4 -0.59208 0.28885-0.82122 1.1583-0.91919 2.1375-0.24071 3.5859 0.87886 5.4423 4.2082 0.86503 1.5514 1.61 2.4853 1.9825 2.4853 0.1373 0 0.52432-0.23008 0.86006-0.5133 1.7706-1.4873 2.3658-3.9447 2.5421-10.495l0.09626-3.574-0.70296-0.18069c-1.213-0.31198-3.4656-0.35137-4.7348-0.0819-1.4492 0.30698-3.6709 1.3698-5.1332 2.4554-0.62702 0.46578-1.1688 0.81797-1.204 0.78346-0.18845-0.18506 0.94728-2.8981 2.5202-6.0215 3.4192-6.7892 4.9359-10.679 5.5475-14.227 0.21457-1.2447 0.38983-1.2891 1.9915-0.50392 0.81088 0.39764 1.4392 0.60021 2.0483 0.66198l0.8786 0.08941-0.19966 0.86073c-0.93504 4.0301-1.8122 5.8385-4.7145 9.7196-0.86318 1.1542-1.7831 2.7831-1.9971 3.536-0.11805 0.41514 0.33217 0.50455 1.6946 0.33574 1.4329-0.17819 2.8527-0.54394 5.4657-1.4094 4.5167-1.4953 7.3596-2.0277 10.396-1.9468 1.0082 0.01875 1.8751 0.09003 1.9265 0.14067 0.13748 0.13505-0.40856 1.1164-0.87758 1.5766-0.93441 0.91706-2.2429 1.2666-5.5725 1.4889-1.1805 0.07878-2.2489 0.1438-2.3742 0.14443-0.201 0.0022-0.22776 0.35325-0.2268 2.9907 0.0017 5.2025-0.74813 8.9981-3.0014 15.194l-0.55178 1.5172 0.33039 0.94388c1.452 4.1486 6.4785 7.0512 16.718 9.6546 3.9974 1.0165 3.865 0.93888 3.0861 1.8095-0.79737 0.8913-2.5109 1.5897-4.949 2.0174-1.1279 0.19819-8.0604 0.3795-9.058 0.23821zm-40.065-2.3911c-0.0414-0.06752-0.18961-0.62671-0.32822-1.2447-0.32491-1.4482-0.32358-5.3578 3e-3 -9.2107 0.32294-3.8082 0.4378-9.2294 0.2419-11.421-0.08792-0.98284-0.32115-2.5333-0.51846-3.4455-0.1973-0.91225-0.35906-1.7051-0.35944-1.762-4.03e-4 -0.05628 0.33784 0.025 0.75163 0.19819 4.038 1.6176 7.8985 1.0702 10.493-1.4874 1.1291-1.1132 1.8605-2.3452 2.3877-4.0214 0.27847-0.88568 0.3323-1.3705 0.33561-3.0237 0.0022-1.0829-0.0497-2.2783-0.1153-2.6563l-0.11927-0.68767-1.0272 0.0819c-0.74086 0.05627-1.986 0.39388-4.4665 1.2038-3.7427 1.2213-5.2621 1.5661-6.9028 1.5661-1.1233 0-2.4405-0.24821-2.2423-0.42139 0.06441-0.05627 0.43691-0.17819 0.82827-0.27197 0.67703-0.1613 1.9526-0.64566 5.9258-2.248 2.572-1.0375 5.4438-1.953 7.4067-2.3612 2.2988-0.47766 4.9624-0.4983 6.4129-0.04376l0.96728 0.29948v0.54206c0 0.8296-0.51648 2.3091-1.4024 4.0173-1.8368 3.5416-2.1951 4.3326-2.4665 5.4433-0.42048 1.7213-0.36498 3.1143 0.2126 5.3345l0.09646 0.37013-2.3401 5.62e-4c-1.9276 3.75e-4 -2.5423 0.04377-3.4866 0.29948-1.7725 0.46141-2.8578 1.0629-4.1033 2.2747-2.1596 2.1012-3.1312 5.0776-3.1358 9.6058-0.0026 2.5436 0.38231 6.1245 0.66989 6.2328 0.27688 0.10378 1.8721-0.6701 5.5816-2.7102 1.7834-0.98065 3.9604-2.1152 4.8378-2.5212 2.168-1.0032 4.3898-1.675 4.3898-1.3275 0 0.42827-5.0492 4.9313-8.4025 7.4951-4.8809 3.7312-9.7174 6.5522-10.125 5.9052zm68.397-10.674c-0.19705-0.03126-0.89026-0.12878-1.5405-0.21507s-1.1822-0.2107-1.1822-0.27634c0-0.14818 1.4848-0.60583 2.8908-0.89106 1.5103-0.30573 4.7373-0.61208 8.2872-0.78646 3.0821-0.1513 5.8464-0.45328 6.546-0.71381 0.35084-0.13067 0.36753-0.18006 0.29408-0.87868-0.05097-0.48142-0.35778-1.3316-0.87892-2.4327-0.72544-1.5329-1.3754-3.4943-1.3754-4.1503 0-0.2876-0.19851-0.41077-1.2181-0.75651-0.50056-0.16943-1.4725-0.27634-3.2243-0.3545-1.3793-0.05628-2.7498-0.19132-3.0456-0.28822-0.52056-0.1713-0.52967-0.1857-0.28656-0.45016 0.65734-0.71381 2.7502-1.4108 5.1741-1.7226 1.7118-0.2207 7.092-0.47954 10.082-0.48579l1.6783-0.0032 0.16372-0.59646c0.09-0.32824 0.12417-0.91356 0.0759-1.3009-0.0484-0.38763-0.12799-1.2502-0.17704-1.9176l-0.08932-1.2132-0.4938-0.23008c-0.94422-0.4414-2.4761-0.54206-5.4947-0.35887-3.2869 0.19944-4.2542 0.1238-4.8664-0.38138-0.3546-0.2926-0.4285-0.45891-0.4285-0.96471 0-0.5108 0.0535-0.6274 0.32249-0.71162 0.1773-0.05628 2.2248-0.11065 4.5499-0.12316 4.4148-0.01867 5.3947-0.12692 6.0667-0.64635 0.70168-0.54152 0.91293-2.6899 0.34567-3.5159-0.71532-1.0418-1.9183-1.331-6.0994-1.4665-1.9225-0.06752-3.1595-0.16631-3.642-0.30698-0.94288-0.27509-1.5434-0.85079-1.5434-1.4804v-0.47016l2.4003-0.01251c2.7812-0.01251 4.7449-0.19194 8.6344-0.77076 1.537-0.2282 3.8585-0.57395 5.159-0.76708 1.3005-0.19319 3.4608-0.44328 4.8007-0.55582 2.635-0.22133 6.6027-0.27697 6.7174-0.09503 0.0395 0.05627-0.13908 0.37263-0.39563 0.6913-0.86592 1.0737-1.7923 1.6774-3.3126 2.1587-0.89382 0.28322-1.3719 0.32449-4.388 0.3795l-3.3849 0.06752-0.16188 0.96196c-0.23266 1.3824-0.20163 2.0736 0.13671 3.057 0.27254 0.79183 0.34453 0.8803 0.824 1.011 0.86669 0.23633 1.6944 0.16818 4.2451-0.34824 2.5532-0.51643 3.9363-0.60083 4.8069-0.29198 0.27592 0.09753 0.52241 0.2826 0.54776 0.41077 0.0268 0.1338-0.27795 0.55019-0.71652 0.97902-1.2725 1.2453-3.4338 1.8211-7.6412 2.0361l-2.0062 0.10192-0.092 0.91412c-0.0586 0.5727-0.28133 1.3428-0.5972 2.058-0.76405 1.7297-0.76558 1.7195 0.34632 2.2773 1.591 0.79809 3.6153 0.76508 7.2933-0.11941 1.7145-0.41201 4.542-0.84116 5.5412-0.84116 1.8809 0 4.7767 0.85654 4.7767 1.413 0 0.37513-0.78584 0.94914-1.6217 1.1838-0.40856 0.11504-1.6456 0.27009-2.7491 0.34699-1.1464 0.07878-2.3748 0.24884-2.8661 0.39701l-0.85981 0.26009 0.0268 0.55519c0.1134 2.382 0.087 2.9826-0.16251 3.7196-0.32102 0.94758-0.9811 2.2625-1.5309 3.049-0.22597 0.32324-0.41085 0.65241-0.41085 0.73194 0 0.50642 3.3465 0.45828 7.0219-0.10066 4.3004-0.65447 5.6276-0.77452 7.5233-0.68186 1.6879 0.08253 3.2496 0.39889 4.4066 0.89312 0.46201 0.19819 0.53744 0.2926 0.53744 0.68467 0 0.53268 0.13469 0.50017-3.4393 0.84198-1.2217 0.11691-2.7371 0.27447-3.3677 0.35012-0.63045 0.07503-2.7586 0.29823-4.7291 0.49392-1.9704 0.19632-4.8079 0.48017-6.3054 0.63122-6.4759 0.65247-14.455 1.3288-20.062 1.6999-3.95 0.26134-14.869 0.48829-15.835 0.32949zm19.991-3.2829c1.8967-0.58145 3.5597-0.75851 7.1264-0.75551l3.4004 0.0026 0.0783-0.51018c0.17844-1.1609 0.51642-2.6954 0.8556-3.8848 0.36212-1.2697 0.48278-3.0989 0.27242-4.1312l-0.0896-0.43952-1.021 1.26e-4c-2.8131 4.98e-4 -10.226 0.75326-12.557 1.2751-1.2969 0.2901-2.3268 0.67354-2.2611 0.84216 0.02165 0.05628 0.38314 0.36762 0.80279 0.6913 0.81706 0.63059 1.5152 1.5843 1.7503 2.3898 0.15666 0.53706 0.34842 1.9593 0.49832 3.6965 0.0516 0.59958 0.13685 1.0892 0.18928 1.0881 0.05288-9.99e-4 0.48221-0.1213 0.95511-0.26572zm-3.0447-29.33c-1.5429-0.47329-3.5176-2.29-4.4059-4.054-0.29019-0.57645-0.50597-1.1963-0.4794-1.378 0.10409-0.71231 2.0244-1.4956 3.3017-1.3471 1.3839 0.1613 2.7347 1.185 3.4347 2.604 0.39168 0.79408 0.52254 2.5535 0.25859 3.4785-0.25827 0.90525-0.82171 1.0912-2.1097 0.6963zm11.475-1.576c0.11989-0.22758 0.66193-0.97984 1.2047-1.6718 1.7991-2.294 2.6895-4.0545 3.0737-6.0766l0.16737-0.88074 0.51228 0.08754c1.0671 0.18445 2.794 0.82541 3.6008 1.3371 1.1052 0.70068 1.6285 1.4752 1.6353 2.4193 6e-3 0.71162 4e-3 0.71312-0.53158 0.82428-0.78737 0.16318-1.9811 0.79152-3.9539 2.081-2.6214 1.7133-3.5605 2.1437-4.8553 2.2253l-1.0714 0.06752z" fill="#2a3d8a" stroke-opacity="0"/>
 <g transform="matrix(6.3708 0 0 6.2521 -246.16 -1141.4)" fill="#fff" fill-opacity=".98876" stroke-width=".13809" style="font-feature-settings:normal;font-variant-caps:normal;font-variant-ligatures:normal;font-variant-numeric:normal" aria-label="KAIZEN">
  <path d="m40.706 183.82h1.1759q0.02158 3e-3 0.02158 0.0216v1.5319h0.01079q0-0.0351 0.50703-1.5534h1.1219l-0.67964 1.8663 0.74436 2.2547h-1.2406l-0.45309-1.6937h-0.01079v1.6937h-1.1975z"/>
  <path d="m44.493 183.83h1.7153q0.02697 0 0.06473 0.34522 0.04315 0.178 0.6257 3.765h-1.1004q-0.02697 0-0.05394-0.356-0.01079 0-0.05394-0.40994h-0.39915v-0.0108q0.03236-0.39645 0.07552-0.67963h0.23733q0-0.0432-0.20497-1.7045h-0.01079q0 0.0809-0.37758 3.1608h-1.1219q0.0027-0.0485 0.60412-4.1102z"/>
  <path d="m47.147 183.82h1.1759q0.02158 3e-3 0.02158 0.0216v4.0994h-1.1975z"/>
  <path d="m48.638 183.82h2.198v0.7983l-0.88461 2.492h0.88461v0.83067h-2.2007v-0.57176q0-0.0243 0.90618-2.7186h-0.90349z"/>
  <path d="m51.095 183.82h1.985v0.83066h-0.78752v0.77673h0.73358v0.78752h-0.73358v0.89539h0.86303v0.83067h-2.0605z"/>
  <path d="m53.468 183.82h1.0033l0.64727 1.8339h0.01079v-1.8339h0.9817q0.02158 3e-3 0.02158 0.0216v4.0994h-1.0572l-0.59334-1.8124h-0.01079v1.8124h-1.0033z"/>
 </g>
 <g transform="matrix(6.1176 0 0 6.511 -246.16 -1141.4)" fill="url(#linearGradient4629)" stroke-width=".074931" style="font-feature-settings:normal;font-variant-caps:normal;font-variant-ligatures:normal;font-variant-numeric:normal" aria-label="CHALLENGE">
  <path d="m43.012 180.88h0.08781q0.46393 0 0.66735 0.32197 0.06439 0.17122 0.06439 0.48002v0.21074h-0.64979v-0.3688q0-0.25757-0.05854-0.25757-0.01024-6e-3 -0.02342-6e-3h-0.05269q-0.09366 0-0.09366 0.17561v1.2001q0 0.1522 0.05854 0.16976 0.0322 6e-3 0.05269 6e-3h0.01756q0.09952 0 0.09952-0.19904v-0.35709h0.64979v0.0937q0 0.46539-0.11122 0.57955-0.22684 0.26342-0.62052 0.26342h-0.06439q-0.42149 0-0.62052-0.24586-0.11708-0.10537-0.11708-0.76687v-0.23416q0-0.64979 0.05269-0.70833 0.09805-0.20635 0.35709-0.30441 0.15659-0.0527 0.30441-0.0527z"/>
  <path d="m44.35 180.9h0.63808q0.01171 0 0.01171 0.0176v2.2186h-0.64979zm0.83712 0h0.64979v2.2362h-0.64979v-0.93663h-0.10537v-0.50344h0.10537z"/>
  <path d="m46.688 180.91h0.93078q0.01464 0 0.03512 0.18733 0.02342 0.0966 0.33953 2.043h-0.5971q-0.01463 0-0.02927-0.19318-0.0059 0-0.02927-0.22245h-0.2166v-6e-3q0.01756-0.21514 0.04098-0.3688h0.12879q0-0.0234-0.11123-0.92493h-0.0059q0 0.0439-0.20489 1.7152h-0.60881q0.0015-0.0263 0.32782-2.2304z"/>
  <path d="m48.506 180.91h0.64394v1.7738h0.39222v0.45075h-1.0303l-0.01171-6e-3 0.0059-0.0117z"/>
  <path d="m50.066 180.91h0.64394v1.7738h0.39222v0.45075h-1.0303l-0.01171-6e-3 0.0059-0.0117z"/>
  <path d="m51.62 180.9h1.0771v0.45075h-0.42734v0.42149h0.39807v0.42734h-0.39807v0.48588h0.46832v0.45075h-1.1181z"/>
  <path d="m53.28 180.9h0.54442l0.35124 0.99517h0.0059v-0.99517h0.53271q0.01171 1e-3 0.01171 0.0117v2.2245h-0.57369l-0.32197-0.98346h-0.0059v0.98346h-0.54442z"/>
  <path d="m55.981 180.86h0.05854q0.40978 0 0.62638 0.24001 0.12293 0.13025 0.12293 0.56198h-0.64979v-0.1405q0-0.27513-0.06439-0.27513-0.0322-6e-3 -0.05269-6e-3 -0.11122 0-0.11122 0.16391-0.0059 0.1566-0.0059 0.32197v0.61467q0 0.4449 0.04098 0.4449 0.03073 0.0234 0.06439 0.0234h0.02342q0.09366-0.0117 0.09366-0.0878 0.01171-0.0849 0.01171-0.22831v-0.24001h-0.11122v-0.34538h0.76102v0.52115q0 0.45661-0.19904 0.5854-0.21952 0.17561-0.5093 0.17561h-0.09366q-0.51515 0-0.67321-0.35123-0.05854-0.17123-0.05854-0.55613v-0.521q0-0.52101 0.08196-0.59125 0.20342-0.31026 0.64394-0.31026z"/>
  <path d="m57.313 180.9h1.0771v0.45075h-0.42734v0.42149h0.39807v0.42734h-0.39807v0.48588h0.46832v0.45075h-1.1181z"/>
 </g>
</svg>
