<svg width="19.141mm" height="19.139mm" version="1.1" viewBox="0 0 19.141 19.139" xmlns="http://www.w3.org/2000/svg">
 <g transform="translate(-38.923 -179.81)">
  <path d="m39.206 198.92c-0.0382-0.016-0.11633-0.0787-0.17363-0.1394-0.09764-0.10345-0.1038-0.12619-0.09824-0.36275 0.0042-0.17798 0.03097-0.31286 0.09085-0.45753 0.0467-0.11282 0.09583-0.25097 0.10917-0.30698 0.01335-0.056 0.06232-0.14706 0.10882-0.20233 0.04651-0.0553 0.08456-0.11397 0.08456-0.13044 0-0.0928 0.40062-0.4722 0.67893-0.64304 0.06328-0.0389 0.14345-0.0948 0.17817-0.12434 0.03472-0.0295 0.13735-0.0811 0.22807-0.11455 0.09072-0.0335 0.16494-0.0747 0.16494-0.0917s0.08484-0.0556 0.18853-0.0857c0.10369-0.0302 0.22535-0.0838 0.27034-0.11916 0.045-0.0354 0.148-0.0822 0.22889-0.10396 0.08089-0.0218 0.20363-0.078 0.27274-0.12489 0.06912-0.0469 0.14243-0.0853 0.16292-0.0853 0.02048 0 0.10425-0.0658 0.18614-0.14614l0.1489-0.14612v-0.35604c0-0.30821-0.0091-0.3645-0.06768-0.41908-0.03723-0.0347-0.09608-0.12514-0.1308-0.20103-0.03472-0.0759-0.08845-0.17704-0.1194-0.22478-0.03096-0.0478-0.07491-0.16757-0.09769-0.26625-0.04359-0.18891-0.09177-0.24959-0.26056-0.32816-0.05674-0.0264-0.11924-0.0795-0.1389-0.11796-0.01966-0.0385-0.07462-0.13222-0.12213-0.20834-0.07626-0.12219-0.08639-0.17709-0.08639-0.46831 0-0.28527 0.01099-0.34765 0.08125-0.46125 0.09192-0.14863 0.08852-0.28454-0.01365-0.54578-0.04738-0.12115-0.06094-0.25774-0.06034-0.6077 6.56e-4 -0.41395 0.0083-0.46728 0.09149-0.64242 0.04989-0.10504 0.09087-0.22495 0.09106-0.26645 1.31e-4 -0.0415 0.03709-0.11965 0.08199-0.17363 0.04491-0.054 0.10217-0.13723 0.12725-0.18497 0.0803-0.1529 0.34208-0.43315 0.46788-0.5009 0.06705-0.0361 0.1219-0.0778 0.1219-0.0926 0-0.0437 0.56068-0.29959 0.71187-0.3249 0.0764-0.0128 0.22054-0.0532 0.32032-0.0899 0.13217-0.0485 0.29244-0.0692 0.59033-0.0761 0.40773-9e-3 0.40928-9e-3 0.53821 0.0939 0.07112 0.0569 0.1465 0.14497 0.16752 0.19571 0.04062 0.0981 0.39147 0.28085 0.61754 0.32174 0.23885 0.0432 0.76545 0.5579 0.82442 0.8058 0.01324 0.0557 0.06445 0.18717 0.11379 0.29221 0.08266 0.17597 0.08951 0.22649 0.08712 0.64242-2e-3 0.34341-0.0172 0.48883-0.06362 0.6077-0.10208 0.26141-0.10545 0.3972-0.01355 0.54578 0.07026 0.1136 0.08125 0.17598 0.08125 0.46125 0 0.29122-0.01013 0.34612-0.08639 0.46831-0.04751 0.0761-0.10244 0.16988-0.12206 0.20834-0.01962 0.0385-0.09344 0.0972-0.16405 0.13057-0.15412 0.0728-0.21973 0.16775-0.25126 0.36374-0.01297 0.0806-0.05068 0.18218-0.08381 0.22572-0.03313 0.0435-0.08043 0.12951-0.10512 0.19106-0.02469 0.0616-0.08223 0.1522-0.12788 0.20146-0.07627 0.0823-0.08299 0.11834-0.08299 0.44502v0.35548l0.15642 0.13075c0.08603 0.0719 0.20714 0.14794 0.26912 0.16893 0.06198 0.021 0.15191 0.0654 0.19983 0.0987 0.04792 0.0333 0.15731 0.0791 0.24308 0.10166 0.08577 0.0226 0.20799 0.0713 0.2716 0.10825 0.06361 0.0369 0.18862 0.0831 0.2778 0.10258 0.08918 0.0195 0.20121 0.0637 0.24896 0.0982 0.04775 0.0345 0.16867 0.0898 0.26871 0.12299 0.10004 0.0331 0.19162 0.076 0.2035 0.0952 0.01188 0.0192 0.08629 0.0651 0.16536 0.10207 0.28291 0.13208 0.71064 0.51304 0.8247 0.73449 0.03689 0.0716 0.08194 0.13022 0.10011 0.13022 0.01818 0 0.05881 0.0899 0.0903 0.19968 0.06855 0.23908 0.1023 0.28648 0.204 0.28648 0.10574 0 0.17465-0.09 0.22398-0.29257 0.02291-0.0941 0.0798-0.21637 0.12643-0.27179 0.04663-0.0554 0.08478-0.11423 0.08478-0.1307 0-0.0928 0.40062-0.4722 0.67893-0.64304 0.06328-0.0389 0.14345-0.0948 0.17817-0.12434 0.03472-0.0295 0.13735-0.0811 0.22807-0.11455 0.09072-0.0335 0.16494-0.0747 0.16494-0.0917s0.08484-0.0556 0.18853-0.0857c0.10369-0.0302 0.22534-0.0838 0.27034-0.11916 0.045-0.0354 0.148-0.0822 0.22889-0.10396 0.08089-0.0218 0.20362-0.078 0.27274-0.12489 0.06912-0.0469 0.14243-0.0853 0.16292-0.0853 0.02049 0 0.10425-0.0658 0.18614-0.14614l0.1489-0.14612v-0.35604c0-0.30821-0.0091-0.3645-0.06768-0.41908-0.03723-0.0347-0.09608-0.12514-0.1308-0.20103-0.03472-0.0759-0.08845-0.17704-0.1194-0.22478-0.03096-0.0478-0.07491-0.16757-0.09769-0.26625-0.04359-0.18891-0.09177-0.24959-0.26056-0.32816-0.05674-0.0264-0.11924-0.0795-0.1389-0.11796-0.01966-0.0385-0.07462-0.13222-0.12213-0.20834-0.07626-0.12219-0.08639-0.17709-0.08639-0.46831 0-0.28527 0.01099-0.34765 0.08125-0.46125 0.09193-0.14863 0.08853-0.28454-0.01365-0.54578-0.04738-0.12115-0.06094-0.25774-0.06034-0.6077 6.56e-4 -0.41395 0.0083-0.46728 0.09149-0.64242 0.0499-0.10504 0.09087-0.22495 0.09106-0.26645 1.31e-4 -0.0415 0.03709-0.11965 0.08199-0.17363 0.04491-0.054 0.10217-0.13723 0.12725-0.18497 0.0803-0.1529 0.34208-0.43315 0.46788-0.5009 0.06705-0.0361 0.1219-0.0778 0.1219-0.0926 0-0.0437 0.56068-0.29959 0.71187-0.3249 0.07639-0.0128 0.22054-0.0532 0.32032-0.0899 0.13217-0.0485 0.29244-0.0692 0.59033-0.0761 0.40773-9e-3 0.40928-9e-3 0.53821 0.0939 0.07112 0.0569 0.1465 0.14497 0.16752 0.19571 0.04062 0.0981 0.39147 0.28085 0.61754 0.32174 0.23885 0.0432 0.76545 0.5579 0.82442 0.8058 0.01324 0.0557 0.06445 0.18717 0.11379 0.29221 0.08266 0.17597 0.08951 0.22649 0.08712 0.64242-2e-3 0.34341-0.0172 0.48883-0.06362 0.6077-0.10208 0.26141-0.10545 0.3972-0.01355 0.54578 0.07026 0.1136 0.08125 0.17598 0.08125 0.46125 0 0.29122-0.01013 0.34612-0.08639 0.46831-0.04751 0.0761-0.10244 0.16988-0.12206 0.20834-0.01962 0.0385-0.09344 0.0972-0.16405 0.13057-0.15412 0.0728-0.21972 0.16775-0.25126 0.36374-0.01297 0.0806-0.05069 0.18218-0.08381 0.22572-0.03313 0.0435-0.08043 0.12951-0.10512 0.19106-0.02469 0.0616-0.08223 0.1522-0.12788 0.20146-0.07627 0.0823-0.08299 0.11834-0.08299 0.44502v0.35548l0.15642 0.13075c0.08603 0.0719 0.20714 0.14794 0.26912 0.16893 0.06198 0.021 0.15191 0.0654 0.19983 0.0987 0.04793 0.0333 0.15731 0.0791 0.24308 0.10166 0.08577 0.0226 0.20799 0.0713 0.2716 0.10825 0.06361 0.0369 0.18862 0.0831 0.2778 0.10258 0.08918 0.0195 0.20121 0.0637 0.24896 0.0982 0.04775 0.0345 0.16867 0.0898 0.26871 0.12299 0.10004 0.0331 0.19162 0.076 0.2035 0.0952 0.01188 0.0192 0.08629 0.0651 0.16535 0.10207 0.26784 0.12505 0.70953 0.51091 0.81096 0.70845 0.02942 0.0573 0.08257 0.13195 0.11811 0.1659 0.03554 0.0339 0.07386 0.10427 0.08516 0.15627s0.05927 0.18444 0.1066 0.29434c0.06013 0.1396 0.08808 0.27275 0.09274 0.4419 0.0065 0.23715 4e-3 0.24478-0.12412 0.37317l-0.1308 0.13106-9.2624 7e-3c-5.0943 3e-3 -9.2937-7e-3 -9.3319-0.0224zm8.2753-0.90955c0.01392-0.12023-0.22765-0.40503-0.44892-0.52925-0.08826-0.0496-0.18002-0.11366-0.20392-0.14245-0.0239-0.0288-0.07061-0.0524-0.1038-0.0524-0.03319 0-0.1178-0.039-0.18802-0.0866-0.07022-0.0476-0.20132-0.10471-0.29133-0.12681-0.09002-0.0221-0.20432-0.0685-0.25401-0.10305-0.04969-0.0346-0.16498-0.0796-0.25621-0.10005-0.09122-0.0204-0.23027-0.0742-0.30899-0.11944-0.07872-0.0453-0.19199-0.0924-0.25171-0.10484-0.05972-0.0125-0.16042-0.0608-0.22378-0.10758-0.06337-0.0467-0.13181-0.085-0.15211-0.085-0.06385 0-0.4131-0.306-0.4645-0.40698-0.02703-0.0531-0.08241-0.13296-0.12306-0.17747-0.06973-0.0763-0.07391-0.11671-0.07391-0.71331v-0.63238l0.18242-0.20973c0.10584-0.12168 0.20661-0.28145 0.24003-0.38054 0.03169-0.0939 0.07676-0.20206 0.10017-0.24025 0.0234-0.0382 0.05253-0.12647 0.06473-0.19615 0.02825-0.16141 0.1259-0.28543 0.27093-0.34411 0.14535-0.0588 0.16494-0.0891 0.16559-0.25653 3.94e-4 -0.10247-0.02345-0.16203-0.0946-0.2363-0.08232-0.0859-0.0946-0.12592-0.09119-0.29706 0.0024-0.12025 0.03536-0.27264 0.08407-0.38876 0.06878-0.16396 0.08036-0.25244 0.08179-0.62506l0.0017-0.43407-0.12451-0.21974c-0.17742-0.31311-0.42184-0.47602-0.7493-0.49945-0.23364-0.0167-0.24125-0.0204-0.44519-0.21547-0.20364-0.19478-0.21039-0.19806-0.36375-0.17661-0.08595 0.0121-0.26827 0.06-0.40517 0.10646-0.1369 0.0465-0.27866 0.0846-0.31502 0.0846-0.03636 0-0.1275 0.0465-0.20252 0.10321-0.07502 0.0568-0.14996 0.10365-0.16651 0.10418-0.07494 3e-3 -0.31058 0.30205-0.4257 0.54132l-0.12664 0.26323 0.01809 0.38821c0.01266 0.2718 0.03884 0.44027 0.08731 0.56184 0.1392 0.34915 0.1259 0.60586-0.03846 0.74216-0.05937 0.0493-0.08025 0.30002-0.03089 0.37102 0.01403 0.0202 0.07683 0.0574 0.13955 0.0828 0.14503 0.0587 0.24268 0.1827 0.27093 0.34411 0.01219 0.0697 0.04132 0.15794 0.06473 0.19615 0.0234 0.0382 0.06743 0.14322 0.09782 0.23337 0.05457 0.16187 0.22031 0.40333 0.35534 0.5177 0.06479 0.0549 0.06945 0.10159 0.06945 0.69564v0.6368l-0.13349 0.19066c-0.16506 0.23576-0.32242 0.39079-0.47724 0.47021-0.06518 0.0334-0.16268 0.0977-0.21666 0.14271-0.05399 0.0451-0.12603 0.0819-0.1601 0.0819-0.03407 0-0.11849 0.0384-0.18761 0.0853s-0.1924 0.10305-0.27397 0.12476c-0.08156 0.0217-0.17251 0.0611-0.20211 0.0874-0.0296 0.0264-0.11588 0.0698-0.19173 0.0966-0.07585 0.0267-0.19836 0.0897-0.27224 0.13981-0.07388 0.0501-0.15302 0.0912-0.17587 0.0912-0.06929 0-0.35247 0.23832-0.4844 0.40765-0.11748 0.1508-0.16461 0.339-0.10084 0.40277 0.01282 0.0128 1.7044 0.0194 3.759 0.0144l3.7357-9e-3zm9.5842 0c0.01392-0.12023-0.22765-0.40503-0.44892-0.52925-0.08826-0.0496-0.18002-0.11366-0.20392-0.14245-0.0239-0.0288-0.07061-0.0524-0.1038-0.0524-0.03319 0-0.1178-0.039-0.18802-0.0866-0.07021-0.0476-0.20131-0.10471-0.29133-0.12681-0.09002-0.0221-0.20432-0.0685-0.25401-0.10305-0.04969-0.0346-0.16499-0.0796-0.25621-0.10005-0.09123-0.0204-0.23027-0.0742-0.309-0.11944-0.07872-0.0453-0.19199-0.0924-0.25171-0.10484-0.05972-0.0125-0.16042-0.0608-0.22378-0.10758-0.06336-0.0467-0.13181-0.085-0.15211-0.085-0.06385 0-0.4131-0.306-0.46451-0.40698-0.02703-0.0531-0.08241-0.13296-0.12306-0.17747-0.06973-0.0763-0.07391-0.11671-0.07391-0.71331v-0.63238l0.18242-0.20973c0.10584-0.12168 0.20661-0.28145 0.24003-0.38054 0.03169-0.0939 0.07676-0.20206 0.10017-0.24025 0.0234-0.0382 0.05253-0.12647 0.06473-0.19615 0.02825-0.16141 0.1259-0.28543 0.27093-0.34411 0.14535-0.0588 0.16494-0.0891 0.16559-0.25653 3.94e-4 -0.10247-0.02345-0.16203-0.0946-0.2363-0.08232-0.0859-0.0946-0.12592-0.09118-0.29706 0.0024-0.12025 0.03536-0.27264 0.08407-0.38876 0.06878-0.16396 0.08036-0.25244 0.08179-0.62506l0.0017-0.43407-0.12451-0.21974c-0.17742-0.31311-0.42184-0.47602-0.7493-0.49945-0.23364-0.0167-0.24125-0.0204-0.44519-0.21547-0.20364-0.19478-0.21039-0.19806-0.36375-0.17661-0.08595 0.0121-0.26827 0.06-0.40518 0.10646-0.1369 0.0465-0.27866 0.0846-0.31502 0.0846-0.03636 0-0.1275 0.0465-0.20252 0.10321-0.07502 0.0568-0.14995 0.10365-0.16651 0.10418-0.07494 3e-3 -0.31058 0.30205-0.42569 0.54132l-0.12664 0.26323 0.01809 0.38821c0.01266 0.2718 0.03884 0.44027 0.08731 0.56184 0.1392 0.34915 0.1259 0.60586-0.03846 0.74216-0.05937 0.0493-0.08025 0.30002-0.03089 0.37102 0.01403 0.0202 0.07683 0.0574 0.13955 0.0828 0.14503 0.0587 0.24268 0.1827 0.27093 0.34411 0.01219 0.0697 0.04132 0.15794 0.06473 0.19615 0.0234 0.0382 0.06743 0.14322 0.09782 0.23337 0.05457 0.16187 0.22031 0.40333 0.35534 0.5177 0.06479 0.0549 0.06945 0.10159 0.06945 0.69564v0.6368l-0.13349 0.19066c-0.16506 0.23576-0.32242 0.39079-0.47724 0.47021-0.06517 0.0334-0.16268 0.0977-0.21666 0.14271-0.05399 0.0451-0.12603 0.0819-0.1601 0.0819-0.03406 0-0.11849 0.0384-0.18761 0.0853-0.06912 0.0469-0.1924 0.10305-0.27397 0.12476-0.08156 0.0217-0.17251 0.0611-0.20211 0.0874-0.02959 0.0264-0.11588 0.0698-0.19173 0.0966-0.07585 0.0267-0.19836 0.0897-0.27224 0.13981-0.07388 0.0501-0.15302 0.0912-0.17587 0.0912-0.06929 0-0.35247 0.23832-0.4844 0.40765-0.11749 0.1508-0.16461 0.339-0.10084 0.40277 0.01282 0.0128 1.7044 0.0194 3.759 0.0144l3.7357-9e-3zm-17.683-7.0109c-0.05578-0.0167-0.16944-0.0971-0.25259-0.17868-0.27994-0.27475-0.2751-0.55155 0.01455-0.8319 0.2693-0.26065 0.52422-0.25659 0.79863 0.0127 0.27264 0.26758 0.27264 0.55063 0 0.81821-0.0826 0.0811-0.20397 0.16281-0.26972 0.18166-0.13706 0.0393-0.15306 0.0392-0.29087-2e-3zm17.918 0c-0.05578-0.0167-0.16944-0.0971-0.25259-0.17868-0.27994-0.27475-0.2751-0.55155 0.01455-0.8319 0.2693-0.26065 0.52422-0.25659 0.79863 0.0127 0.17807 0.17476 0.2373 0.34726 0.18541 0.53997-0.04371 0.16234-0.29184 0.41308-0.45513 0.4599-0.13706 0.0393-0.15306 0.0392-0.29087-2e-3zm-17.244-2.0773c-0.3266-0.0717-0.93758-0.46468-0.93758-0.60307 0-0.0222-0.04242-0.10145-0.09425-0.17626-0.08503-0.12269-0.09425-0.16584-0.09425-0.44069 0-0.27119 0.01-0.31943 0.09078-0.43883 0.04993-0.0738 0.10016-0.16599 0.11163-0.20493 0.03222-0.10941 0.28757-0.30357 0.5938-0.4515 0.26838-0.12965 0.29017-0.1342 0.64242-0.13412 0.35608 6e-5 0.37153 3e-3 0.65978 0.14299 0.28017 0.13567 0.59033 0.38231 0.59033 0.46944 0 0.0222 0.04242 0.10145 0.09426 0.17625 0.08518 0.12292 0.09425 0.16561 0.09425 0.44339 0 0.25586-0.01199 0.32358-0.07151 0.4041-0.03933 0.0532-0.09833 0.14859-0.13111 0.21197-0.09151 0.17697-0.25357 0.30775-0.57091 0.46074-0.24948 0.12028-0.32929 0.14166-0.57297 0.15347-0.15571 8e-3 -0.33781 2e-3 -0.40465-0.013zm0.77302-0.95825c0.13996-0.117 0.16457-0.15615 0.16457-0.26177 0-0.10563-0.02462-0.14477-0.16458-0.26177-0.16347-0.13664-0.16659-0.13757-0.46048-0.13757-0.29389 0-0.29701 6.6e-4 -0.46047 0.13757-0.14066 0.11757-0.16458 0.15585-0.16458 0.26331 0 0.10575 0.02321 0.1446 0.14604 0.24441 0.20281 0.1648 0.22046 0.17034 0.51412 0.16136 0.24804-8e-3 0.26888-0.0147 0.42539-0.14554zm15.478 0.95825c-0.3266-0.0717-0.93759-0.46468-0.93759-0.60307 0-0.0222-0.04242-0.10145-0.09425-0.17626-0.08503-0.12269-0.09425-0.16584-0.09425-0.44069 0-0.27119 0.01-0.31943 0.09078-0.43883 0.04993-0.0738 0.10016-0.16599 0.11162-0.20493 0.03222-0.10941 0.28757-0.30357 0.5938-0.4515 0.26838-0.12965 0.29017-0.1342 0.64242-0.13412 0.35608 6e-5 0.37153 3e-3 0.65978 0.14299 0.28017 0.13567 0.59033 0.38231 0.59033 0.46944 0 0.0222 0.04242 0.10145 0.09425 0.17625 0.08518 0.12292 0.09426 0.16561 0.09426 0.44339 0 0.25586-0.01198 0.32358-0.07151 0.4041-0.03934 0.0532-0.09833 0.14859-0.13111 0.21197-0.09151 0.17697-0.25357 0.30775-0.57091 0.46074-0.24948 0.12028-0.32929 0.14166-0.57297 0.15347-0.15571 8e-3 -0.33781 2e-3 -0.40465-0.013zm0.77302-0.95825c0.13996-0.117 0.16457-0.15615 0.16457-0.26177 0-0.10563-0.02461-0.14477-0.16458-0.26177-0.16347-0.13664-0.16659-0.13757-0.46047-0.13757-0.29389 0-0.29701 6.6e-4 -0.46048 0.13757-0.14066 0.11757-0.16458 0.15585-0.16458 0.26331 0 0.10575 0.02321 0.1446 0.14604 0.24441 0.20281 0.1648 0.22046 0.17034 0.51412 0.16136 0.24804-8e-3 0.26888-0.0147 0.42538-0.14554zm-7.1278 0.53779c-0.14324-0.0156-0.37764-0.06-0.52088-0.0986-0.14324-0.0386-0.33809-0.0808-0.43299-0.0937-0.0949-0.0129-0.24335-0.0588-0.32989-0.10195-0.08654-0.0432-0.20944-0.0884-0.27312-0.10062-0.06368-0.0122-0.16065-0.0541-0.2155-0.0931-0.05485-0.0391-0.1512-0.0882-0.21411-0.10927-0.06292-0.021-0.14565-0.0656-0.18385-0.0988-0.0382-0.0333-0.11633-0.0865-0.17363-0.11821-0.1593-0.0881-0.29768-0.19498-0.48512-0.3746-0.2157-0.20672-0.29954-0.22487-0.59747-0.12939-0.21298 0.0683-0.31084 0.0759-0.96621 0.0755-0.64263-4e-4 -0.75617-9e-3 -0.95603-0.0728-0.12474-0.0398-0.33833-0.0882-0.47464-0.10753-0.13722-0.0194-0.32117-0.0741-0.41212-0.12249-0.09034-0.048-0.19533-0.0873-0.2333-0.0873-0.12881 0-0.70536-0.30091-1.0451-0.54542-0.20583-0.14816-0.73157-0.67571-0.83212-0.83499-0.04919-0.0779-0.10455-0.15102-0.12303-0.16244-0.01848-0.0114-0.05229-0.0791-0.07513-0.15049-0.02284-0.0714-0.06918-0.161-0.10296-0.1992-0.03378-0.0382-0.0722-0.12414-0.08538-0.19099-0.01318-0.0668-0.06438-0.23873-0.11378-0.38197-0.08197-0.23766-0.08985-0.30905-0.09007-0.81605-2.63e-4 -0.49455 0.0082-0.57617 0.07672-0.74277 0.04233-0.10294 0.09407-0.26702 0.11498-0.36462 0.02091-0.0976 0.07497-0.23186 0.12013-0.29836 0.04516-0.0666 0.08211-0.14736 0.08211-0.17965 0-0.0323 0.03687-0.1029 0.08193-0.15689 0.04506-0.054 0.1078-0.14863 0.13943-0.21031 0.06746-0.13158 0.11223-0.18353 0.457-0.53026 0.35952-0.36158 0.67535-0.60057 0.93952-0.71095 0.06046-0.0253 0.12044-0.063 0.13329-0.0837 0.01285-0.0208 0.11242-0.0632 0.22127-0.0943s0.24478-0.0846 0.30208-0.119c0.0573-0.0344 0.237-0.0869 0.39934-0.11673 0.16234-0.0298 0.38111-0.0802 0.48615-0.11206 0.27851-0.0844 1.7356-0.0844 2.0141 0 0.10504 0.0318 0.32381 0.0819 0.48615 0.11136 0.16234 0.0294 0.35237 0.0827 0.42229 0.11847 0.06992 0.0357 0.19478 0.0832 0.27748 0.10546 0.0827 0.0223 0.18957 0.068 0.2375 0.10162 0.04792 0.0336 0.15745 0.092 0.2434 0.12967 0.08595 0.0377 0.17771 0.0945 0.20392 0.12627 0.02621 0.0317 0.06855 0.0578 0.09408 0.0578 0.04733 0 0.08326 0.0292 0.44846 0.36445 0.23276 0.21368 0.29792 0.22855 0.59046 0.1347 0.25826-0.0828 1.7241-0.0827 1.9967 1.4e-4 0.10504 0.0319 0.32381 0.0821 0.48615 0.11155 0.16234 0.0294 0.35237 0.0827 0.42229 0.11848 0.06992 0.0357 0.19478 0.0832 0.27748 0.10546 0.0827 0.0223 0.18957 0.068 0.2375 0.10161 0.04792 0.0336 0.15745 0.092 0.2434 0.12967 0.08595 0.0377 0.17771 0.0945 0.20392 0.12627 0.02621 0.0317 0.06855 0.0578 0.09408 0.0578 0.08512 0 0.79937 0.68546 0.97696 0.93759 0.16175 0.22963 0.39038 0.69825 0.44375 0.90954 0.02561 0.10136 0.07399 0.25462 0.10752 0.34057 0.04917 0.12605 0.06087 0.26371 0.06048 0.71187-3.94e-4 0.50691-0.0082 0.57722-0.08889 0.80217-0.04863 0.13561-0.09935 0.31133-0.11272 0.39048-0.01338 0.0791-0.04006 0.15364-0.0593 0.16553-0.01924 0.0119-0.07798 0.11746-0.13054 0.23458-0.05255 0.11713-0.1214 0.23441-0.15298 0.26062-0.03159 0.0262-0.05744 0.0673-0.05744 0.0913 0 0.0456-0.63922 0.69679-0.83966 0.85537-0.06358 0.0503-0.17022 0.1143-0.23698 0.14221-0.06676 0.0279-0.14217 0.0758-0.16757 0.10643-0.0254 0.0306-0.10353 0.0746-0.17363 0.0977-0.07009 0.0231-0.16651 0.0702-0.21426 0.10476-0.04775 0.0345-0.16444 0.0798-0.25932 0.10053-0.09488 0.0208-0.22146 0.068-0.2813 0.10501-0.05984 0.037-0.22827 0.0839-0.37431 0.10416-0.14603 0.0203-0.34968 0.0659-0.45255 0.10128-0.22004 0.0757-1.1582 0.11821-1.5842 0.0718zm1.5453-0.88008c0.07639-0.0315 0.2485-0.0799 0.38246-0.1077 0.13396-0.0277 0.32929-0.0904 0.43407-0.13913 0.10478-0.0488 0.21666-0.0888 0.24862-0.089 0.03195-1.3e-4 0.10228-0.0373 0.15626-0.0824 0.05399-0.0451 0.13722-0.0939 0.18497-0.10828 0.04775-0.0144 0.11458-0.0506 0.14851-0.0804 0.03393-0.0298 0.11427-0.0866 0.17854-0.12611 0.06427-0.0395 0.17768-0.12743 0.25202-0.19527 0.14864-0.13565 0.4627-0.51009 0.4627-0.55166 0-0.0145 0.03132-0.0624 0.06959-0.10646 0.03827-0.0441 0.08678-0.1441 0.1078-0.22216 0.02101-0.0781 0.07174-0.20451 0.11272-0.28101 0.06806-0.12706 0.07451-0.19172 0.07451-0.7468 0-0.55687-0.0063-0.61944-0.07523-0.74821-0.04138-0.0773-0.0861-0.19844-0.09938-0.26923-0.01328-0.0708-0.06928-0.18551-0.12444-0.25492-0.05516-0.0694-0.10029-0.14181-0.10029-0.16091 0-0.1053-0.78827-0.8586-0.89847-0.8586-0.01626 0-0.08855-0.0469-0.16065-0.10418-0.0721-0.0573-0.15787-0.10417-0.19059-0.10417-0.03273 0-0.13419-0.0397-0.22547-0.0882-0.09128-0.0485-0.2694-0.11017-0.39583-0.13698-0.12643-0.0268-0.30019-0.0754-0.38613-0.10802-0.12394-0.047-0.31068-0.0624-0.90286-0.0745-0.96904-0.0197-1.0303 3e-3 -0.86814 0.32089 0.0382 0.0749 0.06945 0.16447 0.06945 0.19899 0 0.0345 0.04136 0.17576 0.09193 0.31386 0.08504 0.23228 0.09196 0.29277 0.09234 0.80672 3.94e-4 0.50819-0.0071 0.57665-0.088 0.80217-0.04863 0.13561-0.09935 0.31132-0.11272 0.39048-0.01337 0.0791-0.04006 0.15365-0.0593 0.16554-0.01924 0.0119-0.07798 0.11745-0.13054 0.23458-0.05255 0.11712-0.1214 0.2344-0.15298 0.26061-0.03159 0.0262-0.05743 0.0673-0.05743 0.0913 0 0.0511-0.65468 0.71237-0.86806 0.87677-0.08057 0.0621-0.16704 0.11286-0.19216 0.11286-0.02512 0-0.09183 0.0389-0.14825 0.0863-0.05642 0.0474-0.16288 0.10607-0.23659 0.13022-0.07878 0.0258-0.13896 0.0696-0.14603 0.10632-0.01407 0.0731 0.14998 0.3022 0.21634 0.3022 0.02501 0 0.10203 0.0384 0.17115 0.0853s0.1924 0.10285 0.27397 0.12433c0.08156 0.0215 0.20212 0.0703 0.2679 0.10851 0.06578 0.0382 0.24108 0.0908 0.38954 0.11692 0.14847 0.0261 0.3036 0.0655 0.34473 0.0875 0.14369 0.0769 0.40122 0.0982 1.0734 0.0888 0.53329-8e-3 0.70666-0.0217 0.81605-0.0668zm-5.0005-1.25c0.07639-0.0315 0.2485-0.08 0.38246-0.1078 0.13396-0.0277 0.32929-0.0904 0.43407-0.13913 0.10478-0.0488 0.21666-0.0888 0.24862-0.089 0.03196-1.3e-4 0.10228-0.0373 0.15626-0.0824 0.05399-0.0451 0.13722-0.0939 0.18497-0.10828 0.04775-0.0144 0.11458-0.0506 0.14851-0.0804 0.03393-0.0298 0.11427-0.0865 0.17854-0.12611 0.06427-0.0395 0.17768-0.12742 0.25202-0.19526 0.14864-0.13566 0.4627-0.5101 0.4627-0.55167 0-0.0144 0.03132-0.0624 0.06959-0.10646 0.03827-0.0441 0.08678-0.14409 0.1078-0.22215 0.02101-0.0781 0.07174-0.20451 0.11272-0.28101 0.06806-0.12706 0.07451-0.19172 0.07451-0.7468 0-0.55507-0.0065-0.61973-0.07451-0.74679-0.04098-0.0765-0.09218-0.20472-0.11378-0.28492-0.02159-0.0802-0.06027-0.16682-0.08593-0.19249-0.02567-0.0257-0.07433-0.1006-0.10813-0.16651-0.07974-0.15548-0.20491-0.31223-0.39897-0.49963-0.17992-0.17374-0.47288-0.40153-0.51641-0.40153-0.01631 0-0.08864-0.0469-0.16074-0.10418-0.0721-0.0573-0.15787-0.10418-0.19059-0.10418-0.03273 0-0.13406-0.0397-0.22518-0.0881-0.09112-0.0485-0.2458-0.10425-0.34374-0.12401-0.09794-0.0198-0.27964-0.07-0.40379-0.11159-0.20884-0.07-0.29322-0.0757-1.1286-0.0757-0.77101 0-0.92568 9e-3 -1.0591 0.0598-0.08595 0.0329-0.27215 0.084-0.4138 0.1136-0.14164 0.0295-0.30572 0.0828-0.36462 0.11823-0.05889 0.0355-0.16582 0.0833-0.23762 0.10624-0.0718 0.023-0.15078 0.062-0.17551 0.0867-0.02473 0.0248-0.10164 0.0743-0.17091 0.11006-0.18368 0.0949-0.55341 0.43314-0.73606 0.67332-0.08725 0.11472-0.15864 0.22137-0.15864 0.23698 0 0.0156-0.04519 0.0975-0.10043 0.18191-0.05524 0.0845-0.1117 0.20824-0.12547 0.27508-0.01377 0.0668-0.05758 0.19186-0.09735 0.2778-0.05953 0.12865-0.07469 0.24219-0.08578 0.64243-0.01401 0.50583 0.0039 0.63585 0.13161 0.95494 0.16053 0.4011 0.27541 0.57774 0.56463 0.86813 0.27545 0.27658 0.40221 0.37196 0.64529 0.48557 0.08315 0.0389 0.19073 0.10177 0.23908 0.1398 0.04835 0.0381 0.11398 0.0691 0.14585 0.0691 0.03188 0 0.13524 0.0383 0.22972 0.0851 0.09447 0.0468 0.3124 0.11812 0.48429 0.15844 0.17189 0.0403 0.39847 0.0953 0.50352 0.12224 0.28053 0.0719 1.525 0.0505 1.7189-0.0296z" stroke-width=".034725"/>
 </g>
</svg>
