<svg width="21.662mm" height="20.251mm" version="1.1" viewBox="0 0 21.662 20.251" xmlns="http://www.w3.org/2000/svg">
 <g transform="translate(-53.758 -150.98)">
  <path d="m56.567 171.2c-0.30598-0.0803-0.59269-0.30787-0.77663-0.61633l-0.12679-0.21262-0.01964-1.8608-0.01965-1.8608-1.5574-0.0382-0.1542-0.16158-0.1542-0.16157v-2.0778l0.30845-0.32315 2.0287-0.0382 0.01964-6.2853 0.01964-6.2853 0.16542-0.1507 0.16542-0.15072h7.7834l0.16542 0.15067 0.16542 0.15065 0.01964 1.221 0.01964 1.221 2.9757 0.0382 0.20521 0.22061c0.11287 0.12133 0.21594 0.22061 0.22904 0.22061 0.01311 0 0.06577-0.0442 0.11702-0.0982 0.07375-0.0777 0.15313-0.10628 0.38049-0.13705 0.15801-0.0214 0.37041-0.0709 0.472-0.11 0.10158-0.0391 0.31823-0.0892 0.48144-0.11143 0.16321-0.0222 0.39098-0.0766 0.50615-0.12093 0.22145-0.0853 0.66778-0.13926 0.82747-0.10011 0.1654 0.0405 0.32901 0.34507 0.3829 0.71268 0.02602 0.1775 0.07996 0.40364 0.11987 0.50255 0.03991 0.0989 0.09114 0.31025 0.11384 0.46967 0.0227 0.15941 0.07589 0.37562 0.11819 0.48045 0.04231 0.10484 0.09611 0.32752 0.11956 0.49484 0.02345 0.16733 0.07619 0.39047 0.1172 0.49588 0.041 0.1054 0.09325 0.32299 0.11611 0.48351 0.02286 0.16053 0.07601 0.37725 0.11812 0.48161 0.04211 0.10435 0.09514 0.32016 0.11784 0.47958 0.0227 0.15942 0.07468 0.37353 0.11551 0.4758s0.09478 0.32533 0.11989 0.49569c0.02512 0.17036 0.07906 0.3956 0.11988 0.50053 0.04082 0.10494 0.09292 0.32214 0.11578 0.48267 0.02286 0.16053 0.07601 0.37725 0.11812 0.4816 0.04211 0.10435 0.09514 0.32017 0.11784 0.47959 0.0227 0.15941 0.07468 0.37353 0.11551 0.4758s0.09566 0.33118 0.12184 0.50868c0.02618 0.17751 0.08078 0.40496 0.12134 0.50545 0.04055 0.1005 0.08446 0.27466 0.09758 0.38705 0.02602 0.22296 0.1523 0.6849 0.2289 0.83739l0.04819 0.0959 1.5476 0.0382 0.14784 0.14452 0.14784 0.14451v2.146l-0.14785 0.14452-0.14785 0.14451-1.5504 0.0382-0.03928 3.7235-0.15799 0.24843c-0.11889 0.18695-0.21908 0.28779-0.40483 0.40746-0.38653 0.24902-0.73581 0.26385-1.1276 0.0479-0.2334-0.12867-0.35635-0.25191-0.51262-0.51384l-0.11445-0.19184-0.01964-1.8608-0.01964-1.8608h-13.159l-0.01964 1.8608-0.01964 1.8608-0.09465 0.15347c-0.18261 0.2961-0.27985 0.39809-0.50941 0.5343-0.24758 0.1469-0.5725 0.20353-0.81 0.14118zm0.42966-0.94717c0.05514-0.0539 0.06097-0.25949 0.05191-1.832l-0.01021-1.7713h-0.43207l-0.01021 1.7713c-0.01124 1.9488-0.01794 1.8927 0.22624 1.8927 0.06173 0 0.14018-0.0273 0.17434-0.0607zm15.555 0c0.05514-0.0539 0.06097-0.25949 0.05191-1.832l-0.01021-1.7713h-0.43207l-0.01021 1.7713c-0.01124 1.9488-0.01794 1.8927 0.22624 1.8927 0.06172 0 0.14018-0.0273 0.17434-0.0607zm1.9271-5.0037v-0.44122h-19.757l-0.01127 0.40026c-0.0062 0.22014-0.0023 0.42304 0.0086 0.45089 0.01641 0.0417 1.7457 0.0489 9.89 0.0409l9.8701-0.01zm-14.612-7.3664v-5.966h-2.7888l-0.01009 5.9277c-0.0056 3.2602-0.0016 5.9495 0.0088 5.9761 0.01481 0.0381 0.31703 0.0463 1.4045 0.0384l1.3856-0.0101zm-2.0976 5.0173c-0.15235-0.0787-0.25732-0.24731-0.25732-0.41327s0.10496-0.33454 0.25732-0.41327c0.06763-0.035 0.27076-0.0458 0.71598-0.0384l0.62156 0.0104 0.1542 0.16157c0.11018 0.11545 0.1542 0.19528 0.1542 0.27964 0 0.0844-0.04403 0.16421-0.1542 0.27965l-0.1542 0.16157-0.62156 0.0104c-0.44522 8e-3 -0.64835-4e-3 -0.71598-0.0384zm0-9.208c-0.33823-0.17477-0.33823-0.65176 0-0.82653 0.06763-0.035 0.27076-0.0458 0.71598-0.0384l0.62156 0.0104 0.1542 0.16157c0.11018 0.11544 0.1542 0.19528 0.1542 0.27965 0 0.0844-0.04403 0.16419-0.1542 0.27964l-0.1542 0.16157-0.62156 0.0104c-0.44522 8e-3 -0.64835-4e-3 -0.71598-0.0384zm5.8684 4.1907v-5.966h-2.7888l-0.01009 5.9277c-0.0056 3.2602-0.0016 5.9495 0.0088 5.9761 0.01482 0.0381 0.31704 0.0463 1.4045 0.0384l1.3856-0.0101zm-2.0976 5.0173c-0.15235-0.0787-0.25732-0.24731-0.25732-0.41327s0.10496-0.33454 0.25732-0.41327c0.06763-0.035 0.27076-0.0458 0.71597-0.0384l0.62156 0.0104 0.1542 0.16157c0.11017 0.11545 0.1542 0.19528 0.1542 0.27964 0 0.0844-0.04402 0.16421-0.1542 0.27965l-0.1542 0.16157-0.62156 0.0104c-0.44522 8e-3 -0.64835-4e-3 -0.71597-0.0384zm0-9.208c-0.15235-0.0787-0.25732-0.2473-0.25732-0.41326 0-0.16597 0.10496-0.33455 0.25732-0.41327 0.06763-0.035 0.27076-0.0458 0.71597-0.0384l0.62156 0.0104 0.1542 0.16157c0.11017 0.11544 0.1542 0.19528 0.1542 0.27965 0 0.0844-0.04402 0.16419-0.1542 0.27964l-0.1542 0.16157-0.62156 0.0104c-0.44522 8e-3 -0.64835-4e-3 -0.71597-0.0384zm5.3971 5.572v-4.5848h-2.3175l-0.01011 4.5465c-0.0056 2.5006-0.0016 4.5683 0.0088 4.595 0.01479 0.038 0.27005 0.0463 1.1688 0.0384l1.1499-0.0102zm-1.6263 3.6365c-0.15261-0.0796-0.25732-0.2479-0.25732-0.4137s0.1047-0.33414 0.25732-0.41371c0.0632-0.0329 0.22195-0.0457 0.48027-0.0384l0.38586 0.0109 0.15423 0.16158c0.11021 0.11545 0.15423 0.19527 0.15423 0.27964 0 0.0844-0.04402 0.16419-0.15423 0.27964l-0.15423 0.16158-0.38586 0.0108c-0.25832 8e-3 -0.41706-5e-3 -0.48027-0.0384zm0-6.4456c-0.15261-0.0796-0.25732-0.24791-0.25732-0.41371s0.1047-0.33414 0.25732-0.4137c0.0632-0.0329 0.22195-0.0457 0.48027-0.0384l0.38586 0.0109 0.15423 0.16157c0.11021 0.11546 0.15423 0.19528 0.15423 0.27965 0 0.0844-0.04402 0.16419-0.15423 0.27964l-0.15423 0.16157-0.38586 0.0109c-0.25832 8e-3 -0.41706-5e-3 -0.48027-0.0384zm4.7681 7.3607c0.06315-0.0451 0.06699-0.0678 0.02749-0.16306-0.02524-0.0609-0.06347-0.23458-0.08496-0.38605-0.02149-0.15146-0.07232-0.35864-0.11294-0.4604-0.04062-0.10175-0.0944-0.32439-0.11951-0.49475-0.02511-0.17035-0.07906-0.39559-0.11988-0.50053-0.04082-0.10494-0.09292-0.32213-0.11578-0.48266-0.02286-0.16053-0.07601-0.37725-0.11812-0.4816-0.04211-0.10436-0.09514-0.32017-0.11784-0.47958-0.0227-0.15943-0.07468-0.37354-0.11551-0.47581s-0.09566-0.33118-0.12184-0.50869c-0.02618-0.1775-0.08026-0.40364-0.12016-0.50255-0.03991-0.0989-0.09113-0.31025-0.11384-0.46967-0.0227-0.15941-0.07589-0.37562-0.11819-0.48046-0.0423-0.10482-0.09706-0.33427-0.12167-0.50987s-0.06981-0.36662-0.10045-0.42448c-0.03063-0.0579-0.07544-0.23149-0.09957-0.38585s-0.08586-0.41878-0.13719-0.58759c-0.05132-0.16882-0.104-0.41053-0.11708-0.53714-0.02746-0.26596-0.08704-0.47958-0.13376-0.47958-0.10972 0-0.11863 0.34016-0.11863 4.5266 0 2.3567 0.01179 4.2965 0.02619 4.3105 0.0144 0.0141 0.48826 0.0255 1.053 0.0255 0.80595 0 1.0426-0.0113 1.1002-0.0524zm1.9702-0.26201c0.36581-0.11729 0.387-0.15182 0.33007-0.53779-0.0258-0.17489-0.07253-0.35683-0.10384-0.40431-0.0737-0.11174-0.25579-0.1139-0.40682-5e-3 -0.08935 0.0645-0.19554 0.0871-0.51003 0.10839-0.21845 0.0148-0.41371 0.043-0.43391 0.0628-0.05498 0.0537 0.06923 0.74849 0.14934 0.83535 0.05868 0.0636 0.10339 0.0687 0.39737 0.0456 0.18219-0.0144 0.44221-0.0617 0.57782-0.10517zm-1.0306-1.6231c0.05828-0.0528 0.12714-0.0965 0.15303-0.0973 0.27652-8e-3 0.83093-0.0775 0.86218-0.10805 0.02711-0.0264 0.02029-0.0871-0.0212-0.18838-0.03365-0.0821-0.0798-0.28014-0.10257-0.44001-0.02277-0.15988-0.07584-0.37606-0.11795-0.48042-0.04211-0.10434-0.09514-0.32016-0.11784-0.47958-0.0227-0.15941-0.07468-0.37353-0.11551-0.4758-0.04083-0.10227-0.09478-0.32533-0.11989-0.49569-0.02511-0.17035-0.07906-0.39559-0.11988-0.50053-0.04082-0.10494-0.09292-0.32214-0.11578-0.48267-0.02286-0.16053-0.07601-0.37725-0.11812-0.4816-0.04211-0.10435-0.09585-0.32518-0.11942-0.49072-0.02357-0.16554-0.07618-0.39692-0.11691-0.51417-0.04073-0.11725-0.09417-0.28655-0.11875-0.37624-0.05-0.1824-0.13932-0.21396-0.2543-0.0899-0.1232 0.13299-0.45429 0.24368-0.75204 0.25145-0.15257 4e-3 -0.29839 0.0199-0.32405 0.0354-0.06781 0.0409-0.05727 0.18182 0.02796 0.37365 0.04103 0.0924 0.09336 0.30798 0.11626 0.47914 0.02291 0.17116 0.0764 0.39731 0.11886 0.50255 0.04247 0.10524 0.09579 0.32178 0.11849 0.4812 0.0227 0.15941 0.07468 0.37353 0.11551 0.4758 0.04083 0.10227 0.09566 0.33118 0.12184 0.50868 0.02618 0.17751 0.08026 0.40366 0.12017 0.50256 0.03991 0.0989 0.09113 0.31024 0.11384 0.46966 0.0227 0.15943 0.07486 0.37353 0.11592 0.47581 0.04106 0.10227 0.0945 0.33115 0.11877 0.50863 0.05724 0.41868 0.19893 0.7324 0.33079 0.7324 0.05205 0 0.14232-0.0432 0.20059-0.0959zm-1.6346-6.2333c0.12596-0.0892 0.57295-0.17334 0.86028-0.16183 0.2564 0.0102 0.28266-0.0298 0.24104-0.36739-0.03527-0.28613-0.1958-0.64602-0.303-0.67925-0.03865-0.012-0.14828 0.0117-0.24361 0.0526-0.09533 0.0409-0.31467 0.0934-0.48742 0.11664-0.45743 0.0615-0.50841 0.13422-0.41848 0.5967 0.02462 0.12661 0.0545 0.29495 0.06639 0.37408 0.02533 0.16847 0.11369 0.18971 0.2848 0.0684z" stroke-width=".03882"/>
 </g>
</svg>
