<svg width="20.438mm" height="20.438mm" version="1.1" viewBox="0 0 20.438 20.438" xmlns="http://www.w3.org/2000/svg">
 <g transform="translate(-54.403 -150.65)">
  <path d="m55.204 171.03c-0.01134-0.0357-0.08415-0.0904-0.1618-0.12143-0.18106-0.0724-0.3811-0.27283-0.45383-0.45461-0.0388-0.097-0.07759-0.14248-0.12144-0.14248-0.06304 0-0.06443-0.20326-0.06443-9.4355 0-9.2323 0.0013-9.4355 0.06443-9.4355 0.04384 0 0.08265-0.0455 0.12144-0.14248 0.07291-0.18222 0.27289-0.38219 0.45512-0.45511 0.09694-0.0388 0.14247-0.0775 0.14247-0.12144 0-0.0631 0.16416-0.0644 7.3917-0.0644 7.2276 0 7.3917 9.8e-4 7.3917 0.0644 0 0.0439 0.0458 0.0827 0.14411 0.12209 0.18748 0.0751 0.35434 0.24993 0.50277 0.52705l0.11954 0.22318 0.01041 1.601c0.0058 0.88053 0.0011 1.6508-0.01003 1.7117-0.01171 0.0634-0.04117 0.11071-0.06888 0.11071-0.05207 0-0.61967-0.57166-0.68817-0.69309-0.03032-0.0537-0.0417-0.40895-0.04257-1.3292l-0.0011-1.2558-0.13225-0.13225-0.13224-0.13225h-14.205l-0.12318 0.13635-0.12319 0.13636v18.266l0.26449 0.2645h14.179l0.12724-0.11657 0.12724-0.11656 0.01704-1.3105 0.01703-1.3105 0.3236-0.3357c0.17798-0.18463 0.34955-0.34047 0.38127-0.34632 0.04171-8e-3 0.06345 0.0206 0.07854 0.10214 0.01147 0.062 0.01618 0.83326 0.01045 1.7138l-0.01041 1.601-0.11954 0.22317c-0.14814 0.27656-0.31523 0.45201-0.50149 0.52654-0.07856 0.0314-0.1521 0.0863-0.16344 0.12209-0.02019 0.0637-0.17072 0.0649-7.3737 0.0649s-7.3535-9.7e-4 -7.3737-0.0649zm14.446-5.4194c-0.15542-0.17204-0.16412-0.31407-0.02951-0.48233 0.05152-0.0644 0.91136-0.93309 1.9108-1.9304 1.5177-1.5146 1.8103-1.8216 1.7756-1.8633-0.03613-0.0435-0.81038-0.0499-6.0347-0.0499-4.3315 0-6.0128-0.0106-6.064-0.0379-0.34866-0.18659-0.35049-0.5583-0.0037-0.74056 0.05516-0.029 1.6236-0.0391 6.0676-0.0391 5.2001 0 5.9986-7e-3 6.0343-0.0495 0.03414-0.0411-0.27916-0.36961-1.8523-1.942-1.2862-1.2856-1.8951-1.917-1.8987-1.9688-0.01263-0.18175 0.01464-0.25231 0.14462-0.37427 0.18894-0.17728 0.28284-0.17061 0.53166 0.0378 0.1087 0.091 1.1742 1.141 2.3678 2.3333 1.1936 1.1923 2.1861 2.1678 2.2056 2.1678 0.02057 0 0.03542 0.0857 0.03542 0.20438 0 0.12334-0.01455 0.2044-0.0367 0.2044-0.0202 0-0.9054 0.8688-1.9672 1.9307-1.0618 1.0619-2.1194 2.1119-2.3503 2.3333-0.40341 0.3869-0.42557 0.40265-0.5666 0.40265-0.12802 0-0.1625-0.0175-0.26995-0.13634z" stroke-width=".034063"/>
 </g>
</svg>
