<svg width="18.276mm" height="16.67mm" version="1.1" viewBox="0 0 18.276 16.67" xmlns="http://www.w3.org/2000/svg">
 <g transform="translate(-20.446 -266.95)">
  <path d="m38.696 266.98c0.0093 0.0243 0.01277 0.18498 0.0077 0.35721l-0.0093 0.31314-18.239 0.018-3.49e-4 -0.34885-3.5e-4 -0.34884 9.1124-0.0171c7.5465-0.0146 9.1153-0.01 9.1294 0.0265zm4e-3 3.9867c0.0093 0.0243 0.01278 0.18501 0.0077 0.35724l-0.0093 0.31313-11.462 0.012-3.5e-4 -0.34885-3.5e-4 -0.34883 5.7237-0.0137c4.7331-0.0118 5.7266-7e-3 5.7406 0.0299zm-13.664 0.0958 0.12315 0.12586 0.0041 4.1032 0.0041 4.1032-0.12586 0.12315c-0.10165 0.0995-0.15082 0.12317-0.25554 0.12328-0.12723 1.3e-4 -0.1695-0.0395-2.2349-2.0994l-2.1053-2.0996-1.47e-4 -0.14735-1.48e-4 -0.14736 2.0996-2.1053c2.0841-2.0898 2.1006-2.1053 2.2337-2.1054 0.11147-1.1e-4 0.15491 0.0211 0.25727 0.12573zm-2.1793 2.6896c-1.1752 1.1792-1.4477 1.4692-1.4477 1.5402 7.1e-5 0.0711 0.27345 0.36076 1.4523 1.5389 1.3245 1.3238 1.4568 1.4467 1.5047 1.3987 0.0471-0.0473 0.05223-0.35047 0.04963-2.9367-0.0024-2.3957-0.0106-2.8934-0.04854-2.939-0.02511-0.0302-0.0495-0.0548-0.05419-0.0548-0.0047 0-0.66003 0.65372-1.4563 1.4527zm15.847 1.2014c0.0093 0.0243 0.01277 0.18501 0.0077 0.35722l-0.0093 0.31315-11.462 0.012-3.5e-4 -0.34885-3.5e-4 -0.34884 5.7237-0.0137c4.7331-0.0118 5.7266-7e-3 5.7406 0.0299zm4e-3 3.9868c0.0093 0.0243 0.01278 0.18501 0.0077 0.35723l-0.0093 0.31314-11.462 0.012-3.5e-4 -0.34884-3.49e-4 -0.34884 5.7237-0.0137c4.7331-0.0118 5.7266-7e-3 5.7406 0.0299zm4e-3 3.9868c0.0093 0.0243 0.01277 0.18497 0.0077 0.35719l-0.0093 0.31314-18.239 0.018-3.49e-4 -0.34883-3.5e-4 -0.34885 9.1124-0.0171c7.5465-0.0146 9.1153-0.01 9.1294 0.0265z" stroke-width=".033223"/>
 </g>
</svg>
