<svg width="19.578mm" height="19.572mm" version="1.1" viewBox="0 0 19.578 19.572" xmlns="http://www.w3.org/2000/svg">
 <g transform="translate(-54.919 -151.12)">
  <path d="m69.498 170.64c0-0.0641-0.09758-0.10381-0.3825-0.15547-0.11861-0.0216-0.28804-0.0758-0.37651-0.12072-0.08847-0.0448-0.21553-0.10743-0.28235-0.13897-0.20611-0.0973-0.35129-0.18334-0.42893-0.25424-0.04091-0.0373-0.12475-0.0934-0.18629-0.12448-0.14409-0.0728-0.75484-0.68286-0.82993-0.82897-0.03167-0.0616-0.08774-0.15095-0.12469-0.19867-0.12502-0.1615-0.30461-0.46599-0.30461-0.51646 0-0.0277-0.03777-0.11463-0.08391-0.19338-0.04619-0.0787-0.1022-0.24404-0.12455-0.36728-0.02235-0.12325-0.06343-0.27858-0.09122-0.34518-0.07151-0.17124-0.12258-0.76032-0.0978-1.129 0.01155-0.17182 0.05757-0.44518 0.1023-0.60745 0.0447-0.16229 0.09172-0.35702 0.10445-0.43273 0.0127-0.0757 0.05089-0.17726 0.08476-0.22563 0.0339-0.0485 0.08091-0.14745 0.10453-0.22019 0.04116-0.12679 0.15-0.31352 0.42248-0.72467 0.1619-0.24427 0.61257-0.69495 0.85685-0.85685 0.41114-0.27247 0.59788-0.38135 0.72467-0.42249 0.07275-0.0236 0.17181-0.0706 0.22018-0.10456 0.04841-0.0339 0.1499-0.072 0.22563-0.0847 0.07572-0.0127 0.27045-0.0597 0.43273-0.10445 0.16228-0.0447 0.43564-0.0907 0.60746-0.10232 0.36872-0.0248 0.9578 0.0263 1.129 0.0978 0.06664 0.0278 0.22193 0.0688 0.34518 0.0913 0.12325 0.0223 0.28852 0.0784 0.36727 0.12454 0.07876 0.0462 0.16577 0.0839 0.19338 0.0839 0.05048 0 0.35497 0.17959 0.51646 0.3046 0.04776 0.0369 0.13714 0.0931 0.19868 0.12469 0.14612 0.0751 0.75616 0.68585 0.82897 0.82994 0.03109 0.0616 0.08712 0.14537 0.12448 0.18629 0.07093 0.0777 0.15695 0.22282 0.25424 0.42893 0.03159 0.0668 0.09408 0.19387 0.13897 0.28235 0.04487 0.0885 0.09922 0.25791 0.12073 0.37653 0.05163 0.2849 0.09133 0.38249 0.15546 0.38249 0.04594 0 0.05295 0.10969 0.05295 0.83309 0 0.72339-0.0067 0.83309-0.05295 0.83309-0.06515 0-0.1089 0.11012-0.15325 0.38551-0.01873 0.11606-0.07143 0.27598-0.11726 0.35534-0.04577 0.0794-0.0943 0.19011-0.1078 0.2461-0.01352 0.056-0.0626 0.14702-0.10905 0.20227-0.04651 0.0552-0.08453 0.121-0.08453 0.1461 0 0.0465-0.08317 0.15967-0.40904 0.55644-0.22275 0.27121-0.86571 0.81578-0.96317 0.81578-0.02507 0-0.09086 0.038-0.14611 0.0845-0.05526 0.0465-0.14626 0.0956-0.20225 0.10906-0.056 0.0135-0.16674 0.062-0.24611 0.1078-0.07934 0.0458-0.23927 0.0986-0.35534 0.11725-0.27538 0.0444-0.38552 0.0882-0.38552 0.15326 0 0.0459-0.1097 0.053-0.83309 0.053s-0.83309-6e-3 -0.83309-0.053zm1.6574-0.87896c0.08108-0.0418 0.21894-0.0859 0.30637-0.0978 0.08743-0.0119 0.21032-0.0566 0.27308-0.0992 0.06277-0.0426 0.17071-0.0961 0.23986-0.11896 0.06912-0.0229 0.13507-0.0566 0.14649-0.0751 0.01138-0.0184 0.07992-0.0709 0.15216-0.11653 0.16979-0.10725 0.67646-0.61385 0.78364-0.78365 0.04561-0.0723 0.09807-0.14074 0.11653-0.15217 0.01848-0.0114 0.05229-0.0773 0.07505-0.14648 0.02284-0.0691 0.07637-0.17709 0.11894-0.23985 0.04255-0.0627 0.08672-0.18176 0.09804-0.26441 0.0113-0.0827 0.05658-0.22833 0.10054-0.32373 0.07431-0.16125 0.07992-0.21864 0.07992-0.81562 0-0.58472-0.0067-0.65616-0.0744-0.79839-0.0409-0.0859-0.09253-0.24481-0.11472-0.35312-0.02219-0.10831-0.06211-0.21501-0.08872-0.23709-0.02664-0.0221-0.06648-0.0975-0.08866-0.16755-0.02219-0.07-0.08543-0.18506-0.14062-0.25553-0.05518-0.0705-0.10035-0.14059-0.10035-0.15583 0-0.0285-0.04239-0.0743-0.35488-0.38286-0.10074-0.0994-0.2228-0.22052-0.27124-0.26902-0.04841-0.0485-0.10312-0.0886-0.12149-0.0891-0.01839-5.1e-4 -0.09476-0.0474-0.16976-0.10414-0.07498-0.0567-0.15482-0.10317-0.17739-0.10317-0.0226 0-0.09878-0.0391-0.16936-0.0871-0.0706-0.0479-0.19676-0.10242-0.28042-0.12117-0.08366-0.0188-0.23507-0.0686-0.33647-0.11087-0.16717-0.0696-0.24418-0.0769-0.82652-0.0781-0.59391-8.2e-4 -0.65497 5e-3 -0.81251 0.077-0.09369 0.043-0.23137 0.0879-0.30595 0.0998-0.07456 0.0119-0.18715 0.0566-0.25015 0.0994-0.06302 0.0428-0.1701 0.0961-0.238 0.11848-0.06788 0.0224-0.14307 0.0644-0.16708 0.0933-0.024 0.029-0.09164 0.0772-0.1503 0.10733-0.05864 0.0301-0.1399 0.0876-0.18051 0.12788-0.04058 0.0402-0.14214 0.13865-0.22562 0.21873-0.28208 0.27059-0.4657 0.51487-0.59823 0.79586-0.0461 0.0978-0.10016 0.18789-0.1201 0.2002-0.01996 0.0123-0.05419 0.10903-0.07621 0.21489-0.02194 0.10585-0.07357 0.26571-0.11472 0.35519-0.06812 0.14835-0.07464 0.21943-0.07357 0.80489 8.24e-4 0.58233 0.0084 0.65936 0.07802 0.82652 0.04222 0.10135 0.09211 0.25281 0.11087 0.33647 0.01873 0.0836 0.07324 0.20985 0.12116 0.28043 0.04792 0.0706 0.08709 0.14679 0.08709 0.16935 0 0.0226 0.04644 0.10242 0.10317 0.17739 0.05674 0.075 0.1036 0.15139 0.10414 0.16977 5.21e-4 0.0183 0.04066 0.073 0.08912 0.12149 0.0485 0.0484 0.16956 0.17051 0.26902 0.27124 0.30851 0.31244 0.35429 0.35488 0.38285 0.35488 0.01526 0 0.08536 0.0449 0.15583 0.0999 0.07052 0.0549 0.18179 0.11759 0.24738 0.13928 0.06557 0.0217 0.14368 0.0614 0.17356 0.0884 0.02986 0.0269 0.16258 0.0741 0.2949 0.10467 0.13232 0.0306 0.25952 0.0714 0.28268 0.0906 0.08647 0.0717 0.36094 0.0983 0.9173 0.0889 0.51015-9e-3 0.58886-0.018 0.72017-0.0858zm-1.0863-0.90952-0.13722-0.14052-0.0066-0.83642c-0.0041-0.46002-0.01477-0.85683-0.02433-0.8818-0.01361-0.0354-0.21297-0.0476-0.90187-0.0558l-0.88444-0.0107-0.1225-0.13886c-0.17554-0.19895-0.17144-0.34013 0.01518-0.52231l0.14053-0.13721 0.85233-5e-3c0.47236-3e-3 0.86675-0.0197 0.88468-0.0376 0.01781-0.0178 0.03571-0.41643 0.03983-0.88689l0.0074-0.85453 0.13722-0.1405c0.18218-0.18654 0.32337-0.19062 0.52231-0.0151l0.13884 0.1225 0.0104 0.88444c0.0086 0.73161 0.01897 0.88776 0.06045 0.90366 0.02755 0.0107 0.42434 0.0215 0.88179 0.0243l0.83172 5e-3 0.14054 0.13723c0.18659 0.18217 0.19068 0.32335 0.01517 0.52231l-0.12249 0.13885-0.89139 0.0174-0.8914 0.0173-0.01732 0.8914-0.01732 0.89139-0.13885 0.12249c-0.19895 0.17552-0.34014 0.17142-0.52231-0.0151zm-14.999 0.44014-0.15164-0.15165 0.0033-5.3589c0.0016-2.9474 0.01361-5.3928 0.02606-5.4342 0.0386-0.12871 0.19673-0.27955 1.2549-1.1967 0.16228-0.14066 0.33596-0.29468 0.38594-0.34229 0.04998-0.0476 0.18276-0.16815 0.29505-0.2679 0.51866-0.46079 0.6639-0.59211 0.80209-0.72525l0.14839-0.14296v-2.587l0.15163-0.15163 0.15164-0.15165h2.9915l0.2531-0.20841c0.24174-0.19907 0.42844-0.36033 0.61757-0.53339 0.24814-0.22707 0.5498-0.47311 0.58006-0.47311 0.01889 0 0.10305-0.0467 0.18707-0.1035 0.08402-0.057 0.20742-0.11358 0.27424-0.12587 0.0668-0.0123 0.19003-0.0531 0.27379-0.0904 0.32824-0.14674 1.0868-0.1701 1.4301-0.0441 0.0843 0.0309 0.23916 0.084 0.34417 0.1179 0.10501 0.0339 0.25167 0.10306 0.32593 0.15379 0.07423 0.0507 0.15063 0.0921 0.16971 0.0921 0.03422 0 0.40958 0.31153 0.58301 0.48392 0.14464 0.14378 0.49767 0.44605 0.64882 0.55554 0.07704 0.0559 0.15034 0.1181 0.16292 0.13846 0.01558 0.0252 0.50107 0.037 1.5321 0.037h1.5093l0.14618 0.13631 0.14618 0.13631 0.01741 1.3243 0.01732 1.3243 0.12333 0.1101c0.06779 0.0605 0.22925 0.20382 0.35872 0.31837 0.12946 0.11455 0.28575 0.25514 0.34731 0.31241 0.378 0.35172 0.71702 0.65113 0.83714 0.73934 0.07621 0.0559 0.2108 0.17022 0.29914 0.25395 0.08833 0.0836 0.26573 0.24594 0.39421 0.36048 0.32118 0.28636 0.48243 0.46038 0.50912 0.54948 0.0287 0.0957 0.03678 3.8865 0.0084 3.9602-0.0306 0.0798-0.16689 0.0673-0.28-0.0259-0.05394-0.0444-0.17275-0.11632-0.26395-0.15976-0.26719-0.12727-0.26807-0.13148-0.26807-1.2808 0-0.8623-0.0074-1.0104-0.05353-1.0485-0.04445-0.0369-0.07234-0.0308-0.16489 0.0365-0.06128 0.0444-0.1426 0.11034-0.18078 0.14633-0.09473 0.0892-0.56215 0.46797-0.76129 0.61675-0.08943 0.0668-0.25933 0.20007-0.37754 0.2961-0.11822 0.096-0.25399 0.20121-0.30172 0.23375-0.04776 0.0325-0.18488 0.1354-0.30478 0.22858-0.19508 0.15161-0.24218 0.1719-0.44799 0.19299-0.15055 0.0154-0.24312 0.0107-0.26798-0.0145-0.0268-0.0268-0.04305-1.1908-0.05534-3.9674l-0.01732-3.9294h-10.795l-0.0176 7.2772 0.09817 0.093c0.05402 0.0511 0.17513 0.15082 0.26918 0.22155 0.09405 0.0708 0.21005 0.16073 0.25778 0.19997 0.1863 0.15319 0.42026 0.33563 0.55798 0.43509 0.07927 0.0573 0.18493 0.14709 0.23473 0.19959 0.04982 0.0525 0.10419 0.0954 0.12088 0.0954 0.01666 0 0.12645 0.0832 0.24393 0.18483 0.25063 0.21686 0.52702 0.40528 0.59451 0.40528 0.02623 0 0.09466-0.043 0.1521-0.0954 0.15662-0.14315 0.37453-0.31564 0.73454-0.58143 0.07761-0.0573 0.20981-0.15881 0.29383-0.22563 0.27744-0.22061 0.4105-0.3124 0.45283-0.3124 0.02302 0 0.08462-0.0337 0.13694-0.0749 0.05229-0.0412 0.19111-0.10231 0.30841-0.13591 0.1173-0.0336 0.28356-0.0886 0.36948-0.12232 0.22374-0.0876 0.99233-0.0874 1.2149 4e-4 0.08592 0.0339 0.24212 0.0851 0.34712 0.11387 0.10501 0.0287 0.21763 0.0759 0.25029 0.10489 0.03266 0.029 0.13809 0.0891 0.2343 0.13374 0.09622 0.0445 0.17494 0.0963 0.17494 0.11502 0 0.0187 0.02928 0.0432 0.06508 0.0546s0.12086 0.071 0.18903 0.1325c0.17574 0.1586 0.28696 0.24712 0.54425 0.43321 0.1241 0.0898 0.24151 0.1837 0.26093 0.20874 0.01938 0.0251 0.07406 0.0649 0.12149 0.0884 0.15806 0.0785 0.13052 0.18188-0.1135 0.42589-0.1518 0.15181-0.24954 0.22264-0.30717 0.22264-0.07431 0-0.19037-0.0779-0.51715-0.3469-0.1137-0.0936-0.33462-0.2654-0.53596-0.41676-0.08889-0.0668-0.2063-0.15683-0.26092-0.20001-0.0546-0.0432-0.16686-0.10232-0.24942-0.1315-0.08257-0.0292-0.18943-0.0787-0.23748-0.11037-0.1074-0.0706-0.7872-0.10596-0.9725-0.0505-0.22737 0.068-0.57253 0.22219-0.64441 0.288-0.03942 0.036-0.08849 0.0655-0.10906 0.0655-0.02054 0-0.10204 0.0508-0.18105 0.11282-0.22764 0.17877-0.46388 0.36635-0.5581 0.4431-0.11953 0.0974-0.34308 0.27097-0.53573 0.41601-0.19542 0.14713-0.63538 0.49981-0.73125 0.58617-0.03819 0.0344-0.13191 0.10393-0.20827 0.15442-0.21375 0.14141-0.33882 0.24128-0.4093 0.32681-0.03538 0.043-0.08317 0.0781-0.10618 0.0781-0.02301 0-0.08256 0.043-0.13237 0.0954-0.04982 0.0525-0.15518 0.14232-0.23418 0.19959-0.23809 0.17261-0.43118 0.31992-0.54118 0.41286-0.12033 0.10167-0.32726 0.26399-0.55784 0.43758-0.08876 0.0668-0.26836 0.20742-0.39912 0.31241-0.13075 0.105-0.31036 0.2456-0.39912 0.31241-0.30248 0.22773-0.51884 0.3987-0.744 0.58791-0.30856 0.25931-0.42538 0.34932-0.45334 0.34932-0.01666 0-0.07712 0.043-0.13435 0.0954-0.05724 0.0525-0.22321 0.1892-0.36877 0.30374-0.14556 0.11455-0.31855 0.2581-0.38443 0.31899l-0.11978 0.11074 0.01008 0.30581 0.01008 0.30583 4.9638 0.0174c3.8448 0.0134 4.9807 0.0269 5.0386 0.0602 0.04108 0.0235 0.11018 0.11726 0.15352 0.20826 0.04338 0.091 0.11516 0.20963 0.15959 0.2636 0.09311 0.1131 0.1057 0.24936 0.0259 0.28-0.03019 0.0116-2.4925 0.021-5.4717 0.021h-5.4168zm1.0306-2.642c0.10387-0.0855 0.2279-0.18679 0.27562-0.22502 0.04776-0.0383 0.14861-0.12447 0.22418-0.19162 0.07554-0.0671 0.14829-0.1221 0.1616-0.1221 0.02161 0 0.15452-0.1006 0.41259-0.31238 0.29718-0.24386 0.64167-0.51793 0.76355-0.60749 0.13047-0.0959 0.32924-0.25312 0.56159-0.44428 0.05105-0.042 0.166-0.13108 0.2554-0.19789 0.31266-0.23369 0.57018-0.43752 0.7336-0.58063 0.06045-0.053 0.19875-0.15873 0.30731-0.2351 0.10856-0.0764 0.25263-0.18962 0.32015-0.25167 0.06755-0.062 0.1362-0.11281 0.15262-0.11281 0.08025 0 0.0088-0.13472-0.12892-0.24299-0.085-0.0668-0.22402-0.17617-0.30892-0.24298-0.08491-0.0668-0.21823-0.16836-0.29628-0.22563-0.07802-0.0573-0.19426-0.151-0.25824-0.20827-0.06401-0.0573-0.1903-0.15881-0.2807-0.22563-0.14229-0.10521-0.45125-0.3485-0.7451-0.58679-0.18234-0.14785-0.38035-0.30286-0.53633-0.41986-0.08909-0.0668-0.27784-0.21522-0.41946-0.32976-0.14161-0.11455-0.32101-0.25514-0.39866-0.31241-0.15872-0.11708-0.62664-0.49627-0.77079-0.62463-0.18461-0.16439-0.26522-0.20349-0.32214-0.15625-0.04544 0.0377-0.05188 0.47306-0.05188 3.4857 0 3.503 7.92e-4 3.526 0.12183 3.526 0.02119 0 0.1235-0.0699 0.22737-0.1555zm1.6976-6.5069c0.02326-0.0434 0.03596-0.61914 0.03596-1.6302 0-1.5289-0.0016-1.5639-0.06961-1.6004-0.05914-0.0316-0.08915-0.0171-0.1996 0.0969-0.07151 0.0738-0.24714 0.23372-0.39033 0.35527-0.25514 0.21659-0.34287 0.29451-0.59251 0.52624-0.06812 0.0633-0.22164 0.20093-0.3411 0.30593s-0.24686 0.21785-0.28309 0.25078c-0.07514 0.0683-0.11943 0.21007-0.08973 0.28747 0.01106 0.0288 0.06351 0.0716 0.11656 0.095 0.05303 0.0234 0.13815 0.0818 0.18913 0.12988 0.10343 0.0975 0.21437 0.18827 0.44535 0.36457 0.49658 0.37907 0.53621 0.41067 0.8678 0.69216 0.1241 0.10531 0.2368 0.19196 0.25044 0.19249 0.01361 5.3e-4 0.04099-0.0293 0.06079-0.0662zm12.875-0.1252c0.36097-0.30248 0.39179-0.32711 0.59306-0.47387 0.10447-0.0762 0.24506-0.18396 0.31241-0.23951 0.0673-0.0556 0.1615-0.13221 0.20923-0.17034 0.04776-0.0381 0.14146-0.113 0.20827-0.16637 0.0668-0.0534 0.16445-0.12404 0.21696-0.15705 0.05295-0.0333 0.09545-0.0913 0.09545-0.13037 0-0.0875-0.09452-0.27517-0.13858-0.27517-0.01798 0-0.08512-0.0508-0.14923-0.11282-0.1025-0.0992-0.33989-0.31592-0.89239-0.81471-0.08592-0.0775-0.20873-0.18566-0.27292-0.24023-0.06417-0.0546-0.17818-0.15795-0.25333-0.22972-0.11373-0.10865-0.14797-0.12443-0.20438-0.0943-0.06566 0.0352-0.0678 0.0846-0.0678 1.5994 0 1.4601 0.01294 1.6974 0.09276 1.6974 0.01147 0 0.1242-0.0866 0.25044-0.19235zm-5.0842-7.2571c0.09044-0.0348 0.06235-0.13321-0.0579-0.20299-0.06202-0.036-0.14406-0.0945-0.18224-0.13005-0.16801-0.1563-0.32547-0.27072-0.37257-0.27072-0.02804 0-0.12752-0.043-0.22105-0.0954-0.16376-0.0919-0.18866-0.0954-0.67337-0.0954-0.48472 0-0.50961 3e-3 -0.67338 0.0954-0.09353 0.0524-0.189 0.0954-0.21217 0.0954-0.0485 0-0.21412 0.1205-0.58858 0.42812-0.08894 0.073-0.09665 0.0922-0.0565 0.14065 0.04148 0.05 0.2057 0.056 1.5147 0.056 0.8075 0 1.4929-0.01 1.5231-0.021zm-5.3775 5.8198c-0.12105-0.0511-0.26223-0.22951-0.28306-0.35783-0.01781-0.1098-0.0041-0.14106 0.1203-0.27444l0.14042-0.15053h4.8635l0.12996 0.12996c0.10695 0.10693 0.12996 0.15462 0.12996 0.26923 0 0.1146-0.02302 0.16228-0.12994 0.26923l-0.12995 0.12996-2.3859 6e-3c-1.3122 4e-3 -2.4171-6e-3 -2.4553-0.0224zm0-2.0829c-0.03819-0.016-0.11593-0.0783-0.17277-0.13834-0.1546-0.16337-0.14534-0.3424 0.02664-0.51436l0.12996-0.12997h7.7793l0.13635 0.14619c0.18284 0.19602 0.18284 0.30999 7e-6 0.50602l-0.13635 0.14617-3.8469 6e-3c-2.1158 3e-3 -3.8781-6e-3 -3.9163-0.0224z" stroke-width=".034712"/>
 </g>
</svg>
