<svg width="18.377mm" height="13.938mm" version="1.1" viewBox="0 0 18.377 13.938" xmlns="http://www.w3.org/2000/svg">
 <g transform="translate(-55.675 -155.21)">
  <path d="m64.554 169.13c-0.07744-0.0143-0.18081-0.0462-0.22972-0.0709-0.0489-0.0248-0.14404-0.0627-0.21143-0.0843-0.1425-0.0457-0.22808-0.10549-0.48153-0.33647-0.15771-0.14373-0.23136-0.23215-0.36739-0.44103-0.06252-0.096-0.20777-0.52662-0.20777-0.61598 0-0.0565-0.01332-0.1379-0.02959-0.18071l-0.02959-0.0778-3.3968-0.016-0.11682-0.11684c-0.09793-0.0979-0.1163-0.13639-0.11365-0.23773 0.0019-0.0728 0.03323-0.16643 0.07876-0.23539 0.08222-0.12455 0.15071-0.22774 0.26916-0.40548 0.15176-0.22771 0.1846-0.27689 0.23737-0.35541 0.09212-0.13707 0.2163-0.35758 0.30005-0.53282 0.04427-0.0926 0.10122-0.19158 0.12654-0.21987 0.02531-0.0283 0.0591-0.10957 0.07508-0.1807 0.01598-0.0711 0.05639-0.1677 0.0898-0.21461 0.03341-0.047 0.07487-0.16171 0.09214-0.25509 0.01726-0.0933 0.06175-0.23555 0.09886-0.31592 0.06676-0.14458 0.06767-0.16776 0.08531-2.1523 0.01567-1.7628 0.0241-2.0266 0.06957-2.1746 0.02846-0.0926 0.07698-0.28561 0.10784-0.4288 0.03085-0.14319 0.08436-0.30858 0.1189-0.36754 0.03454-0.059 0.07175-0.1503 0.0827-0.20298 0.01098-0.0527 0.05362-0.14149 0.09486-0.19737 0.04124-0.0558 0.07496-0.11437 0.07496-0.12982 0-0.15062 0.8133-1.0531 1.0646-1.1812 0.06531-0.0333 0.13616-0.0815 0.15743-0.10724 0.02128-0.0256 0.08927-0.0631 0.1511-0.0833 0.06182-0.0201 0.14407-0.0612 0.18276-0.0914 0.03869-0.03 0.11449-0.0643 0.16846-0.0759 0.05396-0.0117 0.16013-0.0521 0.23593-0.0898 0.0758-0.0377 0.18813-0.0778 0.24961-0.0889 0.06148-0.0117 0.12537-0.0371 0.14197-0.0578 0.01661-0.0206 0.03651-0.20286 0.04422-0.40501 0.01321-0.34627 0.02014-0.37928 0.11976-0.57039 0.13314-0.25539 0.25625-0.37874 0.51269-0.51366 0.1855-0.0977 0.22509-0.10677 0.46318-0.10677 0.23809 0 0.27768 9e-3 0.46318 0.10677 0.25629 0.13484 0.37939 0.25812 0.51297 0.51366 0.10147 0.19412 0.10662 0.21974 0.11995 0.5957 0.01384 0.3906 0.01438 0.39303 0.09446 0.42376 0.0443 0.0169 0.13567 0.0562 0.20305 0.0873 0.06738 0.031 0.19996 0.0779 0.29462 0.10432 0.09466 0.0264 0.18789 0.0669 0.20718 0.0902 0.01929 0.0233 0.0969 0.0659 0.17246 0.0947 0.07557 0.0289 0.13739 0.0647 0.13739 0.0798s0.04479 0.0502 0.09954 0.0783c0.09356 0.0479 0.1832 0.11483 0.40866 0.30518 0.05209 0.0439 0.10913 0.089 0.12675 0.1 0.06013 0.0377 0.46768 0.53634 0.46768 0.57217 0 0.0196 0.02778 0.0609 0.06174 0.0916 0.06778 0.0613 0.28665 0.49938 0.31888 0.63818 0.0111 0.048 0.04697 0.12382 0.07962 0.16845 0.03363 0.046 0.07252 0.17407 0.08973 0.29555 0.0167 0.11793 0.06125 0.29711 0.09898 0.39818 0.0678 0.18161 0.06879 0.20734 0.08503 2.19 0.01623 1.9812 0.01725 2.0077 0.08256 2.1297 0.03637 0.0679 0.08086 0.2032 0.09888 0.30061 0.01801 0.0974 0.05919 0.21426 0.0915 0.25966 0.03232 0.0453 0.07402 0.13917 0.09266 0.20841 0.01864 0.0693 0.05922 0.1587 0.09015 0.1988s0.07188 0.11875 0.09099 0.17475c0.0191 0.0561 0.06955 0.14321 0.1121 0.19378 0.04255 0.0506 0.07737 0.11156 0.07737 0.13554 0 0.0239 0.027 0.0705 0.05999 0.10361 0.03299 0.0329 0.08868 0.11227 0.12374 0.17612 0.07386 0.13453 0.19013 0.30775 0.25675 0.3825 0.02548 0.0286 0.06986 0.0975 0.09863 0.15314 0.02877 0.0556 0.07962 0.13811 0.11301 0.18326 0.03729 0.0505 0.06069 0.13051 0.06069 0.20767 0 0.10409-0.0195 0.14508-0.11391 0.23952l-0.11391 0.11389-3.3968 0.016-0.02958 0.0778c-0.01627 0.0428-0.02959 0.12558-0.02959 0.18394 0 0.0584-0.03279 0.18497-0.07288 0.28133-0.04008 0.0964-0.08337 0.20965-0.09619 0.25176-0.02902 0.0953-0.10559 0.19924-0.32099 0.43559-0.14373 0.1577-0.23215 0.23136-0.44104 0.36739-0.01854 0.012-0.14224 0.064-0.2749 0.11542-0.26467 0.10257-0.64773 0.14213-0.91035 0.0939zm0.78348-0.81637c0.26378-0.13998 0.38195-0.25899 0.52131-0.52502 0.08448-0.16128 0.10902-0.24151 0.10159-0.33231l-0.0098-0.11972h-2.1746l-0.0097 0.11854c-0.0071 0.0867 0.01759 0.17315 0.09189 0.3216 0.12718 0.25416 0.27025 0.39858 0.53306 0.53805 0.19028 0.10093 0.2256 0.1091 0.47209 0.1091 0.247 0 0.28157-8e-3 0.47422-0.11027zm3.931-1.7991c6e-3 -0.031-0.0205-0.0897-0.05883-0.1305-0.0858-0.0914-0.18704-0.25425-0.28434-0.45759-0.04063-0.0849-0.096-0.17274-0.12304-0.19518-0.02704-0.0224-0.04917-0.0571-0.04917-0.0771s-0.0482-0.13198-0.10711-0.24894c-0.05891-0.11696-0.10758-0.22643-0.10816-0.24328-5.78e-4 -0.0168-0.04197-0.11296-0.09198-0.21361-0.05001-0.1007-0.09092-0.21393-0.09092-0.25175 0-0.0378-0.03718-0.17598-0.08264-0.30706l-0.08264-0.23832-0.01824-2.0521c-0.01781-2.0047-0.01977-2.0562-0.08439-2.2288-0.03638-0.0972-0.08053-0.25458-0.09813-0.34973-0.01759-0.0951-0.05154-0.19479-0.07545-0.22144-0.02391-0.0266-0.06987-0.11737-0.10214-0.20159-0.05512-0.14392-0.1327-0.27448-0.2912-0.49006-0.10775-0.14656-0.63831-0.65852-0.68243-0.65852-0.02207 0-0.08127-0.0346-0.13157-0.077-0.05029-0.0423-0.15059-0.0978-0.22288-0.12331-0.07229-0.0255-0.15337-0.0662-0.18016-0.0904-0.0268-0.0243-0.12396-0.0596-0.21592-0.0785-0.09196-0.0189-0.2499-0.0641-0.35098-0.10059-0.16822-0.0606-0.24338-0.0662-0.88823-0.0662-0.61431 0-0.72014 7e-3 -0.82697 0.0555-0.06738 0.0305-0.21835 0.0757-0.33548 0.10046-0.11714 0.0248-0.23498 0.065-0.26186 0.0892-0.02689 0.0243-0.10984 0.0658-0.18433 0.0921-0.07449 0.0263-0.16339 0.0733-0.19757 0.10444-0.03417 0.0312-0.10905 0.0804-0.16639 0.10934-0.13442 0.068-0.68469 0.61775-0.75442 0.75368-0.02942 0.0574-0.086 0.14324-0.12574 0.19085-0.03974 0.0477-0.07227 0.1042-0.07227 0.12586 0 0.0216-0.04135 0.11682-0.09189 0.21148-0.05054 0.0947-0.09218 0.20346-0.09253 0.24167-3.47e-4 0.0382-0.0373 0.16598-0.0821 0.28391l-0.08145 0.2144-0.01849 2.0521-0.01849 2.0521-0.08087 0.22971c-0.04447 0.12635-0.0892 0.29219-0.09938 0.36854-0.01016 0.0764-0.04489 0.1822-0.07714 0.23522-0.03224 0.053-0.07462 0.15581-0.09418 0.22843-0.01956 0.0727-0.05923 0.16664-0.08816 0.20891-0.02894 0.0423-0.07683 0.14217-0.10645 0.22202-0.0296 0.0798-0.06726 0.15347-0.08368 0.16361-0.01641 0.0105-0.06381 0.0896-0.10531 0.17643-0.09767 0.20446-0.1994 0.36909-0.28317 0.45827-0.06663 0.0709-0.08541 0.14575-0.04638 0.18478 0.01133 0.0117 1.9924 0.017 4.4024 0.0127 4.2265-7e-3 4.3823-9e-3 4.3928-0.0641zm-4.076-9.8603c0.02457-0.0192 0.03828-0.11215 0.03828-0.25947 0-0.22583-0.0019-0.2315-0.11891-0.34848-0.10291-0.10292-0.13747-0.11891-0.25678-0.11891-0.122 0-0.15062 0.0141-0.24863 0.1226-0.10594 0.11728-0.11077 0.13234-0.11077 0.34611 0 0.12292 0.01465 0.23815 0.03256 0.25606 0.04104 0.041 0.61207 0.0429 0.66424 2e-3zm-8.264 8.8995c-0.05405-0.0454-0.11689-0.12724-0.13964-0.1817-0.02276-0.0544-0.07601-0.15006-0.11835-0.21245-0.04234-0.0624-0.07698-0.13716-0.07698-0.16614 0-0.029-0.03385-0.10257-0.07522-0.16356-0.04138-0.061-0.09069-0.16826-0.10959-0.23845-0.0189-0.0702-0.05957-0.1635-0.09037-0.20736-0.03081-0.0439-0.07308-0.15473-0.09395-0.24635-0.02086-0.0916-0.06272-0.20877-0.09302-0.26034-0.0303-0.0516-0.06841-0.17647-0.08468-0.27754-0.01627-0.10105-0.05867-0.25734-0.09421-0.34725-0.0361-0.0913-0.07836-0.30091-0.09572-0.47475-0.03591-0.35939-0.07688-0.51034-0.13852-0.51034-0.03693 0-0.04357-0.1821-0.04357-1.1945 0-1.0124 0.0067-1.1945 0.04357-1.1945 0.06165 0 0.10261-0.15096 0.13852-0.51036 0.01737-0.17383 0.05964-0.38345 0.09572-0.47474 0.03555-0.0899 0.07773-0.24439 0.09376-0.34329 0.01602-0.0989 0.05495-0.23043 0.08652-0.29229 0.03156-0.0619 0.07826-0.19242 0.10377-0.29013 0.02551-0.0977 0.06675-0.20048 0.09164-0.22839 0.0249-0.0279 0.06153-0.1118 0.08141-0.18649 0.01988-0.0746 0.06941-0.18468 0.11006-0.24448 0.04064-0.0598 0.07389-0.13104 0.07389-0.15828 0-0.0272 0.0411-0.11016 0.09133-0.18432 0.05023-0.0742 0.09157-0.15197 0.09189-0.17298 7.52e-4 -0.0516 0.21269-0.2834 0.25912-0.2834 0.02037 0 0.06941 0.0345 0.10898 0.0766 0.03957 0.0422 0.09159 0.0766 0.1156 0.0766 0.06711 0 0.25194 0.20017 0.25194 0.27286 0 0.0355-0.04135 0.12166-0.09189 0.19143-0.05054 0.0697-0.09189 0.14352-0.09189 0.16392s-0.03646 0.0906-0.08102 0.1562c-0.04457 0.0655-0.09437 0.16737-0.11068 0.22633-0.01631 0.059-0.05483 0.14264-0.0856 0.18594-0.03078 0.0433-0.07242 0.14668-0.09253 0.22972-0.02012 0.083-0.06144 0.19257-0.09182 0.24341-0.03039 0.0508-0.07577 0.19087-0.10085 0.31116s-0.06626 0.25865-0.0915 0.30748c-0.02524 0.0488-0.06134 0.20513-0.08021 0.34736s-0.06468 0.37575-0.10181 0.51893c-0.06287 0.24245-0.06751 0.32879-0.06751 1.2558 0 0.927 0.0047 1.0133 0.06751 1.2558 0.03712 0.1432 0.08294 0.37672 0.10181 0.51894 0.01887 0.14223 0.05496 0.29855 0.08021 0.34737 0.02524 0.0488 0.06642 0.18719 0.0915 0.30747 0.02508 0.12029 0.07064 0.26031 0.10124 0.31115 0.03059 0.0508 0.0723 0.16413 0.09268 0.25173s0.05648 0.17541 0.08022 0.1951c0.02374 0.0197 0.06223 0.1 0.08554 0.17855 0.02332 0.0785 0.07849 0.19593 0.12261 0.26094 0.04412 0.0651 0.08022 0.1349 0.08022 0.1553 0 0.0203 0.04135 0.0942 0.09189 0.16392 0.05054 0.0697 0.09189 0.1559 0.09189 0.19143 0 0.0736-0.18518 0.27285-0.25353 0.27285-0.02489 0-0.06304 0.0214-0.08478 0.0477-0.08626 0.10397-0.14276 0.10911-0.24559 0.0227zm15.637-9e-3c-0.06311-0.0501-0.12318-0.0912-0.1335-0.0914-0.05137-3.4e-4 -0.21774-0.19522-0.21699-0.25409 4.62e-4 -0.037 0.04182-0.12151 0.09189-0.18769 0.05007-0.0661 0.09104-0.1366 0.09104-0.15652 0-0.0199 0.03597-0.0893 0.07994-0.154 0.04397-0.0648 0.09814-0.17828 0.12039-0.2522 0.02224-0.0739 0.0613-0.15745 0.08679-0.18561 0.02549-0.0282 0.06166-0.11989 0.08039-0.20384 0.01873-0.084 0.0596-0.19611 0.09083-0.24921 0.03123-0.0532 0.07344-0.17716 0.09382-0.27566 0.02037-0.0985 0.0633-0.24589 0.0954-0.32755 0.0321-0.0817 0.0721-0.25393 0.08891-0.38285 0.0168-0.12893 0.06125-0.35157 0.09877-0.49475 0.06379-0.24346 0.06822-0.32493 0.06827-1.2558 6.2e-5 -0.92788-0.0044-1.0121-0.06677-1.2405-0.03675-0.13476-0.07636-0.33461-0.08803-0.44411-0.01168-0.10945-0.06085-0.31989-0.10928-0.46754-0.04844-0.14765-0.08808-0.30066-0.08808-0.34001 0-0.0394-0.03226-0.13224-0.07171-0.20642-0.03944-0.0742-0.0889-0.20649-0.10989-0.29402-0.02099-0.0875-0.0576-0.17527-0.08133-0.19496-0.02374-0.0197-0.06223-0.1-0.08555-0.17855-0.02332-0.0785-0.07849-0.19593-0.12261-0.26095-0.04412-0.0651-0.08023-0.1349-0.08023-0.15529 0-0.0203-0.04134-0.0942-0.09189-0.16392-0.05054-0.0697-0.09189-0.15635-0.09189-0.1924 0-0.0696 0.19194-0.27188 0.25805-0.27188 0.02161 0 0.07654-0.0346 0.12207-0.0768 0.06425-0.0596 0.09536-0.07 0.139-0.0466 0.07163 0.0383 0.21579 0.20871 0.21652 0.25588 3.47e-4 0.0197 0.04166 0.0966 0.09189 0.17072 0.05023 0.0742 0.09133 0.15835 0.09133 0.18715 0 0.0289 0.03385 0.10222 0.07522 0.16322 0.04138 0.061 0.09104 0.16958 0.11037 0.24136 0.01933 0.0718 0.05955 0.16511 0.08939 0.20738 0.02983 0.0423 0.07013 0.15163 0.08955 0.24304 0.01942 0.0914 0.06092 0.20856 0.09222 0.26034 0.0313 0.0517 0.07244 0.1858 0.09141 0.29782 0.01898 0.11203 0.06099 0.26363 0.09336 0.33692 0.03338 0.0756 0.07438 0.27913 0.09471 0.47016 0.03618 0.3399 0.09121 0.536 0.15044 0.536 0.02194 0 0.0322 0.37071 0.0322 1.1639s-0.01028 1.1639-0.0322 1.1639c-0.05888 0-0.11418 0.19537-0.14975 0.52898-0.01935 0.18143-0.06144 0.39115-0.09354 0.46604-0.0321 0.0749-0.07406 0.22276-0.09326 0.32862-0.01919 0.10584-0.06813 0.26272-0.10874 0.34857-0.04062 0.0859-0.07384 0.18344-0.07384 0.21687 0 0.0334-0.03461 0.12857-0.07691 0.21145-0.0423 0.0828-0.09115 0.20265-0.10855 0.26616-0.01741 0.0636-0.06549 0.16537-0.10685 0.22633-0.04138 0.061-0.07522 0.13441-0.07522 0.16321 0 0.0289-0.0411 0.11309-0.09133 0.18716-0.05023 0.0742-0.09157 0.15095-0.09189 0.17072-6.95e-4 0.0467-0.14459 0.21738-0.21494 0.25503-0.04188 0.0224-0.0814 8e-3 -0.16936-0.0619zm-14.123-1.0636c-0.02603-0.0632-0.07233-0.14241-0.10289-0.1761-0.03057-0.0336-0.0707-0.11823-0.08917-0.18787-0.01847-0.0696-0.0543-0.14379-0.07962-0.16481-0.02531-0.021-0.06805-0.1139-0.09495-0.20646-0.0269-0.0925-0.07399-0.21134-0.10465-0.26399-0.03065-0.0527-0.06538-0.15087-0.07719-0.21825-0.01181-0.0674-0.05311-0.19884-0.09179-0.29212-0.03868-0.0933-0.08582-0.28278-0.10475-0.42112-0.01894-0.13833-0.0545-0.31699-0.07901-0.39702-0.12361-0.40357-0.1325-1.6722-0.01494-2.1318 0.03246-0.12692 0.07457-0.34433 0.09357-0.48313 0.01901-0.13879 0.06169-0.30555 0.09486-0.37057 0.03317-0.0651 0.07479-0.19655 0.09249-0.29229 0.0177-0.0958 0.05704-0.209 0.08744-0.25169 0.0304-0.0426 0.07189-0.13937 0.09223-0.21486 0.02033-0.0755 0.0634-0.17439 0.0957-0.21976 0.0323-0.0453 0.07948-0.14129 0.10484-0.21316 0.02536-0.0718 0.06475-0.15203 0.08754-0.17814 0.02279-0.0262 0.06501-0.0939 0.09383-0.15079 0.05088-0.10035 0.05648-0.1028 0.19428-0.0839 0.08719 0.0119 0.18355 0.0526 0.24994 0.10537 0.05942 0.0473 0.13248 0.095 0.16234 0.10618 0.09132 0.034 0.09476 0.10935 0.01051 0.23083-0.04409 0.0637-0.08016 0.13024-0.08016 0.14804s-0.03597 0.0854-0.07994 0.15016c-0.04397 0.0648-0.09814 0.17828-0.12039 0.2522-0.02224 0.074-0.06066 0.15723-0.08536 0.18511-0.0247 0.0279-0.06674 0.13693-0.09342 0.24231-0.02668 0.10537-0.0687 0.22255-0.09336 0.26035-0.02467 0.0379-0.05993 0.16521-0.07835 0.28314-0.01842 0.11791-0.06398 0.31777-0.10122 0.44411-0.06279 0.21299-0.06772 0.29211-0.06772 1.0873 0 0.75062 7e-3 0.87756 0.05579 1.0176 0.03069 0.088 0.07464 0.2764 0.09767 0.4187 0.02304 0.14228 0.06913 0.31213 0.10245 0.37743s0.07058 0.17323 0.08281 0.23983 0.06162 0.19539 0.10976 0.28619c0.04813 0.0908 0.08752 0.18968 0.08752 0.21972 0 0.03 0.03188 0.0936 0.07084 0.14117 0.03896 0.0477 0.09482 0.15097 0.12413 0.22966 0.02931 0.0787 0.07323 0.15962 0.09763 0.17986 0.08321 0.069 0.04808 0.14604-0.11647 0.25523-0.18589 0.12336-0.30206 0.17222-0.40939 0.17222-0.05916 0-0.0867-0.0256-0.12346-0.11483zm12.547 0.0805c-0.0421-0.0168-0.10413-0.0555-0.13783-0.086-0.0337-0.0305-0.10245-0.0745-0.15278-0.0979-0.11405-0.0529-0.13021-0.1261-0.0503-0.22768 0.03397-0.0432 0.07802-0.12933 0.0979-0.19146 0.01988-0.0621 0.06031-0.14051 0.08986-0.1742 0.02954-0.0336 0.07105-0.11635 0.09224-0.18376 0.02119-0.0674 0.06959-0.17765 0.10756-0.24503 0.03795-0.0674 0.0786-0.17701 0.09031-0.2436 0.01171-0.0666 0.04719-0.17187 0.07885-0.23392 0.03166-0.062 0.07239-0.20743 0.09052-0.32303 0.01813-0.11565 0.06343-0.31356 0.10069-0.43992 0.06266-0.21256 0.06772-0.2926 0.06772-1.072 0-0.7776-0.0051-0.85874-0.06639-1.0567-0.03652-0.11792-0.08184-0.31702-0.10074-0.44245-0.0189-0.12544-0.06023-0.27016-0.09184-0.3216-0.03161-0.0514-0.06749-0.14868-0.07973-0.21607-0.01224-0.0674-0.06163-0.19681-0.10978-0.28762-0.04814-0.0908-0.08777-0.1873-0.08807-0.2144-3.47e-4 -0.0271-0.04166-0.10993-0.09189-0.18407-0.05023-0.0742-0.09133-0.1492-0.09133-0.16682 0-0.0176-0.03607-0.0841-0.08016-0.1477-0.0842-0.12151-0.08076-0.19682 0.01051-0.23083 0.02986-0.0117 0.10292-0.0589 0.16234-0.10619 0.06715-0.0534 0.16273-0.0934 0.25252-0.10572 0.14256-0.0195 0.14506-0.0183 0.18881 0.0863 0.02439 0.0584 0.0651 0.12336 0.09049 0.14443 0.02538 0.021 0.06208 0.0889 0.08154 0.15069 0.01947 0.0618 0.06738 0.16225 0.10648 0.22316 0.0391 0.0609 0.08657 0.16827 0.10551 0.23858 0.01894 0.0703 0.0682 0.19137 0.10949 0.26902 0.04128 0.0777 0.07507 0.174 0.07507 0.21411 0 0.0401 0.03291 0.15177 0.07313 0.24812 0.04022 0.0964 0.09496 0.31454 0.12164 0.48485s0.06383 0.34948 0.08256 0.39817c0.01873 0.0487 0.04934 0.30456 0.06806 0.5686 0.03829 0.5403-0.0021 1.3266-0.07927 1.5422-0.02426 0.0678-0.06043 0.24591-0.08038 0.39583-0.01995 0.1499-0.06814 0.34941-0.10709 0.44336-0.03895 0.0939-0.08063 0.22593-0.09261 0.29331-0.01199 0.0674-0.04716 0.16386-0.07816 0.2144-0.031 0.0506-0.07266 0.15666-0.09256 0.23582-0.01991 0.0792-0.06918 0.18866-0.10951 0.24332-0.04033 0.0547-0.07333 0.12236-0.07333 0.15043 0 0.028-0.03464 0.1021-0.07698 0.16447-0.04234 0.0624-0.09677 0.16079-0.12095 0.21867-0.03566 0.0854-0.06017 0.1049-0.12976 0.10327-0.04718-1e-3 -0.12024-0.0157-0.16235-0.0325z" stroke-width=".030629"/>
 </g>
</svg>
