<svg width="20.509mm" height="20.509mm" version="1.1" viewBox="0 0 20.509 20.509" xmlns="http://www.w3.org/2000/svg">
 <g style="font-feature-settings:normal;font-variant-caps:normal;font-variant-ligatures:normal;font-variant-numeric:normal" aria-label="OEE">
  <path d="m18.053 13.324h-4.3137v-6.5475h4.3137v0.77391h-3.443v1.7941h3.443v0.77391h-3.443v2.4317h3.443zm-4.7974 0h-4.3137v-6.5475h4.3137v0.77391h-3.443v1.7941h3.443v0.77391h-3.443v2.4317h3.443zm-5.6197-5.7956q0.40015 0.43972 0.61122 1.0773 0.21546 0.6376 0.21546 1.4467 0 0.80909-0.21986 1.4511-0.21546 0.6376-0.60682 1.0641-0.40455 0.44412-0.9586 0.66838-0.54965 0.22426-1.2576 0.22426-0.69037 0-1.2576-0.22866-0.56285-0.22866-0.9586-0.66398-0.39575-0.43533-0.61122-1.0685-0.21107-0.6332-0.21107-1.4467 0-0.8003 0.21107-1.4335 0.21107-0.6376 0.61561-1.0905 0.38696-0.43093 0.9586-0.65959 0.57604-0.22866 1.2532-0.22866 0.70356 0 1.262 0.23305 0.56285 0.22866 0.9542 0.65519zm-0.07915 2.524q0-1.2752-0.57164-1.9656-0.57164-0.69476-1.561-0.69476-0.99817 0-1.5698 0.69476-0.56724 0.69037-0.56724 1.9656 0 1.2884 0.58043 1.9744 0.58043 0.68157 1.5566 0.68157t1.5522-0.68157q0.58043-0.68597 0.58043-1.9744zm-6.1386-10.052c-0.78539 0-1.418 0.6321-1.418 1.4175v17.673c0 0.78539 0.63262 1.418 1.418 1.418h17.673c0.78539 0 1.418-0.63262 1.418-1.418v-17.673c0-0.78539-0.63262-1.4175-1.418-1.4175zm0.74982 0.75603h16.174c0.72748 0 1.3131 0.58562 1.3131 1.3131v16.371c0 0.72748-0.58562 1.3131-1.3131 1.3131h-16.174c-0.72748 0-1.3131-0.58562-1.3131-1.3131v-16.371c0-0.72748 0.58562-1.3131 1.3131-1.3131z" stroke-width=".25978"/>
 </g>
</svg>
