<svg width="84.327mm" height="89.303mm" version="1.1" viewBox="0 0 84.327 89.303" xmlns="http://www.w3.org/2000/svg">
 <g transform="translate(-74.722 -134.27)">
  <g transform="translate(35.28 36.616)">
   <g stroke-width=".26458">
    <path d="m69.22 186.73c-0.3991-0.2373-0.46302-0.70469-0.46302-3.3858 0-2.874 0.04861-3.1764 0.63964-3.9774 0.3518-0.47684 1.0298-1.1548 1.5066-1.5066 0.86002-0.6345 0.91784-0.63964 7.2005-0.63964 7.1139 0 7.0674-0.25011 8.6139 1.6704 0.92106 1.1438 0.9603 1.5477 1.0338 4.2827 0.04438 1.6522-0.03683 3.082-0.18783 3.3073-0.22607 0.3373-1.5882 0.40644-9.0733 0.4606-5.7411 0.0415-8.9685-0.0321-9.2703-0.21159z" fill="#f60"/>
    <path d="m108.53 115.48c-3.3362-1.4396-5.5033-4.4602-5.7842-8.0621-0.27924-3.5805 1.9432-7.2392 5.4131-8.9114 1.5726-0.75783 2.0585-0.86473 3.9123-0.86061 2.6269 0.0058 4.6543 0.85492 6.5373 2.738 1.9146 1.9146 2.6933 3.8178 2.694 6.5848 5.3e-4 1.918-0.10773 2.474-0.73584 3.7784-2.2146 4.5992-7.516 6.6838-12.037 4.733z" fill="#fdb651"/>
    <path d="m67.166 147.26c-0.20722-0.25138-2.2166-0.33108-8.3762-0.3322-4.7321-7.9e-4 -8.5109-0.11462-9.0827-0.27341-1.2237-0.33987-2.7625-2.0776-3.1414-3.5475-0.15201-0.58981-0.4933-1.6677-0.75841-2.3953-0.80556-2.2109-1.1103-3.1061-1.6214-4.7625-0.82619-2.6777-1.3334-4.192-1.7282-5.1594-0.20783-0.50932-0.54519-1.5214-0.74968-2.249-0.5666-1.8247-1.2178-3.6244-1.7917-5.2754-0.74801-2.1518-0.53772-2.9642 0.11631-4.1599 0.43819-0.80113 0.81392-1.2957 1.7224-1.8176 0.49944-0.28691 0.94257-0.47764 1.3451-0.59614 0.5724-0.16852 1.0627-0.19099 1.5158-0.13635 0.46506 0.0561 0.9217 0.12312 1.4423 0.3887 1.0305 0.52571 2.1396 1.4485 2.6317 3.058 0.5092 1.6652 0.53249 2.0198 1.1689 3.9574 0.63638 1.9376 1.4867 4.5945 1.8896 5.9042 0.4029 1.3097 0.95378 2.9391 1.2242 3.6209 0.46222 1.1897 0.96019 2.2597 1.4399 3.18l2.6961-0.42864c2.0117-0.27816 4.1256-0.76726 5.9824-1.2083 3.1472-0.7475 4.7772-1.139 6.4593-2.6764 0.81996-0.74939 1.9116-1.645 2.4258-1.9902 1.7689-1.1876 4.7573-3.3716 10.279-7.5121 6.3901-4.7918 10.239-7.4721 11.587-8.068 4.7079-2.0821 9.7229 0.81386 11.365 6.0869 1.3957 4.4822 1.8456 5.7891 3.4317 10.658 0.83222 3.0149 1.2267 3.4846 4.8007 5.7159 1.9969 1.2586 4.1845 2.6208 6.0385 3.7348 2.592 1.5562 3.7364 2.5993 4.1169 3.7522 0.39798 1.2059 0.12033 2.2135-0.92413 3.3538-0.78794 0.86023-1.0213 0.96275-2.1701 0.95356-0.97176-8e-3 -1.6284-0.21852-2.6793-0.85989-0.76563-0.46728-2.9683-1.7951-4.8948-2.9508-4.3072-2.5838-5.5923-3.5037-7.8735-5.306-1.2904-1.0195-2.4576-3.2823-2.715-3.2929l0.60096 5.536c0.0747 0.68796 7.6074 7.6412 10.954 10.578 0.42073 0.36924 1.2244 1.2476 1.7859 1.9519 0.89948 1.1281 1.021 1.4498 1.021 2.7028 0 1.2062-0.12181 1.561-0.80196 2.3356-0.55045 0.62693-1.1214 0.96734-1.8205 1.0855-1.8237 0.3081-2.6738-0.0401-4.655-1.9063-1.0179-0.95883-3.6962-3.4905-5.9518-5.626-2.2556-2.1354-4.5894-4.3176-5.1863-4.8494-0.59692-0.5317-1.4304-1.4645-1.8521-2.073l-0.76678-1.1062-0.08939-5.4468c-0.04917-2.9957-0.18646-5.5484-0.30509-5.6725-0.11864-0.12415-0.85232 0.23626-1.6304 0.80091-0.77808 0.56465-1.6697 1.202-1.9814 1.4164-0.3117 0.21434-2.0214 1.4613-3.7993 2.771-3.5359 2.6047-4.4275 3.2504-5.8205 4.2152-0.50932 0.35276-1.2832 0.9362-1.7198 1.2966 0 0-0.78577 0.31218-0.79375 0.65516-0.08569 3.6838-0.13229 10.807-0.13229 10.807l-0.13229 10.807-0.72884 1.0583c-1.1985 1.7402-17.424 17.715-18.493 18.208-1.3861 0.63853-2.8045 0.55881-4.1236-0.23179h1.3e-5c-2.3971-1.4367-3.1313-4.2589-1.6861-6.4813 0.4207-0.64696 4.0521-4.4497 8.0698-8.4505l7.3049-7.2742s-0.16601-1.8124-0.40732-3.9109c-0.07679-0.66784-0.32543-2.5485-0.52991-4.2948-0.48522-4.1437-1.1585-7.853-1.5008-8.2682" fill="#2a97f0"/>
   </g>
  </g>
 </g>
</svg>
