<svg width="15.175mm" height="15.175mm" version="1.1" viewBox="0 0 15.175 15.175" xmlns="http://www.w3.org/2000/svg">
 <g transform="translate(-57.1 -154.59)">
  <path d="m57.252 169.72c0-0.0583-0.04795-0.10622-0.10623-0.10622-0.04357 0-0.04552-0.12365-0.04552-2.8833 0-2.2194 7e-3 -2.8833 0.03023-2.8833 0.01662 0 0.06289-0.0313 0.10281-0.0696l0.07258-0.0696 2.5133-0.0252 7e-3 -1.0496c0.0038-0.5773 7.7e-4 -1.0752-0.0068-1.1065-0.0076-0.0313-0.02815-0.0569-0.04564-0.0569-0.0175 0-0.17946 0.14725-0.35993 0.32723-0.44245 0.44122-0.49458 0.46144-0.68888 0.26715-0.10658-0.10659-0.11292-0.12048-0.09976-0.21859 0.01289-0.096 0.0558-0.14666 0.5155-0.60784 0.2758-0.27668 0.50533-0.50752 0.51008-0.51298 0.01922-0.0221-0.02755-0.11648-0.06859-0.13844-0.02414-0.0129-0.14002-0.0427-0.25753-0.0664-0.11751-0.0236-0.25918-0.0686-0.31482-0.1-0.05565-0.0314-0.13455-0.0648-0.17535-0.0744-0.0408-0.01-0.10711-0.045-0.14737-0.0789-0.04026-0.0339-0.08831-0.0616-0.1068-0.0616-0.01848 0-0.07976-0.037-0.13617-0.0822-0.05641-0.0452-0.15562-0.12204-0.22046-0.17073-0.25693-0.19292-0.47105-0.44395-0.73275-0.85908-0.04793-0.076-0.08716-0.15471-0.08716-0.17482 0-0.0201-0.02777-0.0839-0.06173-0.1419-0.03395-0.0579-0.07531-0.18332-0.09191-0.27865-0.02104-0.12083-0.04831-0.19145-0.09003-0.23317-0.05949-0.0595-0.05985-0.0633-0.05985-0.64697 0-0.55432 0.0027-0.58885 0.04922-0.61787 0.05091-0.0318 0.10215-0.17441 0.10238-0.28495 7.2e-5 -0.0347 0.03296-0.13151 0.07307-0.21498 0.04011-0.0835 0.09211-0.19159 0.11556-0.24028 0.0748-0.15534 0.13522-0.25682 0.18608-0.31253 0.02722-0.0298 0.06803-0.0909 0.09069-0.13573 0.05343-0.10572 0.49829-0.55059 0.60402-0.60402 0.04484-0.0226 0.10592-0.0635 0.13573-0.0907 0.05571-0.0508 0.15719-0.11128 0.31253-0.18608 0.04869-0.0235 0.15681-0.0755 0.24028-0.11555 0.08346-0.0401 0.18021-0.073 0.21498-0.0731 0.11053-1.9e-4 0.25314-0.0515 0.28494-0.10238 0.02904-0.0465 0.06363-0.0492 0.62558-0.0492 0.56196 0 0.59655 3e-3 0.62558 0.0492 0.03179 0.0509 0.1744 0.10215 0.28494 0.10238 0.03478 7e-5 0.13152 0.033 0.21498 0.0731 0.08346 0.0401 0.19159 0.0921 0.24028 0.11555 0.15085 0.0727 0.25608 0.13461 0.31253 0.1841 0.02981 0.0262 0.10142 0.0776 0.15914 0.11435 0.14102 0.0899 0.47525 0.42692 0.58095 0.58594 0.04698 0.0707 0.10439 0.15697 0.12757 0.19175 0.13999 0.21002 0.16506 0.25543 0.18905 0.34229 0.01459 0.0528 0.04764 0.12549 0.07344 0.16143 0.0258 0.0359 0.05989 0.13926 0.07575 0.22958 0.01586 0.0903 0.04312 0.19844 0.06058 0.24027 0.01746 0.0418 0.04024 0.12159 0.05062 0.17722 0.01038 0.0557 0.03063 0.1154 0.04501 0.13279 0.03895 0.0471 2.1408 0.0457 2.2054-2e-3 0.0412-0.0301 0.01202-0.066-0.32406-0.39836-0.3636-0.35955-0.36934-0.36696-0.36925-0.47571 7.5e-5 -0.0951 0.01417-0.12453 0.10155-0.21192 0.09527-0.0953 0.1085-0.10065 0.21726-0.0884 0.1121 0.0126 0.13434 0.0316 0.69554 0.5913 0.41645 0.41538 0.59857 0.58061 0.64662 0.58663 0.05848 7e-3 0.23226-0.15621 1.384-1.3026 0.72444-0.72101 1.321-1.3308 1.3257-1.3552 0.0071-0.0371 0.03696-0.0443 0.18379-0.0443 0.12478 0 0.17529 9e-3 0.17529 0.0321 0 0.042 2.784 2.8259 2.8259 2.8259 0.02285 0 0.0321 0.0505 0.0321 0.17529 0 0.14687-0.0072 0.17665-0.04426 0.18371-0.02434 5e-3 -0.63894 0.60616-1.3658 1.3367l-1.3215 1.3283v1.1768c0 0.9323 0.0069 1.1862 0.03325 1.2222 0.03031 0.0415 0.06444 0.0138 0.38695-0.31304 0.32134-0.32571 0.36343-0.35983 0.45995-0.37277 0.09991-0.0135 0.11304-7e-3 0.22006 0.0996 0.11841 0.11841 0.14147 0.19859 0.08661 0.3011-0.03413 0.0637-0.02307 0.052-0.55997 0.59449-0.55073 0.55643-0.55285 0.56834-0.11701 0.65582 0.11605 0.0233 0.25652 0.068 0.31216 0.0994 0.05565 0.0314 0.13455 0.0648 0.17535 0.0744 0.0408 0.01 0.10712 0.045 0.14737 0.0788 0.04026 0.0338 0.08783 0.0616 0.10572 0.0616 0.01788 0 0.07676 0.0337 0.13084 0.075 0.05408 0.0413 0.14846 0.11239 0.20974 0.15808 0.1454 0.10838 0.34662 0.31052 0.45766 0.45973 0.04869 0.0654 0.11165 0.1497 0.13991 0.18729 0.08688 0.11553 0.23947 0.37766 0.23947 0.41137 0 0.0175 0.02752 0.0789 0.06114 0.13623 0.03363 0.0574 0.07413 0.17599 0.09001 0.26355 0.03464 0.19107 0.07272 0.28153 0.11847 0.28153 0.02737 0 0.03387 0.11663 0.03387 0.60701 0 0.49897-0.0062 0.60701-0.03487 0.60701-0.04338 0-0.08397 0.0972-0.11621 0.27821-0.01362 0.0765-0.05242 0.19602-0.08619 0.26558-0.03378 0.0696-0.07977 0.16629-0.1022 0.21498-0.03907 0.0848-0.0635 0.12406-0.27082 0.43535-0.11797 0.17712-0.44652 0.50567-0.62364 0.62364-0.31129 0.20733-0.35054 0.23175-0.43535 0.27083-0.04869 0.0225-0.14543 0.0684-0.21498 0.1022-0.06955 0.0337-0.18906 0.0726-0.26557 0.0862-0.18105 0.0323-0.27822 0.0728-0.27822 0.1162 0 0.0286-0.10805 0.0348-0.60701 0.0348-0.49038 0-0.60702-6e-3 -0.60702-0.0338 0-0.0457-0.09046-0.0839-0.28152-0.11848-0.08757-0.0159-0.20617-0.0564-0.26355-0.09-0.05738-0.0336-0.12078-0.0611-0.1409-0.0611-0.03679 0-0.25864-0.13085-0.37631-0.22194-0.03477-0.0269-0.09871-0.0672-0.14207-0.0895-0.10303-0.0529-0.55682-0.50725-0.60809-0.60879-0.0219-0.0434-0.06208-0.10323-0.0893-0.13305-0.05087-0.0558-0.11129-0.15719-0.18608-0.31253-0.02345-0.0487-0.07544-0.15682-0.11556-0.24028-0.04011-0.0835-0.07293-0.17701-0.07292-0.20788 6e-6 -0.0309-0.03019-0.14468-0.0671-0.25292-0.06311-0.18507-0.06711-0.22469-0.06711-0.6647 0-0.44002 4e-3 -0.47965 0.06711-0.66471 0.03691-0.10824 0.06711-0.22206 0.0671-0.25292-5e-6 -0.0309 0.03281-0.12442 0.07292-0.20788 0.04011-0.0835 0.09212-0.19159 0.11556-0.24028 0.07263-0.15085 0.13461-0.25608 0.1841-0.31253 0.02613-0.0298 0.07657-0.0997 0.11209-0.15537 0.07823-0.12257 0.34958-0.39909 0.50341-0.51302 0.06168-0.0456 0.15639-0.11682 0.21047-0.15808 0.05408-0.0413 0.11296-0.075 0.13084-0.075 0.01789 0 0.06546-0.0277 0.10571-0.0616 0.04026-0.0339 0.10657-0.0694 0.14737-0.0789 0.0408-9e-3 0.12005-0.0434 0.17612-0.0753 0.05606-0.0319 0.14712-0.0657 0.20234-0.0752 0.31517-0.0537 0.46636-0.12872 0.43698-0.21685-0.0045-0.0135-0.23854-0.25505-0.52013-0.53692-0.50818-0.50868-0.51199-0.51331-0.51199-0.62209 0-0.0936 0.01434-0.12395 0.09819-0.2078 0.10397-0.10397 0.19566-0.12496 0.31162-0.0713 0.03196 0.0147 0.20576 0.17412 0.38622 0.35409 0.18047 0.17997 0.34144 0.32722 0.35771 0.32722 0.01627 0 0.03649-0.018 0.04493-0.04 0.0085-0.022 0.01535-0.5652 0.01535-1.2071v-1.1671l-1.2583-1.2598c-1.1054-1.1067-1.2666-1.2589-1.327-1.2525-0.05123 5e-3 -0.21215 0.1495-0.63231 0.56646-0.30997 0.30759-0.58844 0.57222-0.61882 0.58804-0.10792 0.0562-0.18599 0.0345-0.3055-0.085-0.10703-0.10703-0.11297-0.12015-0.09957-0.22006 0.01294-0.0965 0.04705-0.13861 0.37276-0.45995 0.3269-0.32252 0.3545-0.35664 0.31305-0.38696-0.06474-0.0474-2.1671-0.0489-2.2043-2e-3 -0.03043 0.0386-0.11851 0.33555-0.15571 0.52481-0.01504 0.0765-0.05485 0.19601-0.08846 0.26557-0.03361 0.0696-0.08213 0.17035-0.10779 0.22399-0.08903 0.18606-0.14842 0.28383-0.26166 0.43077-0.06259 0.0812-0.13566 0.17769-0.16237 0.21437-0.06755 0.0928-0.41473 0.39191-0.5142 0.44305-0.04521 0.0232-0.0822 0.0526-0.0822 0.0652s-0.02026 0.0294-0.04502 0.0373c-0.02476 8e-3 -0.10689 0.0542-0.18252 0.10287-0.07563 0.0487-0.15965 0.0886-0.18671 0.0886-0.02707 0-0.09804 0.0286-0.15771 0.0636-0.06304 0.0369-0.19643 0.0789-0.31838 0.10013-0.20628 0.0359-0.2984 0.09-0.2984 0.17533 0 0.0165 0.09959 0.1279 0.22131 0.24765 0.68354 0.67251 0.79408 0.79605 0.8085 0.90355 0.0129 0.0962 0.0061 0.11091-0.09998 0.21699-0.11935 0.11935-0.1971 0.14109-0.3055 0.0855-0.03038-0.0156-0.20828-0.18168-0.39531-0.36909-0.31038-0.31098-0.34297-0.33676-0.37333-0.29524-0.0265 0.0363-0.03192 0.26406-0.02667 1.1215l0.0065 1.076 1.2579 0.0126 1.2579 0.0127 0.1905 0.1906v5.6642l-0.06955 0.0645c-0.03825 0.0355-0.06955 0.0811-0.06955 0.10141 0 0.0322-0.37276 0.0369-2.8833 0.0369-2.7597 0-2.8833-2e-3 -2.8833-0.0456zm5.2987-2.9895v-2.4154h-4.8308l-0.0065 2.3901c-0.0035 1.3146-0.0011 2.4044 0.0055 2.4219 0.0096 0.0252 0.50743 0.0304 2.4219 0.0253l2.4098-6e-3zm7.26 2.3719c0.04235-0.0225 0.15048-0.0599 0.24028-0.083 0.0898-0.0231 0.18604-0.0623 0.21386-0.087 0.02783-0.0248 0.08843-0.0577 0.13468-0.0732 0.04625-0.0155 0.11826-0.0569 0.16002-0.092 0.04176-0.0352 0.08916-0.0639 0.10533-0.0639 0.02957 0 0.04546-0.0142 0.28986-0.25857 0.24378-0.24378 0.25858-0.26029 0.25858-0.28833 0-0.0154 0.03338-0.0699 0.07415-0.12118 0.04079-0.0513 0.08126-0.12569 0.08996-0.16526 0.0087-0.0396 0.03701-0.0911 0.06293-0.11459 0.02592-0.0235 0.06087-0.10146 0.07765-0.17334 0.01679-0.0718 0.05468-0.18192 0.08422-0.24451 0.04902-0.10388 0.0537-0.15686 0.0537-0.60701 0-0.45563-0.0043-0.50245-0.05596-0.61443-0.03078-0.0667-0.06347-0.16342-0.07263-0.21498-0.0092-0.0516-0.04943-0.14409-0.08947-0.20559s-0.0728-0.12492-0.0728-0.14093c0-0.016-0.03383-0.0738-0.07517-0.12845-0.04134-0.0547-0.07549-0.11061-0.07588-0.12436-7.68e-4 -0.0257-0.02754-0.055-0.25928-0.2838-0.0734-0.0725-0.16234-0.1607-0.19764-0.19603-0.0353-0.0353-0.07296-0.0642-0.08368-0.0642s-0.06151-0.033-0.11286-0.0733c-0.05135-0.0403-0.12014-0.0813-0.15288-0.091-0.03274-0.01-0.09745-0.0435-0.14382-0.0749-0.04636-0.0315-0.12876-0.0643-0.18311-0.073-0.05434-9e-3 -0.15466-0.0416-0.22292-0.073-0.11548-0.0533-0.15841-0.0573-0.61731-0.0573s-0.50183 4e-3 -0.61732 0.0573c-0.06826 0.0315-0.16858 0.0644-0.22292 0.073-0.05435 9e-3 -0.13821 0.0426-0.18637 0.0752-0.04816 0.0327-0.1133 0.0658-0.14476 0.0738-0.0869 0.0218-0.36814 0.24295-0.55623 0.43738-0.22585 0.23345-0.37887 0.43226-0.40916 0.53158-0.01 0.0327-0.0439 0.0975-0.07535 0.14381-0.03146 0.0464-0.06432 0.12876-0.07301 0.18311-0.0087 0.0544-0.04156 0.15466-0.07304 0.22292-0.05326 0.11548-0.05725 0.15841-0.05725 0.61732s4e-3 0.50182 0.05725 0.6173c0.03148 0.0683 0.06436 0.16859 0.07304 0.22292 0.0087 0.0544 0.04254 0.13822 0.07522 0.18638 0.03268 0.0482 0.06589 0.1133 0.07378 0.14475 0.0214 0.0852 0.22752 0.34805 0.44154 0.56293 0.21017 0.21103 0.24071 0.23851 0.26584 0.23921 0.01376 3.9e-4 0.06972 0.0345 0.12437 0.0758 0.05464 0.0414 0.11244 0.0752 0.12845 0.0752 0.016 0 0.07942 0.0327 0.14092 0.0727 0.0615 0.04 0.15696 0.0808 0.21212 0.0907 0.05516 0.01 0.13286 0.0347 0.17265 0.0553 0.12856 0.0665 0.27518 0.082 0.71345 0.0757 0.33897-5e-3 0.44626-0.0148 0.50697-0.0472zm-9.0937-9.1167c0.06259-0.0292 0.17614-0.0662 0.25231-0.0822 0.07617-0.016 0.16154-0.0501 0.18969-0.0757 0.02815-0.0256 0.09296-0.0598 0.14402-0.0762 0.05105-0.0163 0.10713-0.0469 0.12462-0.068 0.01749-0.0211 0.06677-0.0562 0.10952-0.0781 0.08584-0.044 0.12008-0.0737 0.30535-0.26442 0.06955-0.0717 0.15776-0.15945 0.19601-0.19517 0.03825-0.0357 0.06955-0.0779 0.06955-0.0938 0-0.0158 0.03415-0.0718 0.07588-0.12431 0.04173-0.0525 0.07588-0.1094 0.07588-0.12641 0-0.017 0.02855-0.073 0.06345-0.12443 0.03489-0.0514 0.0751-0.14549 0.08935-0.20906 0.01424-0.0636 0.05114-0.16819 0.08198-0.2325 0.05168-0.10778 0.05608-0.15367 0.05608-0.58486 0-0.44699-3e-3 -0.47526-0.06662-0.63231-0.03665-0.0904-0.07393-0.20592-0.08286-0.25668-0.0089-0.0507-0.03714-0.11904-0.06268-0.15175-0.02555-0.0327-0.05528-0.0877-0.06609-0.12211-0.03966-0.12643-0.34337-0.522-0.50349-0.65579-0.02656-0.0222-0.0823-0.0717-0.12389-0.1099-0.04159-0.0383-0.08375-0.0696-0.09368-0.0696-0.0099 0-0.06006-0.0334-0.11138-0.0742-0.05133-0.0407-0.12569-0.0813-0.16526-0.0899-0.03957-9e-3 -0.09147-0.0374-0.11533-0.0637-0.02386-0.0264-0.10756-0.0612-0.18599-0.0774-0.07843-0.0162-0.18813-0.0538-0.24377-0.0834-0.09335-0.0498-0.13929-0.054-0.59437-0.054-0.45891 0-0.50183 4e-3 -0.61731 0.0572-0.06826 0.0315-0.16858 0.0644-0.22292 0.073-0.05435 9e-3 -0.13821 0.0426-0.18637 0.0752s-0.1133 0.0658-0.14476 0.0738c-0.0869 0.0218-0.36814 0.24295-0.55623 0.43738-0.22584 0.23345-0.37887 0.43226-0.40916 0.53158-0.01 0.0327-0.0439 0.0975-0.07535 0.14382-0.03147 0.0464-0.06432 0.12876-0.07301 0.1831-0.0087 0.0544-0.04156 0.15466-0.07304 0.22292-0.05326 0.11549-0.05725 0.15841-0.05725 0.61732 0 0.4589 4e-3 0.50183 0.05725 0.61731 0.03148 0.0683 0.06436 0.16859 0.07304 0.22292 0.0087 0.0544 0.04254 0.13821 0.07523 0.18637 0.03268 0.0482 0.06589 0.11331 0.07378 0.14476 0.0214 0.0852 0.22752 0.34805 0.44154 0.56292 0.21017 0.21103 0.24071 0.23851 0.26584 0.23922 0.01376 3.8e-4 0.06972 0.0345 0.12437 0.0758 0.05465 0.0414 0.11244 0.0752 0.12845 0.0752 0.016 0 0.07942 0.0327 0.14092 0.0728 0.0615 0.04 0.15696 0.0808 0.21212 0.0907 0.05516 0.01 0.13286 0.0347 0.17266 0.0553 0.12741 0.0658 0.27395 0.0818 0.7008 0.0758 0.36321-5e-3 0.43208-0.0126 0.53114-0.0588zm9.6805-1.2032c0.85841-0.85823 1.094-1.1074 1.094-1.157 0-0.0924-2.1584-2.2512-2.2508-2.2512-0.09241 0-2.2512 2.1584-2.2512 2.2508 0 0.0924 2.1584 2.2512 2.2508 2.2512 0.04961 0 0.29894-0.23566 1.1572-1.0938z" stroke-width=".025292"/>
 </g>
</svg>
