<svg width="19.385mm" height="19.635mm" version="1.1" viewBox="0 0 19.385 19.635" xmlns="http://www.w3.org/2000/svg">
 <g transform="translate(-31.743 -168.71)">
  <path d="m41.875 188.3c0-0.0259-0.05223-0.0931-0.11607-0.14913-0.11091-0.0973-0.1152-0.11145-0.09649-0.31776 0.01079-0.11878 0.0547-0.29531 0.09762-0.39236 0.04293-0.0971 0.0953-0.2844 0.11637-0.41633 0.02108-0.13193 0.06886-0.30046 0.1062-0.37449 0.03734-0.074 0.08763-0.24969 0.11176-0.39036 0.02414-0.14065 0.07057-0.3072 0.1032-0.37009 0.03261-0.0628 0.08093-0.22744 0.10734-0.36566 0.02708-0.14172 0.08503-0.30034 0.13287-0.36371 0.2189-0.28998 5.6318-5.7283 5.8407-5.8681 0.18093-0.12108 0.24067-0.15526 0.51716-0.29567 0.1844-0.0936 0.2401-0.10336 0.59215-0.10349 0.34775-8e-5 0.41194 0.0103 0.61065 0.10324 0.25538 0.11889 0.25442 0.11825 0.44889 0.26385 0.20955 0.15681 0.37926 0.38871 0.50897 0.69543 0.03228 0.0763 0.08394 0.13879 0.1148 0.13879 0.04755 0 0.05611 0.0813 0.05611 0.53231 0 0.48802-0.0058 0.53382-0.0689 0.55035-0.04173 0.0103-0.09178 0.0851-0.12691 0.18827-0.0538 0.1579-0.26251 0.46924-0.33565 0.5007-0.01751 8e-3 -1.2838 1.2649-2.8139 2.7942-1.5302 1.5293-2.8487 2.826-2.93 2.8817-0.0999 0.0683-0.24477 0.11813-0.44614 0.15324-0.16401 0.0286-0.34877 0.0782-0.41057 0.11016-0.0618 0.032-0.22303 0.0758-0.3583 0.0975-0.13526 0.0217-0.32926 0.0722-0.43111 0.11222-0.10185 0.0402-0.30553 0.0916-0.45264 0.11428-0.3024 0.0466-0.39699 0.0857-0.39699 0.16403 0 0.042-0.05397 0.0542-0.24056 0.0542-0.17052 0-0.24056-0.0137-0.24056-0.0472zm1.2398-1.042c0.381-0.0883 0.70144-0.2208 0.71589-0.29581 0.01826-0.0949-0.68654-0.76673-0.78975-0.75283-0.05869 8e-3 -0.08265 0.0555-0.11672 0.23198-0.02357 0.12211-0.07777 0.30966-0.12044 0.41675-0.08785 0.22047-0.09788 0.34385-0.03318 0.40856 0.05517 0.0552 0.0708 0.0548 0.34418-9e-3zm4.0247-3.0818c1.6331-1.6354 2.2483-2.2741 2.2483-2.3342 0-0.11646-1.1133-1.2294-1.2303-1.2298-0.06001-2.7e-4 -0.30197 0.22145-0.85846 0.78644-0.42619 0.43272-1.4463 1.4633-2.2668 2.2902-0.82055 0.8269-1.4919 1.5316-1.4919 1.5661 0 0.13418 0.0626 0.20532 0.79968 0.90896 0.25255 0.24109 0.41676 0.33882 0.49551 0.29488 0.0306-0.0171 1.0674-1.0442 2.3039-2.2824zm2.9672-3.1251c0.12229-0.0557 0.18166-0.24347 0.16217-0.51287-0.01895-0.2621-0.18009-0.51936-0.42518-0.67882-0.29446-0.1916-0.80045-0.17227-0.89451 0.0341-0.02336 0.0512-0.04246 0.11094-0.04246 0.13263 0 0.0534 1.0061 1.0622 1.0623 1.0651 0.02449 1e-3 0.08645-0.0168 0.13771-0.0402zm-18.335 5.946c-0.06514-0.0784-0.01313-0.83006 0.07504-1.0843 0.0373-0.1076 0.08749-0.29034 0.11156-0.40622 0.02406-0.11595 0.08341-0.26909 0.1319-0.34046 0.04848-0.0714 0.08816-0.15688 0.08816-0.19007 0-0.0331 0.04996-0.12326 0.11103-0.20004 0.06107-0.0769 0.11103-0.15685 0.11103-0.17781 0-0.0883 0.87322-0.93909 1.0101-0.98417 0.02454-8e-3 0.09933-0.0623 0.16619-0.12031 0.06686-0.058 0.14339-0.10555 0.17006-0.10555 0.02667 0 0.07807-0.0326 0.11421-0.0727 0.03614-0.0399 0.12617-0.0924 0.20003-0.11659 0.07387-0.0243 0.18427-0.0813 0.24534-0.12686 0.06107-0.0456 0.16437-0.0941 0.22957-0.10799 0.06519-0.0137 0.15738-0.0557 0.20485-0.093 0.04747-0.0372 0.16067-0.088 0.25155-0.11235 0.09088-0.0244 0.23186-0.0823 0.31328-0.12862 0.08142-0.0464 0.20351-0.0944 0.27132-0.10683 0.06781-0.0128 0.16526-0.0557 0.21656-0.096 0.0513-0.0403 0.15404-0.0838 0.2283-0.0968 0.07427-0.0128 0.19614-0.0627 0.27082-0.11055 0.07469-0.0479 0.18294-0.0986 0.24056-0.11248 0.05763-0.0139 0.14839-0.0559 0.20171-0.0931 0.05333-0.0372 0.14266-0.0851 0.19854-0.10632 0.20803-0.0791 0.54749-0.37298 0.70513-0.61048l0.12817-0.19309v-1.444l-0.11103-0.13972c-0.06107-0.0768-0.11103-0.15982-0.11103-0.18439 0-0.0247-0.03268-0.0742-0.07262-0.11043-0.03995-0.0362-0.09195-0.12429-0.11556-0.19581-0.02361-0.0715-0.08024-0.18505-0.12582-0.25223-0.04558-0.0672-0.09367-0.18961-0.10687-0.2721-0.01319-0.0824-0.05764-0.21454-0.09879-0.29348-0.04115-0.079-0.08503-0.22983-0.09752-0.33532-0.02056-0.17358-0.04328-0.21155-0.2394-0.39992-0.11918-0.11441-0.21669-0.22228-0.21669-0.23956 0-0.0173-0.04051-0.0935-0.09004-0.16941-0.04951-0.0759-0.10196-0.2046-0.11656-0.28603-0.01459-0.0814-0.05734-0.23807-0.095-0.34812-0.13304-0.38868-0.07343-0.82224 0.17457-1.2698 0.0492-0.0887 0.0494-0.12545 0.0018-0.31459-0.02966-0.11774-0.07161-0.3806-0.09323-0.58416-0.02162-0.20355-0.05819-0.42838-0.08128-0.49962-0.02309-0.0713-0.05002-0.44597-0.05989-0.83271-0.01569-0.61566-0.0087-0.74231 0.05638-1.0178 0.04087-0.17301 0.08563-0.39785 0.09949-0.49962 0.01385-0.10182 0.07369-0.29609 0.13298-0.4318 0.0593-0.13572 0.10781-0.26591 0.10781-0.28929 0-0.0234 0.04163-0.0971 0.09253-0.16384 0.05089-0.0668 0.09253-0.14 0.09253-0.16284 0-0.0664 0.52456-0.65858 0.70157-0.79206 0.35405-0.26697 0.56328-0.39891 0.63282-0.39908 0.03166-8e-5 0.11239-0.0406 0.1794-0.09 0.067-0.0494 0.18931-0.10131 0.27179-0.11518 0.08248-0.014 0.25989-0.0637 0.39424-0.11055 0.51895-0.18097 2.148-0.20226 2.5986-0.034 0.08928 0.0333 0.23766 0.0882 0.32974 0.12186 0.1759 0.0643 0.28851 0.13532 0.51166 0.32269 0.24829 0.20848 0.3654 0.27359 0.58412 0.32473 0.11944 0.028 0.28194 0.0948 0.36112 0.14863 0.07917 0.0538 0.16356 0.0978 0.18752 0.0978 0.04622 0 0.54809 0.48044 0.66013 0.63194 0.12225 0.16533 0.29285 0.53158 0.3607 0.77441 0.03697 0.13231 0.09421 0.33215 0.12721 0.44411 0.08647 0.29338 0.06239 1.9102-0.03335 2.239-0.03555 0.12211-0.0871 0.35528-0.11452 0.51814-0.02743 0.16283-0.07119 0.36726-0.09725 0.4543-0.04154 0.13872-0.03934 0.17318 0.01776 0.27923 0.08368 0.15538 0.20836 0.63467 0.20872 0.80234 5.6e-4 0.24587-0.16637 0.94659-0.25112 1.0543-0.04453 0.0566-0.08097 0.12609-0.08097 0.15438 0 0.0282-0.09669 0.14678-0.21485 0.26332-0.19547 0.19277-0.22552 0.24461-0.33308 0.57455-0.06502 0.19947-0.11823 0.38435-0.11823 0.41084 0 0.0264-0.03955 0.1225-0.08788 0.21344-0.04833 0.0909-0.10028 0.20581-0.11546 0.25533-0.03561 0.11633-0.19438 0.37736-0.32405 0.53289l-0.10177 0.12211v1.657l0.21683 0.22139c0.27461 0.28038 0.44551 0.41327 0.5724 0.44512 0.13573 0.034 0.32936 0.22067 0.31451 0.30309-0.01459 0.0809-0.48939 0.52793-0.56077 0.52793-0.02808 0-0.09597-0.0417-0.15088-0.0926-0.0549-0.0508-0.12128-0.0926-0.14748-0.0926-0.05718 0-0.27813-0.15787-0.45325-0.32384-0.15003-0.14219-0.26497-0.15199-0.40842-0.0348-0.14138 0.11543-0.64617 0.35868-0.74441 0.35868-0.04353 0-0.16719 0.0375-0.27481 0.0832-0.18184 0.0773-0.2493 0.0831-0.95436 0.0822-0.69208-7.3e-4 -0.77788-8e-3 -0.97728-0.0832-0.12022-0.0452-0.25222-0.0822-0.29331-0.0822-0.09471 0-0.60169-0.24574-0.73999-0.35868-0.15391-0.1257-0.24311-0.10696-0.46721 0.098-0.11028 0.10092-0.25158 0.20383-0.31397 0.22883-0.06239 0.0249-0.16053 0.084-0.21807 0.1312-0.05755 0.0471-0.14914 0.0968-0.20355 0.11029-0.0544 0.0135-0.15721 0.0624-0.22845 0.10876-0.07124 0.0463-0.17949 0.096-0.24056 0.11042-0.06107 0.0144-0.15282 0.0553-0.20389 0.0909-0.05108 0.0357-0.16765 0.0849-0.25906 0.10953-0.09141 0.0247-0.23282 0.0826-0.31424 0.12898-0.08142 0.0463-0.19698 0.0957-0.25681 0.10952-0.05982 0.014-0.15142 0.0555-0.20355 0.0923-0.05213 0.0369-0.15283 0.0795-0.22378 0.0949-0.11666 0.0253-0.42551 0.1636-0.66669 0.29858-0.05089 0.0285-0.16017 0.0847-0.24286 0.12493-0.08269 0.0402-0.18103 0.10709-0.21854 0.14852-0.03751 0.0415-0.0834 0.0754-0.10196 0.0754-0.04156 0-0.28143 0.1899-0.49257 0.38998-0.18536 0.17564-0.39414 0.44233-0.48197 0.61565-0.03432 0.0677-0.08345 0.14812-0.10914 0.17866-0.02571 0.0306-0.07388 0.15043-0.10705 0.26643-0.03317 0.11608-0.07675 0.22108-0.09684 0.2335-0.06344 0.0392-0.04003 0.19876 0.03507 0.23895 0.04811 0.0258 1.4242 0.0384 4.1975 0.0384 2.2693 0 4.1523 0.0103 4.1845 0.0225 0.07414 0.0285 0.07537 0.15909 0.0024 0.26314-0.03083 0.044-0.07251 0.16681-0.09263 0.27288-0.02012 0.10606-0.05523 0.21533-0.07802 0.2428-0.03437 0.0413-0.81707 0.0499-4.5845 0.0499-3.9732 0-4.5488-8e-3 -4.5887-0.0549zm9.3444-5.1887c0.08142-0.0299 0.23131-0.0804 0.33308-0.11222 0.24974-0.0782 0.56057-0.29884 0.60884-0.43223 0.02345-0.0648 0.03883-0.49913 0.03883-1.0968v-0.98946l0.09945-0.0652c0.0547-0.0358 0.13743-0.1103 0.18384-0.16546 0.11939-0.14188 0.33106-0.55109 0.36406-0.70382 0.01531-0.0709 0.06077-0.19386 0.10103-0.27334 0.04698-0.0928 0.08695-0.28491 0.11164-0.53663 0.02116-0.21567 0.0534-0.41119 0.07166-0.43451 0.01826-0.0234 0.09448-0.0538 0.16938-0.0679 0.27554-0.0516 0.35143-0.11929 0.4166-0.3708 0.01582-0.061 0.0556-0.2105 0.08838-0.33209 0.08211-0.30449 0.05062-0.42259-0.1823-0.68362l-0.19644-0.22017 0.05499-0.2106c0.03025-0.11582 0.0799-0.24863 0.11036-0.29511 0.03044-0.0465 0.07894-0.2232 0.10775-0.39274 0.02881-0.16955 0.08693-0.43317 0.12915-0.58583 0.06687-0.24183 0.07696-0.38479 0.07838-1.1103 0.0012-0.65484-0.01053-0.86829-0.05517-0.99925-0.17168-0.50338-0.21655-0.61394-0.27715-0.68289-0.03665-0.0416-0.09276-0.11813-0.12472-0.16981-0.13917-0.22515-0.7039-0.53813-1.1028-0.6112-0.17958-0.0329-0.28084-0.10478-0.38919-0.27647-0.05108-0.0809-0.11437-0.1471-0.14066-0.1471-0.02628 0-0.12303-0.0476-0.21497-0.10606-0.13637-0.0864-0.23827-0.11415-0.55313-0.15021-0.21228-0.0243-0.43593-0.0503-0.49699-0.0576-0.06107-8e-3 -0.38582 0.0116-0.72168 0.0426-0.48189 0.0442-0.65256 0.0749-0.80942 0.14518-0.10932 0.049-0.2259 0.0894-0.25906 0.0896-0.03317 2.8e-4 -0.09545 0.0211-0.13842 0.0462-0.04296 0.0252-0.16428 0.0921-0.26958 0.14875-0.1053 0.0568-0.22452 0.13163-0.26494 0.16654-0.18406 0.15904-0.39301 0.3691-0.4681 0.47062-0.14957 0.20217-0.36013 0.66231-0.42337 0.92522-0.03427 0.14249-0.0839 0.33401-0.11027 0.42561-0.03169 0.11004-0.04733 0.39238-0.04611 0.8327 0.0015 0.54442 0.01588 0.72366 0.07873 0.98074 0.0423 0.17302 0.08853 0.43803 0.10276 0.58893 0.01423 0.15089 0.06554 0.3879 0.11402 0.52669 0.12628 0.36145 0.1184 0.41464-0.09349 0.63103-0.2536 0.25897-0.28805 0.53741-0.10999 0.88878 0.03828 0.0755 0.06958 0.16424 0.06958 0.19715 0 0.10528 0.19414 0.26227 0.35626 0.28819 0.19322 0.0309 0.22033 0.0677 0.24975 0.33959 0.05903 0.54533 0.09461 0.72735 0.16434 0.84079 0.04105 0.0668 0.08625 0.18403 0.10044 0.26054 0.01419 0.0765 0.05486 0.17644 0.09039 0.22206 0.03553 0.0457 0.09312 0.14124 0.12798 0.21249 0.03485 0.0713 0.13811 0.1966 0.22946 0.27857l0.16609 0.14905 9e-3 0.97973c0.0057 0.62172 0.02409 1.015 0.05041 1.0762 0.05623 0.13075 0.3616 0.3485 0.56548 0.40321 0.0916 0.0247 0.21592 0.0702 0.27628 0.10144 0.23734 0.12262 1.3151 0.13662 1.6297 0.0211z" stroke-width=".037009"/>
 </g>
</svg>
