<svg width="20.304mm" height="20.305mm" version="1.1" viewBox="0 0 20.304 20.305" xmlns="http://www.w3.org/2000/svg">
 <g transform="translate(-31.491 -168.4)">
  <path d="m39.409 188.63c0-0.0357-0.04188-0.0954-0.09306-0.13264l-0.09306-0.0678-0.0091-2.4458c-0.0099-2.6601-3.71e-4 -2.5334-0.19458-2.5821-0.04425-0.0111-0.15324-0.11494-0.24285-0.23134l-0.16258-0.21119-0.01192-0.31892c-0.0085-0.22611 0.0048-0.3806 0.04546-0.5309l0.05738-0.21197-0.11314-0.15803c-0.1751-0.24457-0.19853-0.3014-0.22026-0.53412-0.0362-0.38767 0.0062-0.57061 0.1815-0.78358 0.08491-0.10314 0.21152-0.21964 0.28136-0.25889 0.14797-0.0832 0.27032-0.28004 0.27032-0.43499 0-0.0597 0.03129-0.21158 0.06953-0.33748 0.09307-0.30641 0.35507-0.58019 0.63862-0.66733 0.19324-0.0594 0.49476-0.0739 0.64548-0.0312 0.0935 0.0265 0.16777-0.0174 0.36986-0.21862 0.06646-0.0662 0.18806-0.16516 0.27022-0.21996 0.14185-0.0946 0.16748-0.0996 0.50761-0.0996h0.35822l0.20304 0.142c0.11167 0.0781 0.24717 0.19812 0.3011 0.26671l0.09806 0.12471 0.26386-0.022c0.47994-0.04 0.87376 0.12488 1.0701 0.44811 0.1477 0.24312 0.17886 0.34106 0.17886 0.56221 0 0.21277 0.0051 0.22612 0.13536 0.35641 0.07445 0.0744 0.14998 0.13537 0.16784 0.13537 0.0605 0 0.28842 0.27486 0.40203 0.48484 0.10329 0.19091 0.11129 0.22637 0.09288 0.41193-0.01155 0.11649-0.04688 0.23939-0.08288 0.2883-0.03451 0.0469-0.07372 0.11983-0.08713 0.16209-0.01341 0.0423-0.08307 0.13333-0.1548 0.20239-0.17685 0.17026-0.20815 0.26329-0.14518 0.43138 0.02764 0.0738 0.05184 0.25593 0.05379 0.40483 0.0031 0.23861-0.0078 0.2908-0.09239 0.43993-0.05276 0.0931-0.13568 0.20326-0.18427 0.24489l-0.08833 0.0757-0.01692 2.5582-0.01692 2.5582-0.09306 0.0678c-0.05118 0.0373-0.09306 0.097-0.09306 0.13263 0 0.0572-0.02572 0.0649-0.21761 0.0649-0.19597 0-0.21869-7e-3 -0.22842-0.072-0.0073-0.0482-0.05671-0.0901-0.15003-0.1269-0.07657-0.0302-0.16626-0.0778-0.1993-0.10571-0.07673-0.0648-0.33272-0.21524-0.50797-0.29848-0.07471-0.0355-0.15517-0.0878-0.17879-0.11626-0.02362-0.0285-0.09193-0.0714-0.1518-0.0954-0.05987-0.024-0.15014-0.0775-0.20059-0.11877-0.05045-0.0413-0.16085-0.10151-0.24534-0.13378-0.1448-0.0553-0.16224-0.0554-0.30372-1e-3 -0.08256 0.0315-0.20648 0.10212-0.27538 0.15688-0.0689 0.0548-0.14485 0.0996-0.16878 0.0996-0.02393 0-0.08669 0.0363-0.13946 0.0807-0.05277 0.0444-0.15292 0.10453-0.22256 0.13363-0.06964 0.0291-0.12662 0.0673-0.12662 0.0848s-0.06472 0.0576-0.14382 0.089c-0.0791 0.0314-0.17496 0.0861-0.21301 0.12148-0.03805 0.0354-0.12942 0.0851-0.20304 0.1105-0.09248 0.0319-0.1372 0.0687-0.14467 0.11908-0.0098 0.066-0.03151 0.0729-0.22842 0.0729-0.19189 0-0.21761-8e-3 -0.21761-0.0649zm0.91653-1.2126c0.06025-0.0512 0.16685-0.12352 0.23689-0.16075 0.3534-0.18782 0.46205-0.25309 0.50258-0.30192 0.02438-0.0294 0.06231-0.0534 0.08431-0.0534s0.11203-0.0457 0.20008-0.10152c0.20455-0.12972 0.38258-0.13513 0.55655-0.0169 0.06848 0.0465 0.14264 0.0846 0.16481 0.0846 0.02217 0 0.08437 0.0371 0.13823 0.0824 0.05386 0.0453 0.16162 0.10789 0.23948 0.13904 0.07786 0.0311 0.14156 0.0707 0.14156 0.088 0 0.0172 0.06494 0.0592 0.1443 0.0932 0.07937 0.034 0.16363 0.0851 0.18725 0.1136s0.08814 0.0705 0.14337 0.0933c0.20711 0.0858 0.20189 0.12838 0.20189-1.6481 0-1.5526-0.01082-1.7364-0.10223-1.7364-0.01769 0-0.07218 0.0605-0.12109 0.13437-0.05799 0.0876-0.16704 0.1781-0.31351 0.26009-0.20554 0.11506-0.24755 0.12588-0.49531 0.12763-0.24772 2e-3 -0.28742-8e-3 -0.46726-0.11214-0.17178-0.0997-0.21603-0.11138-0.35126-0.0928-0.0851 0.0117-0.20697 0.0535-0.27082 0.093-0.25269 0.15617-0.67671 0.15903-0.85882 6e-3 -0.05696-0.0479-0.12994-0.0778-0.17466-0.0714l-0.07682 0.0109-0.0088 1.4851c-0.0063 1.0683 0.0019 1.498 0.02952 1.5313 0.05898 0.0711 0.14947 0.0553 0.26977-0.0469zm0.7069-3.6792c0.19708-0.20979 0.65201-0.21657 0.92975-0.0139 0.19398 0.14157 0.39189 0.13692 0.53105-0.0125 0.12056-0.12945 0.16448-0.22823 0.16448-0.36997 0-0.15241 0.20117-0.33403 0.45685-0.41245 0.54474-0.16708 0.55837-0.17911 0.55837-0.49271 0-0.11606-0.02123-0.18942-0.07437-0.25698-0.0506-0.0643-0.0788-0.15575-0.08822-0.28602-0.01355-0.18736-0.01069-0.19472 0.13359-0.34341 0.08109-0.0836 0.19496-0.17115 0.25303-0.19461 0.15155-0.0612 0.22941-0.28138 0.16182-0.45753-0.02686-0.07-0.32654-0.28352-0.43671-0.31117-0.05534-0.0139-0.11128-0.0691-0.15306-0.15095-0.03621-0.071-0.08163-0.13882-0.10094-0.15075-0.02004-0.0124-0.033-0.13315-0.03022-0.28148 0.0027-0.14288-0.01088-0.29921-0.03015-0.34739-0.04125-0.10315-0.22478-0.26612-0.30572-0.27147-0.12707-8e-3 -0.22741 0.0135-0.34145 0.0747-0.06614 0.0354-0.13424 0.0645-0.15134 0.0645-0.08679 0-0.39999-0.18271-0.45113-0.26317-0.18867-0.29685-0.35709-0.38255-0.61522-0.31304-0.1222 0.0329-0.15174 0.0594-0.20526 0.18429-0.04788 0.1117-0.10857 0.17465-0.25922 0.26888-0.10818 0.0677-0.21666 0.12304-0.24107 0.12304-0.02441 0-0.13544-0.0383-0.24672-0.0852-0.24854-0.10461-0.33885-0.0882-0.52319 0.095l-0.13536 0.13456v0.32687c0 0.40151-0.02942 0.45508-0.3449 0.62797-0.12671 0.0694-0.24561 0.15128-0.26423 0.18185-0.10411 0.17103-0.06985 0.48002 0.06619 0.59704 0.04328 0.0372 0.12104 0.1496 0.17282 0.24971 0.10146 0.19619 0.1 0.22226-0.03145 0.56247-0.06138 0.15886-0.0702 0.38707-0.01927 0.49884 0.03406 0.0747 0.28843 0.19489 0.41262 0.19489 0.11473 0 0.36065 0.14132 0.42719 0.24549 0.03859 0.0604 0.08492 0.13268 0.10296 0.1606 0.01804 0.0279 0.04181 0.10727 0.05283 0.17635 0.01209 0.0758 0.06083 0.16638 0.12287 0.22842 0.08568 0.0857 0.12965 0.10284 0.26354 0.10284 0.12716 0 0.1771-0.0175 0.23926-0.0836zm-9.2545 1.6752c-0.03722-0.0157-0.09418-0.0604-0.12657-0.0994-0.03239-0.039-0.08188-0.0709-0.10998-0.0709-0.04542 0-0.05109-0.92315-0.05109-8.3211v-8.3211l0.08086-0.0203c0.049-0.0123 0.08925-0.0537 0.10217-0.10519l0.02131-0.0849h9.9485c9.5575 0 9.9485 2e-3 9.9485 0.0609 0 0.078 0.06417 0.14213 0.14213 0.14213 0.05849 0 0.06091 0.33089 0.06091 8.3248 0 7.2747-0.0062 8.3248-0.04939 8.3248-0.02717 0-0.08822 0.0419-0.13568 0.0931l-0.08628 0.0931-3.2697 9e-3c-2.4048 7e-3 -3.282-1e-3 -3.3161-0.0295-0.06499-0.0539-0.06569-0.68269-7.67e-4 -0.73652 0.03261-0.0271 0.89522-0.0403 3.0372-0.0465l2.9917-9e-3v-15.398h-18.646v15.398l2.9917 9e-3c2.142 6e-3 3.0046 0.0194 3.0372 0.0464 0.06012 0.0499 0.06432 0.67402 0.0049 0.7334-0.03105 0.031-0.80187 0.0401-3.2741 0.0385-1.7784-1e-3 -3.2639-0.015-3.3012-0.0306zm3.8138-8.5357c-0.05531-0.0553-0.05531-0.67564 0-0.73096 0.05907-0.0591 12.042-0.0591 12.101 0 0.05531 0.0553 0.05531 0.67565 0 0.73096-0.05907 0.0591-12.042 0.0591-12.101 0zm0-2.0304c-0.05531-0.0553-0.05531-0.67564 0-0.73096 0.05907-0.0591 12.042-0.0591 12.101 0 0.05531 0.0553 0.05531 0.67565 0 0.73096-0.05907 0.0591-12.042 0.0591-12.101 0zm0-2.0304c-0.05531-0.0553-0.05531-0.67564 0-0.73095 0.05907-0.0591 12.042-0.0591 12.101 0 0.05531 0.0553 0.05531 0.67564 0 0.73095-0.05907 0.0591-12.042 0.0591-12.101 0z" stroke-width=".033841"/>
 </g>
</svg>
