<svg width="14.957mm" height="13.982mm" version="1.1" viewBox="0 0 14.957 13.982" xmlns="http://www.w3.org/2000/svg">
 <g transform="translate(-57.206 -155.22)">
  <path d="m57.206 166.8c0-1.8353 0.0077-2.4139 0.03252-2.4387 0.04712-0.0471 4.4401-0.0471 4.4872 0 0.02479 0.0248 0.03252 0.60336 0.03252 2.4387v2.4062h-4.5522zm3.8883-0.0325v-1.7748h-3.2245l-7e-3 1.7477c-0.0041 0.96125-0.0012 1.7631 6e-3 1.7818 0.01031 0.027 0.34868 0.0327 1.6193 0.0271l1.6062-7e-3zm1.3142-1.7558c0-3.2263 0.0075-4.202 0.03252-4.227 0.04712-0.0471 4.4401-0.0471 4.4872 0 0.02504 0.0251 0.03252 1.0008 0.03252 4.227v4.1945h-4.5522zm3.8883-0.0325v-3.5632h-3.2245l-0.0069 3.5361c-0.0041 1.9448-0.0012 3.5514 6e-3 3.5702 0.01025 0.027 0.34861 0.0327 1.6192 0.0271l1.6062-7e-3zm1.3142-2.081c0-4.8701 0.0074-6.3155 0.03252-6.3406 0.04712-0.0471 4.4401-0.0471 4.4872 0 0.02509 0.0251 0.03252 1.4704 0.03252 6.3406v6.308h-4.5522zm3.8883-0.0325v-5.6767h-3.2245l-0.0069 5.6496c-0.0035 3.1073-0.0012 5.665 6e-3 5.6837 0.01025 0.027 0.34858 0.0327 1.6192 0.0271l1.6062-7e-3zm-14.179-0.93483c-0.11452-0.11452-0.12101-0.12883-0.10673-0.23529 0.01455-0.10847 0.13669-0.23482 2.8348-2.9322 1.9459-1.9454 2.8109-2.8275 2.7915-2.8469-0.01797-0.018-0.41676-0.033-1.1091-0.0417l-1.0811-0.0136-0.0963-0.0933c-0.08301-0.0805-0.09619-0.11041-0.09545-0.21677 0.0012-0.1321 0.0225-0.17169 0.14505-0.26628l0.07816-0.0603h1.6459c1.3664 0 1.6512 7e-3 1.6769 0.0375 0.02273 0.0274 0.02904 0.47666 0.02362 1.6819l-0.0074 1.6446-0.1141 0.10643c-0.153 0.1427-0.24199 0.14271-0.395 2e-5l-0.11411-0.10641-0.01461-1.0791c-0.0081-0.59348-0.0172-1.0821-0.02033-1.0858-0.01496-0.0178-0.11409-4e-3 -0.11409 0.0158 0 0.0176-5.2909 5.3167-5.5013 5.5098-0.15656 0.14373-0.26929 0.13889-0.42646-0.0182z" stroke-width=".027096"/>
 </g>
</svg>
