<svg width="13.405mm" height="13.727mm" version="1.1" viewBox="0 0 13.405 13.727" xmlns="http://www.w3.org/2000/svg">
 <g transform="translate(-58.181 -155.45)">
  <path d="m70.721 169.15c-0.02554-0.0149-0.92858-0.90712-2.0067-1.9828-1.0782-1.0757-1.9876-1.9662-2.021-1.9789-0.1022-0.039-0.15027-0.0268-0.27004 0.0684-0.06335 0.0504-0.12903 0.0916-0.14595 0.0918-0.01693 1e-4 -0.06414 0.0281-0.10493 0.062-0.04078 0.034-0.11747 0.0759-0.17042 0.0932-0.05295 0.0172-0.11044 0.0485-0.12775 0.0693-0.01731 0.0208-0.08613 0.0542-0.15293 0.0743-0.0668 0.02-0.17929 0.0672-0.24997 0.10502-0.07068 0.0378-0.15331 0.0689-0.18362 0.0693-0.03031 3e-4 -0.12594 0.0301-0.21251 0.0661-0.08657 0.036-0.24592 0.0775-0.35413 0.0923-0.10821 0.0148-0.24969 0.0443-0.31441 0.0656-0.31383 0.10339-1.3014 0.10963-1.7186 0.0108-0.11542-0.0273-0.29839-0.0632-0.4066-0.0797s-0.24542-0.052-0.30491-0.0789c-0.05949-0.0269-0.16535-0.0617-0.23524-0.0773-0.06989-0.0156-0.1648-0.0518-0.21091-0.0803s-0.14246-0.0692-0.21412-0.0905c-0.07165-0.0213-0.14444-0.0558-0.16175-0.0766-0.01731-0.0208-0.07479-0.0518-0.12774-0.0687-0.05295-0.0169-0.11988-0.0518-0.14874-0.0775-0.02885-0.0258-0.09378-0.0656-0.14428-0.0888-0.143-0.0655-0.23785-0.13431-0.60334-0.43752-0.29685-0.24626-0.40411-0.35234-0.66072-0.65342-0.36261-0.42544-0.43705-0.5252-0.50891-0.68203-0.02314-0.0505-0.06309-0.11542-0.08879-0.14427-0.02569-0.0289-0.06058-0.0958-0.07752-0.14874-0.01694-0.0529-0.04787-0.11044-0.06873-0.12774-0.02085-0.0173-0.05428-0.0861-0.07427-0.15294-0.01999-0.0668-0.06725-0.17929-0.10501-0.24996-0.03776-0.0707-0.06866-0.15072-0.06866-0.17786 0-0.0272-0.02838-0.11687-0.06306-0.1994-0.03468-0.0825-0.07124-0.20906-0.08124-0.2812-0.01-0.0721-0.04838-0.26101-0.08532-0.41971-0.0615-0.2643-0.06714-0.33817-0.06714-0.87877s0.0057-0.61448 0.06714-0.87878c0.03693-0.1587 0.07532-0.34757 0.08532-0.4197 0.01-0.0721 0.04655-0.19868 0.08124-0.28121 0.03469-0.0825 0.06306-0.17225 0.06306-0.19939 0-0.0272 0.02759-0.10127 0.06132-0.16474 0.03373-0.0634 0.08159-0.17646 0.10637-0.25109 0.02477-0.0747 0.0615-0.14935 0.08161-0.16605 0.02012-0.0167 0.05043-0.0737 0.06737-0.12662 0.01694-0.0529 0.05183-0.11988 0.07752-0.14873 0.0257-0.0289 0.06565-0.0938 0.08879-0.14428 0.04269-0.0932 0.12648-0.22207 0.22167-0.34102 0.25191-0.31478 0.5561-0.65052 0.72631-0.80164 0.11278-0.10013 0.23844-0.21156 0.27925-0.24764 0.16315-0.14419 0.42312-0.32648 0.54574-0.38267 0.0505-0.0231 0.11542-0.063 0.14428-0.0884 0.02885-0.0255 0.09135-0.0593 0.13888-0.0753 0.04753-0.0159 0.11835-0.0513 0.15739-0.0787 0.03904-0.0274 0.11814-0.0651 0.17578-0.0838 0.05764-0.0187 0.15678-0.0617 0.22032-0.0954 0.06354-0.0338 0.13773-0.0614 0.16487-0.0614 0.02714 0 0.11687-0.0284 0.19939-0.063 0.08253-0.0346 0.20906-0.0713 0.2812-0.0812 0.07214-0.01 0.26101-0.0484 0.41971-0.0853 0.26429-0.0615 0.33817-0.0671 0.87877-0.0671s0.61448 6e-3 0.87877 0.0671c0.1587 0.0369 0.34758 0.0754 0.41971 0.0853 0.07214 0.01 0.19868 0.0466 0.2812 0.0812 0.08253 0.0346 0.17225 0.063 0.19939 0.063 0.02714 0 0.10376 0.0289 0.17026 0.0643s0.17123 0.0778 0.23272 0.0944c0.0615 0.0166 0.14431 0.0574 0.18404 0.0909 0.03973 0.0334 0.10711 0.0684 0.14974 0.0778 0.04264 9e-3 0.09291 0.0356 0.11174 0.0583 0.01883 0.0226 0.08162 0.0634 0.13953 0.0905 0.10902 0.051 0.24097 0.1366 0.3545 0.2299 0.03607 0.0296 0.12459 0.0983 0.19671 0.15264 0.16189 0.12192 0.72548 0.68704 0.85952 0.86186 0.05432 0.0708 0.12301 0.1583 0.15265 0.19436 0.09199 0.11196 0.17921 0.24528 0.22308 0.34102 0.02314 0.0505 0.06309 0.11542 0.08879 0.14428 0.0257 0.0289 0.06058 0.0958 0.07753 0.14873 0.01695 0.0529 0.04787 0.11044 0.06872 0.12775 0.02085 0.0173 0.05533 0.0901 0.07661 0.16175 0.02128 0.0717 0.062 0.168 0.09051 0.21411 0.0285 0.0461 0.06463 0.14103 0.08029 0.21092 0.01567 0.0699 0.05048 0.17575 0.07738 0.23524 0.02689 0.0594 0.0624 0.19671 0.07891 0.30491s0.05494 0.29707 0.08542 0.41972c0.04811 0.19356 0.05543 0.30078 0.05559 0.81318 1.98e-4 0.54339-0.0052 0.61311-0.06767 0.87877-0.03733 0.1587-0.07475 0.34715-0.08316 0.41874-0.0084 0.0716-0.03726 0.17232-0.0641 0.22383-0.02684 0.0515-0.06246 0.15729-0.07915 0.23511-0.01669 0.0778-0.05397 0.1797-0.08284 0.22642-0.02887 0.0468-0.06991 0.14356-0.09118 0.21521-0.02128 0.0717-0.05576 0.14445-0.07661 0.16176-0.02085 0.0173-0.05183 0.0748-0.06881 0.12774-0.01699 0.0529-0.05006 0.11812-0.07348 0.14481-0.02343 0.0267-0.0662 0.0929-0.09505 0.14694-0.09678 0.18155-0.15659 0.26984-0.29546 0.43618-0.24228 0.29019-0.43974 0.0403 1.8129 2.2936 1.3684 1.3688 1.9862 2.0039 1.9991 2.0554 0.01736 0.0692-0.0079 0.10097-0.35831 0.45207-0.20734 0.20772-0.39485 0.37731-0.41668 0.37687-0.02183-4e-4 -0.06058-0.013-0.08613-0.0278zm-6.2756-3.7324c0.12975-0.0379 0.27235-0.0688 0.3169-0.0688 0.04455 0 0.13906-0.0296 0.21004-0.0659 0.07098-0.0363 0.17407-0.0733 0.22909-0.0824 0.05503-9e-3 0.14036-0.0438 0.18964-0.0772 0.04928-0.0334 0.13656-0.0735 0.19396-0.0889 0.0574-0.0154 0.11227-0.0409 0.12194-0.0565 0.0097-0.0156 0.07804-0.0569 0.15194-0.0917 0.0739-0.0347 0.18158-0.0988 0.23929-0.14228 0.05771-0.0435 0.15214-0.11057 0.20986-0.14914 0.3213-0.21467 0.80197-0.69535 1.0166-1.0166 0.03856-0.0577 0.10567-0.15214 0.14914-0.20985 0.04347-0.0577 0.10749-0.16539 0.14228-0.23929 0.03479-0.0739 0.07606-0.14227 0.0917-0.15194 0.01565-0.01 0.04109-0.0646 0.05655-0.12194 0.01546-0.0574 0.05546-0.14468 0.08891-0.19396 0.03344-0.0493 0.0682-0.13462 0.07724-0.18964 0.0091-0.055 0.04608-0.15811 0.08232-0.22909 0.03623-0.071 0.06588-0.16117 0.06588-0.20043 0-0.0393 0.03225-0.18776 0.07166-0.33001 0.06942-0.25056 0.07166-0.27952 0.07166-0.92755 0-0.64804-0.0022-0.67699-0.07166-0.92755-0.03941-0.14225-0.07166-0.28782-0.07166-0.3235 0-0.0357-0.03541-0.14555-0.07869-0.24417-0.04328-0.0986-0.07869-0.20224-0.07869-0.23027 0-0.028-0.02899-0.0937-0.06443-0.1459-0.03543-0.0522-0.07706-0.1419-0.09252-0.19929-0.01546-0.0574-0.0409-0.11227-0.05655-0.12194-0.01565-0.01-0.05696-0.078-0.09181-0.15195-0.06316-0.13391-0.15456-0.27852-0.22874-0.3619-0.02149-0.0241-0.05244-0.0689-0.06878-0.0994-0.04626-0.0864-0.33393-0.4159-0.52762-0.60427-0.19378-0.18846-0.2744-0.25552-0.43034-0.35799-0.05772-0.038-0.12264-0.0854-0.14428-0.10541-0.07091-0.0657-0.22057-0.16352-0.35413-0.2314-0.07214-0.0366-0.16067-0.0824-0.19674-0.10158-0.24846-0.13228-0.39574-0.20044-0.43313-0.20044-0.02385 0-0.12405-0.0354-0.22267-0.0787-0.09862-0.0433-0.20849-0.0787-0.24417-0.0787-0.03568 0-0.18125-0.0323-0.3235-0.0717-0.25056-0.0694-0.27952-0.0717-0.92755-0.0717-0.64803 0-0.67699 2e-3 -0.92755 0.0717-0.14225 0.0395-0.2898 0.0718-0.3279 0.072-0.03809 9e-5 -0.1333 0.0301-0.21156 0.0665-0.07827 0.0364-0.19612 0.0783-0.2619 0.093-0.06578 0.0148-0.13808 0.0436-0.16067 0.064s-0.09302 0.0555-0.15651 0.0779c-0.06349 0.0224-0.13373 0.0567-0.15609 0.0763-0.02236 0.0196-0.09377 0.0622-0.1587 0.0947-0.06492 0.0325-0.12395 0.0677-0.13116 0.0782-0.0072 0.0106-0.06328 0.0446-0.1246 0.0757-0.06131 0.0311-0.11148 0.0662-0.11148 0.078s-0.02825 0.0344-0.06276 0.0501c-0.0703 0.032-0.39306 0.30259-0.55391 0.46432-0.1458 0.14659-0.38628 0.43093-0.44439 0.52544-0.02662 0.0433-0.06469 0.0964-0.08462 0.11804-0.07038 0.0765-0.16576 0.2244-0.21984 0.34102-0.03011 0.0649-0.0713 0.13633-0.09153 0.15869-0.02023 0.0223-0.05511 0.0926-0.07751 0.15609-0.0224 0.0635-0.05693 0.13373-0.07673 0.15609-0.0198 0.0223-0.05345 0.10558-0.07476 0.18492-0.02132 0.0793-0.06265 0.20331-0.09184 0.27544-0.02919 0.0721-0.07249 0.2256-0.09622 0.34102-0.12534 0.60975-0.12294 0.58403-0.11108 1.1936 0.01051 0.53988 0.01735 0.61034 0.08022 0.82612 0.03781 0.12976 0.06874 0.26943 0.06874 0.3104 0 0.041 0.03541 0.15516 0.07869 0.25378 0.04328 0.0986 0.07869 0.19881 0.07869 0.22266 0 0.0374 0.06816 0.18468 0.20044 0.43313 0.01921 0.0361 0.06491 0.12461 0.10158 0.19675 0.06757 0.13292 0.16515 0.28243 0.23115 0.35413 0.01993 0.0216 0.058 0.0748 0.08462 0.11804 0.16439 0.26734 0.72199 0.8206 0.98893 0.98125 0.0541 0.0326 0.09837 0.0686 0.09837 0.0801s0.03642 0.036 0.08093 0.0544c0.04451 0.0185 0.09552 0.0481 0.11335 0.066 0.02862 0.0286 0.14732 0.0971 0.35659 0.20574 0.29594 0.15363 0.39564 0.19956 0.43313 0.19956 0.02385 0 0.12405 0.0354 0.22267 0.0787 0.09862 0.0433 0.21297 0.0787 0.25413 0.0787 0.04116 0 0.16312 0.0247 0.27104 0.055 0.32869 0.0921 0.41023 0.0992 1.0488 0.0908 0.57479-8e-3 0.63239-0.0128 0.85236-0.077z" stroke-width=".026232"/>
 </g>
</svg>
