<svg width="138.2mm" height="119.45mm" version="1.1" viewBox="0 0 138.2 119.45" xmlns="http://www.w3.org/2000/svg">
 <g transform="translate(-80.599 -107.24)">
  <path d="m131.37 225.39c-0.273-0.7114 0.15781-3.6248 0.95734-6.4744l1.4537-5.1809-4.9274-4.3953c-3.3276-2.9682-4.6543-4.6767-4.0861-5.262 4.1864-1.4024 7.7594-1.1718 12.323-1.373l2.2787-5.4689c1.3273-3.1856 2.7904-5.4689 3.5044-5.4689 0.72402 0 2.1184 2.2385 3.4066 5.4689l2.1808 5.4689 4.5599 0.21811c9.8837 0.47275 10.458 1.5202 3.7185 6.7837-2.5452 1.9878-4.6275 3.9104-4.6275 4.2724 0 0.36203 0.56382 2.5168 1.2529 4.7885 1.4749 4.862 1.623 7.9164 0.38363 7.9164-0.48815 0-3.0755-1.4858-5.7496-3.3018l-4.8621-3.3018-5.222 3.3018c-5.9566 3.7663-5.8794 3.7426-6.5449 2.0083zm9.4927-7.9722c1.572-0.97301 2.2856-0.81989 5.8129 1.2473 2.8561 1.6738 3.8747 1.9752 3.516 1.0404-0.27777-0.72387-0.76161-2.6838-1.0752-4.3553-0.52173-2.7811-0.29372-3.2833 2.6851-5.9143l3.2553-2.8752-3.7862-0.0479c-4.8039-0.0608-5.3703-0.47406-6.8646-5.0085l-1.2274-3.7243-2.0539 4.145c-1.9795 3.9948-2.2044 4.1603-6.207 4.5657l-4.1531 0.42069 3.1911 2.425c2.9516 2.243 3.1529 2.6638 2.6825 5.6057-0.27973 1.7494-0.77517 3.8753-1.101 4.7243-0.55725 1.4522-0.47009 1.4641 1.4706 0.20214 1.1346-0.73783 2.8693-1.8406 3.8549-2.4507zm-60.267 1.959c0-3.6664 3.1731-9.1728 6.5514-11.369 1.7184-1.117 5.2067-2.9089 7.7519-3.982 7.521-3.1711 9.2551-4.736 9.2551-8.3525 0-1.7216-0.75723-4.6156-1.6827-6.4309-0.92551-1.8153-1.6827-3.7885-1.6827-4.3848s-0.36342-1.0842-0.8076-1.0842c-1.2903 0-2.8747-6.3142-1.9839-7.9061 0.47397-0.84695 0.47504-3.4296 0.0029-6.627-1.7847-12.082 4.6484-19.94 16.339-19.958 4.408-7e-3 13.306 4.9514 15.281 8.5145 1.3007 2.3472 1.488 3.933 1.0811 9.1496-0.27076 3.4706-0.48143 6.8782-0.46813 7.5723 0.0133 0.69414 0.0563 2.5168 0.0957 4.0503 0.0393 1.5335-0.48532 3.4266-1.1659 4.2068-0.68058 0.78025-1.6915 2.8332-2.2466 4.5621-0.55501 1.7289-1.3862 3.3764-1.847 3.6612-0.46081 0.28479-0.73454 2.4638-0.60831 4.8421 0.21619 4.073 0.0656 4.4348-2.5907 6.2249-3.1177 2.101-9.3183 2.5622-13.87 1.0317-2.3145-0.77823-3.5045-0.40069-11.415 3.6214-6.3067 3.2065-9.3736 5.2945-10.727 7.3035-1.0428 1.5473-1.8959 3.1359-1.8959 3.5302 0 0.39432 10.033 0.71695 22.296 0.71695 21.735 0 22.296 0.0423 22.296 1.6827 0 1.6434-0.56092 1.6827-23.979 1.6827h-23.979zm38.758-19.647c1.2174-0.65153 1.6274-1.7726 1.6274-4.4496 0-1.9683 0.75723-5.0639 1.6827-6.8793 0.9255-1.8153 1.6827-3.959 1.6827-4.7636 0-0.80466 0.50182-1.7658 1.1152-2.1359 1.6615-1.0025 2.4047-3.6799 1.3681-4.9289-0.64858-0.7815-0.65411-2.0241-0.0192-4.3106 1.5004-5.4032 1.133-11.526-0.84235-14.037-0.95909-1.2193-2.3192-2.2169-3.0224-2.2169s-2.2413-0.75724-3.4179-1.6827c-2.7199-2.1395-7.9025-2.1732-12.508-0.0814-5.4268 2.4646-7.3661 8.8637-5.344 17.634 0.5997 2.6009 0.57347 3.998-0.0901 4.7975-1.1374 1.3705-0.35152 4.2424 1.3383 4.8908 0.67651 0.25961 1.2314 1.3358 1.2332 2.3915 2e-3 1.0557 0.75897 3.1592 1.6828 4.6743 1.0106 1.6576 1.6796 4.238 1.6796 6.4788 0 2.6591 0.42106 3.9693 1.4724 4.5816 1.9274 1.1226 8.2917 1.1458 10.362 0.0377zm31.603-21.801c-0.2942-0.30292-0.37218-0.46858-0.37089-0.78796 5.7e-4 -0.22242 0.0461-0.47484 0.10062-0.56094 0.20867-0.32995 0.99888-1.1739 1.0992-1.1739 0.19893 0 1.8321-1.5228 2.5338-2.3626 0.21043-0.25182 0.44087-0.63511 0.51208-0.85176 0.0713-0.21664 0.2415-0.55893 0.37839-0.76067 0.33469-0.49318 0.3609-0.59507 0.53483-2.0791 0.17167-1.4647 0.10841-3.7299-0.11259-4.0324-0.12255-0.16776-0.51412-0.18899-4.3788-0.23746l-4.2442-0.0532-0.54321-0.282c-0.29877-0.15511-0.81062-0.35975-1.1375-0.45477-0.32685-0.095-0.67893-0.25829-0.78241-0.36282-0.10348-0.10454-0.43827-0.34707-0.74398-0.53896-0.64949-0.40767-1.6476-1.4498-1.9429-2.0286-0.11344-0.22236-0.27815-0.43188-0.36601-0.46559-0.0879-0.0337-0.23971-0.33898-0.33745-0.67834-0.0977-0.33937-0.29358-0.84742-0.4352-1.129-0.18774-0.37324-0.284-0.8058-0.35531-1.5965-0.12876-1.4276-0.12876-41.293 0-42.72 0.0713-0.79071 0.16757-1.2233 0.35531-1.5965 0.14162-0.28158 0.33746-0.78962 0.4352-1.129 0.0977-0.33937 0.24959-0.64462 0.33745-0.67833 0.0879-0.0337 0.25949-0.25681 0.3814-0.49577 0.29285-0.57404 1.2601-1.5782 1.9381-2.0121 0.29887-0.19123 0.62499-0.42888 0.7247-0.5281 0.0997-0.0992 0.4167-0.25031 0.70444-0.33575 0.28774-0.0854 0.80526-0.29164 1.15-0.45821l0.62686-0.30284h65.04l0.54356 0.282c0.29896 0.15511 0.81099 0.35976 1.1378 0.45477 0.32685 0.095 0.67893 0.25829 0.78241 0.36283 0.10348 0.10453 0.43827 0.34706 0.74399 0.53896 0.6181 0.38796 1.6406 1.4387 1.9078 1.9606 0.0954 0.18637 0.2812 0.44775 0.41282 0.58084 0.1316 0.13309 0.29566 0.46584 0.36454 0.73944 0.0689 0.27361 0.2466 0.75395 0.39491 1.0674 0.19304 0.40807 0.29585 0.86314 0.36189 1.6021 0.12044 1.3473 0.12044 41.268 0 42.615-0.0661 0.73894-0.16885 1.194-0.36189 1.6021-0.14831 0.31348-0.32601 0.79383-0.39491 1.0674s-0.23294 0.60636-0.36454 0.73944c-0.13162 0.1331-0.31603 0.39186-0.40981 0.57503-0.27267 0.53255-1.2458 1.5339-1.8813 1.9357-0.32196 0.20359-0.67005 0.45782-0.77353 0.56498-0.10348 0.10715-0.4627 0.27413-0.79825 0.37107-0.33556 0.0969-0.84958 0.30159-1.1423 0.45477l-0.53218 0.2785-20.009 0.0544c-11.005 0.03-20.02 0.0659-20.034 0.0798-0.0135 0.0139-0.12779 0.22894-0.2541 0.47772-0.12632 0.24879-0.31592 0.56282-0.42135 0.69784-0.10542 0.13502-0.26804 0.47538-0.36136 0.75635-0.0933 0.28098-0.28629 0.62041-0.42881 0.7543-0.14252 0.1339-0.33699 0.47785-0.43215 0.76435-0.0952 0.2865-0.28093 0.59161-0.4128 0.67802-0.13189 0.0864-0.29865 0.2863-0.3706 0.4442-0.072 0.15789-0.27394 0.45656-0.44888 0.66372-0.17494 0.20715-0.61547 0.73585-0.97896 1.1749-0.93583 1.1303-2.6775 2.7082-3.3049 2.9941-0.15128 0.0689-0.34706 0.23521-0.43505 0.36951-0.088 0.13431-0.36407 0.3355-0.61349 0.4471-0.24941 0.11159-0.54293 0.30366-0.65225 0.42682-0.10934 0.12316-0.4446 0.30478-0.74504 0.4036-0.30044 0.0988-0.68116 0.29197-0.84603 0.42922-0.16487 0.13724-0.57198 0.32379-0.90468 0.41456-0.33271 0.0908-0.89229 0.30588-1.2435 0.47803-0.38814 0.19025-0.95168 0.35494-1.4368 0.41991-1.1138 0.14917-1.1227 0.1728-1.6864 0.24182-0.85501 0.10469-1.224 0.12183-2.571 0.26123-1.6746-0.15408-1.9787-0.16086-2.5012-0.53147zm7.7501-3.5284c0.2234-0.0797 0.49084-0.22147 0.5943-0.31511 0.10347-0.0936 0.44368-0.24614 0.75603-0.3389 0.31234-0.0928 0.73938-0.30111 0.94899-0.463 0.2096-0.16189 0.54871-0.35672 0.7536-0.43293 0.20489-0.0762 0.53363-0.29869 0.73057-0.49441 0.19692-0.19572 0.41241-0.35585 0.47886-0.35585 0.0665 0 0.26456-0.14105 0.44022-0.31345 0.17564-0.17239 0.77437-0.75973 1.3305-1.3052 0.55612-0.54548 1.1031-1.1348 1.2155-1.3097 0.11241-0.17484 0.29228-0.38067 0.39974-0.4574 0.10746-0.0768 0.27358-0.29225 0.36917-0.47896 0.0956-0.18669 0.30578-0.491 0.46708-0.67622 0.1613-0.18523 0.35202-0.5205 0.42382-0.74503 0.0718-0.22454 0.24677-0.533 0.38884-0.68545 0.14208-0.15246 0.34686-0.56965 0.45508-0.9271 0.10823-0.35744 0.29839-0.77907 0.42257-0.93695 0.12419-0.15788 0.29749-0.53365 0.3851-0.83503 0.11285-0.3882 0.29983-0.68589 0.64122-1.021l0.48191-0.47297 41.25-0.1064 0.64661-0.39913c0.35564-0.21951 0.69952-0.39912 0.76419-0.39912 0.26354 0 1.3806-1.269 1.827-2.0755l0.47129-0.85146v-43.744l-0.47129-0.85146c-0.44637-0.80644-1.5635-2.0754-1.827-2.0754-0.0646 0-0.40858-0.17961-0.76423-0.39913l-0.64662-0.39913h-64.195l-0.53216 0.31747c-0.29269 0.17461-0.6998 0.39947-0.90469 0.49968-0.76261 0.37304-2.003 2.0364-2.2414 3.0056-0.0703 0.28577-0.0966 7.8322-0.0769 22.041 0.0264 18.973 0.0495 21.64 0.18966 21.884 0.0878 0.15311 0.29744 0.53627 0.46586 0.85147 0.30389 0.56875 1.4472 1.7971 1.6728 1.7971 0.0647 0 0.40849 0.17961 0.76403 0.39912l0.64643 0.39913 10.501 0.1064 1.0283 1.0727 0.13285 1.6206c0.16137 1.9686 0.16547 3.4025 0.0143 5.023-0.14921 1.6002-0.18193 1.7373-0.60492 2.5346-0.19727 0.37183-0.35866 0.76774-0.35866 0.87978 0 0.11205-0.16763 0.38928-0.37252 0.61606-0.20488 0.22677-0.37252 0.48077-0.37252 0.5644 0 0.4095 0.56618 0.5189 1.3109 0.25332zm2.7868-33.259c-1.0996-0.22457-3.0812-1.6312-3.3001-2.3425-0.0441-0.14314-0.22955-0.50235-0.41223-0.79825-0.3255-0.52723-0.33214-0.56463-0.33214-1.8684l2e-5 -1.3304 0.46362-0.85135c0.54379-0.99855 1.2964-1.7929 2.0699-2.1848 0.30416-0.1541 0.72064-0.37156 0.92553-0.48326 0.302-0.16465 0.59413-0.20334 1.5433-0.20442 1.0229-8e-4 1.2246 0.0293 1.5965 0.24039 0.23415 0.13293 0.69606 0.36609 1.0265 0.51812 0.33041 0.15203 0.65897 0.38523 0.73015 0.51822 0.0712 0.13299 0.24265 0.3024 0.38107 0.37648 0.15651 0.0838 0.45387 0.54263 0.78653 1.2137l0.53488 1.079-5.8e-4 1.1129c-5.8e-4 1.1084-3e-3 1.1169-0.48396 2.0708-0.2658 0.52685-0.64097 1.1041-0.83371 1.2827-0.19273 0.17866-0.39404 0.40176-0.44733 0.49577-0.0533 0.094-0.36034 0.29453-0.68229 0.44558-0.32197 0.15106-0.75972 0.37295-0.9728 0.4931-0.43767 0.24679-1.8621 0.36576-2.5927 0.21653zm2.11-3.8317c0.54639-0.52121 0.55086-0.53079 0.55086-1.1774s-5e-3 -0.65623-0.55086-1.1774c-0.52694-0.50266-0.57698-0.52548-1.1521-0.52548-0.57483 0-0.6253 0.023-1.1503 0.52379-0.54499 0.51989-0.54908 0.52868-0.54908 1.1791s4e-3 0.65925 0.54908 1.1792c0.52501 0.50081 0.57548 0.52378 1.1503 0.52378 0.57509 0 0.62513-0.0228 1.1521-0.52548zm14.919 3.8207c-0.66921-0.13735-2.0033-0.88711-2.5484-1.4322-0.27326-0.27326-0.71804-0.91198-0.98841-1.4194l-0.49158-0.92257 4e-3 -2.448 0.47242-0.90485c0.60456-1.1579 1.2774-1.8308 2.4354-2.4354l0.90484-0.47243 2.448-4e-3 0.91295 0.48654c1.011 0.53878 1.8882 1.3216 2.1204 1.8921 0.0834 0.20488 0.29664 0.60705 0.47394 0.8937 0.31082 0.50253 0.32236 0.56579 0.32236 1.7671 0 1.2013-0.0116 1.2646-0.32236 1.7671-0.1773 0.28665-0.39106 0.68854-0.47503 0.89309-0.19732 0.48064-1.1185 1.4006-1.596 1.5938-0.20455 0.0828-0.54066 0.26026-0.74691 0.39438-0.62821 0.4085-1.898 0.56032-2.9244 0.34965zm2.1768-3.8324c0.52598-0.52598 0.53724-0.55062 0.53724-1.1758 0-0.6236-0.0124-0.651-0.5271-1.1657-0.51653-0.51655-0.54009-0.5271-1.1758-0.5271-0.63574 0-0.6593 0.0105-1.1758 0.5271-0.51654 0.51654-0.5271 0.54009-0.5271 1.1758s0.0105 0.6593 0.5271 1.1758c0.51471 0.51471 0.54211 0.52709 1.1657 0.52709 0.62521 0 0.64986-0.0112 1.1758-0.53723zm14.834 3.839c-0.24426-0.0522-0.62742-0.21462-0.85146-0.36097-0.22405-0.14634-0.60415-0.34355-0.84468-0.43824-0.24053-0.0947-0.49725-0.28413-0.57049-0.42098-0.0733-0.13685-0.24642-0.30943-0.38483-0.3835-0.15651-0.0838-0.45387-0.54263-0.78653-1.2137l-0.53488-1.079v-2.2259l0.51037-1.0111c0.5762-1.1415 1.175-1.804 1.9891-2.2006 0.29366-0.14304 0.72549-0.36447 0.95965-0.49205 0.59314-0.32318 2.5665-0.34113 3.1398-0.0286 0.20489 0.1117 0.61496 0.32664 0.91126 0.47762 0.67332 0.34312 1.588 1.2341 1.8084 1.7616 0.0918 0.2198 0.29578 0.59427 0.4532 0.83217 0.2728 0.41221 0.28623 0.4957 0.28623 1.7785 0 1.2828-0.0135 1.3663-0.28623 1.7785-0.15742 0.23789-0.36137 0.61237-0.4532 0.83217-0.26013 0.62254-1.1413 1.4091-2.1622 1.93-0.82371 0.42031-1.0054 0.47132-1.827 0.51285-0.50178 0.0254-1.1122 3e-3 -1.3564-0.0488zm2.233-3.8256c0.545-0.5199 0.54909-0.52869 0.54909-1.1792s-4e-3 -0.65925-0.54909-1.1791c-0.525-0.50082-0.57547-0.52379-1.1503-0.52379-0.57509 0-0.62513 0.0228-1.1521 0.52548-0.54638 0.52122-0.55086 0.53079-0.55086 1.1774s5e-3 0.65624 0.55086 1.1774c0.52694 0.50266 0.57698 0.52548 1.1521 0.52548 0.57483 0 0.6253-0.023 1.1503-0.52378z" stroke-width=".84137"/>
 </g>
</svg>
