<svg width="20.581mm" height="20.581mm" version="1.1" viewBox="0 0 20.581 20.581" xmlns="http://www.w3.org/2000/svg">
 <g transform="translate(-98.803 -92.288)">
  <g transform="matrix(.19844 0 0 .19844 101.18 84.464)" fill="#fff">
   <g transform="matrix(5.7619 0 0 5.7619 -29.286 22.143)" fill="#000">
    <rect width="24" height="24" fill="none"/>
    <path transform="matrix(.2314 0 0 .2314 -83.413 -77.715)" d="m395.04 348.8c-2.3768 0-4.3203 1.9455-4.3203 4.3223v4.3223h-8.6426c-4.7536 0-8.6445 3.889-8.6445 8.6426v4.3203c0 11.02 8.2987 20.008 18.973 21.348 2.7225 6.4821 8.5557 11.367 15.6 12.793v13.396h-12.965c-2.3768 0-4.3203 1.9435-4.3203 4.3203 0 2.3768 1.9435 4.3223 4.3203 4.3223h34.572c2.3768 0 4.3203-1.9455 4.3203-4.3223 0-2.3768-1.9435-4.3203-4.3203-4.3203h-12.965v-13.396c7.0439-1.4261 12.879-6.3108 15.602-12.793 10.674-1.3396 18.971-10.328 18.971-21.348v-4.3203c0-4.7536-3.889-8.6426-8.6426-8.6426h-8.6445v-4.3223c0-2.3768-1.9435-4.3223-4.3203-4.3223zm2.5859 4.7363h29.547c1.3291 0 2.3984 1.0693 2.3984 2.3984v20.281s0.0223 3.8502 0.0293 5.7168c-3.1e-4 9.9612-8.0759 18.036-18.037 18.035-7.9754-0.20822-16.319-8.081-16.336-18.256v-25.777c0-1.3291 1.0693-2.3984 2.3984-2.3984zm-15.549 12.551h8.6426v16.508c-5.0128-1.815-8.6426-6.5696-8.6426-12.188zm51.855 0h8.6445v4.3203c0 5.6179-3.6317 10.372-8.6445 12.188z" stroke-width="4.3214"/>
   </g>
  </g>
 </g>
</svg>
