<svg width="94.274mm" height="69.781mm" version="1.1" viewBox="0 0 94.274 69.781" xmlns="http://www.w3.org/2000/svg">
 <g transform="translate(-54.648 -48.625)">
  <g fill-rule="evenodd">
   <path transform="scale(.26458)" d="m493.71 209.6-140.04 136.05-147.13-134.49v150.48c0 11.476 7.1696 20.713 16.076 20.713h255.01c8.9066 0 16.078-9.2372 16.078-20.713z" fill="#ccc"/>
   <path transform="scale(.26458)" d="m487.85 188.59-134.45 128.33-141.77-127.5c-3.1149 3.7732-5.082 9.0996-5.082 15.068v6.6621l147.13 134.49 140.04-136.05v-5.1035c0-6.4425-2.3089-12.109-5.8672-15.902z" fill="#6f918a"/>
   <path transform="scale(.26458)" d="m222.62 183.78c-4.2741 0-8.1202 2.1652-10.994 5.6465l141.77 127.5 134.45-128.33c-2.7799-2.9637-6.3045-4.8125-10.211-4.8125z" fill="#ccc"/>
   <circle cx="128.61" cy="98.09" r="20.316" fill="#5fd35f"/>
   <path transform="scale(.26458)" d="m480.44 446.96c-30.567-1.951-57.607-23.096-67.062-52.442-2.8617-8.8827-3.7076-14.435-3.691-24.226 0.0242-14.307 3.5078-26.882 10.822-39.066 11.332-18.876 30.68-32.111 52.607-35.986 6.849-1.2103 18.963-1.2216 25.759-0.024 23.955 4.2213 44.744 19.686 55.647 41.394 2.9065 5.7872 5.9027 14.852 7.0372 21.29 1.1976 6.796 1.1863 18.91-0.024 25.759-4.0009 22.641-17.783 42.193-37.854 53.701-12.879 7.3845-27.409 10.61-43.241 9.5999z" fill="#5fd35f"/>
  </g>
  <path transform="scale(.26458)" d="m480.38 447.01c-26.7-1.8498-50.834-18.049-62.769-42.133-6.3254-12.764-8.6967-24.873-7.7942-39.8 0.82585-13.659 5.7291-27.377 13.9-38.886 3.7644-5.3025 12.386-13.924 17.688-17.688 14.884-10.566 34.252-15.847 51.412-14.016 10.66 1.1374 17.025 2.9145 26.38 7.3646 8.1182 3.862 14.11 8.1377 20.853 14.881 11.607 11.607 18.548 24.874 21.541 41.172 1.162 6.3273 1.1481 19.097-0.0281 25.759-1.8945 10.731-6.9425 22.783-13.283 31.714-3.7445 5.2744-12.384 13.925-17.588 17.61-10.964 7.7644-25.066 13.034-37.025 13.837-2.134 0.14317-4.7892 0.32703-5.9003 0.40857-1.1112 0.0815-4.4352-0.019-7.3868-0.22353z" fill-opacity="0"/>
  <path d="m115.12 101.64 9.4494 9.0714 17.481-20.6-4.3467-4.0632-13.229 14.836-4.7247-4.2522z" fill="#e2e3db"/>
 </g>
</svg>
