<svg width="59.394mm" height="53.225mm" version="1.1" viewBox="0 0 59.394 53.225" xmlns="http://www.w3.org/2000/svg">
 <g transform="translate(-112.72 -104.55)">
  <rect x="57.73" y="12.625" width="95.682" height="80.448" rx="4.2537" ry="4.1105" fill-opacity="0"/>
  <path d="m123.31 144.18c-0.39327 0-0.70989 0.59466-0.70989 1.3332v0.29455c0 0.7386 0.31662 1.3327 0.70989 1.3327h17.956c0.0629 0 0.12248-0.02 0.18046-0.0486a10.581 12.331 0 0 1-1.1471-2.912zm31.711-15.927a12.331 12.331 0 0 0-12.332 12.332 12.331 12.331 0 0 0 12.332 12.331 12.331 12.331 0 0 0 7.69-2.7068l7.6094 7.5716 1.7994-1.8087-7.5887-7.5515a12.331 12.331 0 0 0 2.8215-7.8357 12.331 12.331 0 0 0-12.332-12.332zm0 2.7404a9.5911 9.5911 0 0 1 9.5912 9.5912 9.5911 9.5911 0 0 1-9.5912 9.5912 9.5911 9.5911 0 0 1-9.5911-9.5912 9.5911 9.5911 0 0 1 9.5911-9.5912zm-11.964 0.70384c-0.0775-0.0453-0.1572-0.0853-0.2437-0.0853h-19.445c-0.42588 0-0.76876 0.59466-0.76876 1.3332v0.29455c0 0.7386 0.34288 1.3327 0.76876 1.3327h17.796a10.573 12.331 0 0 1 0.3332-0.67748 10.573 12.331 0 0 1 0.615-1.003 10.573 12.331 0 0 1 0.69741-0.92604 10.573 12.331 0 0 1 0.24725-0.26871zm-18.81-12.464h44.045c0.96467 0 1.7413 0.5946 1.7413 1.3332v0.2942c0 0.73859-0.77661 1.3332-1.7413 1.3332h-44.045c-0.96467 0-1.7413-0.59461-1.7413-1.3332v-0.2942c0-0.73859 0.77661-1.3332 1.7413-1.3332zm0.0945-12.473h44.045c0.96467 0 1.7413 0.59461 1.7413 1.3332v0.2942c0 0.73859-0.77661 1.3332-1.7413 1.3332h-44.045c-0.96467 0-1.7413-0.5946-1.7413-1.3332v-0.2942c0-0.73859 0.77661-1.3332 1.7413-1.3332zm-10.292 35.146h4.7218c0.7337 0 1.3244 0.59002 1.3244 1.3229v4.7247c0 0.7329-0.59066 1.3229-1.3244 1.3229h-4.7218c-0.7337 0-1.3244-0.59002-1.3244-1.3229v-4.7247c0-0.7329 0.59066-1.3229 1.3244-1.3229zm0-12.428h4.7218c0.7337 0 1.3244 0.59002 1.3244 1.3229v4.7247c0 0.7329-0.59066 1.3229-1.3244 1.3229h-4.7218c-0.7337 0-1.3244-0.59002-1.3244-1.3229v-4.7247c0-0.7329 0.59066-1.3229 1.3244-1.3229zm0-12.428h4.7218c0.7337 0 1.3244 0.59002 1.3244 1.3229v4.7247c0 0.73289-0.59066 1.3229-1.3244 1.3229h-4.7218c-0.7337 0-1.3244-0.59002-1.3244-1.3229v-4.7247c0-0.73289 0.59066-1.3229 1.3244-1.3229zm0.0526-12.495h4.7218c0.73369 0 1.3244 0.59002 1.3244 1.3229v4.7247c0 0.73289-0.59067 1.3229-1.3244 1.3229h-4.7218c-0.7337 0-1.3244-0.59002-1.3244-1.3229v-4.7247c0-0.73289 0.59067-1.3229 1.3244-1.3229z" fill-rule="evenodd"/>
 </g>
</svg>
