<svg width="13.341mm" height="13.341mm" version="1.1" viewBox="0 0 13.341 13.341" xmlns="http://www.w3.org/2000/svg">
 <g transform="translate(-58.179 -155.7)">
  <path d="m61.681 168.99c-0.0341-0.0412-0.08035-0.0593-0.198-0.0774-0.08444-0.013-0.20548-0.0482-0.26897-0.0783-0.06349-0.03-0.13529-0.0546-0.15956-0.0546-0.02429 0-0.09334-0.0251-0.1535-0.0558-0.06016-0.0307-0.14905-0.0667-0.19754-0.08-0.04848-0.0133-0.11233-0.0431-0.14187-0.0664-0.02953-0.0232-0.09494-0.0532-0.14531-0.0666-0.0504-0.0133-0.11204-0.0432-0.13703-0.0663-0.02497-0.0231-0.08001-0.0538-0.12229-0.0683-0.04225-0.0144-0.10515-0.0497-0.13972-0.0783s-0.07674-0.052-0.09373-0.052c-0.01697 0-0.06506-0.03-0.10684-0.0667-0.04178-0.0367-0.08681-0.0667-0.10006-0.0667-0.01324 0-0.05392-0.0275-0.09037-0.0611-0.03644-0.0336-0.118-0.0962-0.1812-0.13896-0.11233-0.0761-0.52668-0.47448-0.64981-0.6248-0.10618-0.12963-0.21601-0.2863-0.21601-0.30813 0-0.0115-0.02492-0.0478-0.05537-0.0807-0.03047-0.0328-0.06506-0.0948-0.0769-0.13769-0.01184-0.0429-0.0408-0.0991-0.0644-0.12484-0.02357-0.0258-0.05911-0.10378-0.07896-0.17331-0.02492-0.0873-0.04978-0.13077-0.08034-0.14047-0.04371-0.0139-0.04428-0.0363-0.04428-1.7554 0-1.7004 1e-3 -1.7416 0.04282-1.7526 0.02803-7e-3 0.0518-0.0447 0.06876-0.10821 0.05329-0.19932 0.15477-0.36461 0.33726-0.54931 0.07662-0.0776 0.16957-0.1565 0.20656-0.17545 0.03701-0.0189 0.09553-0.0581 0.1301-0.0869 0.03457-0.0289 0.07575-0.0525 0.0915-0.0525 0.01578 0 0.05436-0.0202 0.08579-0.045 0.03146-0.0247 0.09848-0.0595 0.149-0.0773 0.05051-0.0178 0.11871-0.0513 0.15154-0.0744 0.03281-0.0231 0.08469-0.0498 0.11526-0.0592 0.07805-0.0241 0.21923-0.14961 0.28047-0.24923 0.04261-0.0693 0.0518-0.11543 0.05237-0.26317 5.19e-4 -0.15676-0.0062-0.18853-0.0549-0.25447-0.03057-0.0414-0.05559-0.0854-0.05559-0.0976s-0.02429-0.0578-0.05398-0.1013-0.06462-0.13792-0.07763-0.20991c-0.01464-0.081-0.04277-0.15087-0.07387-0.18329-0.02761-0.0288-0.0767-0.08-0.10907-0.11369-0.0355-0.037-0.0782-0.1274-0.10768-0.22807-0.07511-0.25654-0.07802-0.31358-0.02164-0.42407 0.04194-0.0822 0.04755-0.12051 0.03742-0.25468-0.0066-0.0868-0.02938-0.1973-0.05071-0.24544-0.02844-0.0642-0.04147-0.16852-0.049-0.39187-0.01-0.29663-0.0084-0.31018 0.0631-0.53365 0.04033-0.12611 0.09398-0.25819 0.11922-0.29351 0.09629-0.13473 0.26889-0.28042 0.37361-0.31537 0.05794-0.0194 0.1109-0.0441 0.11767-0.0551 0.0067-0.011 0.05426-0.0312 0.10552-0.0451 0.05123-0.0138 0.12623-0.0541 0.1666-0.0895 0.04038-0.0355 0.0846-0.0645 0.09828-0.0645 0.0137 0 0.08087-0.0273 0.14931-0.0606 0.11748-0.0572 0.14123-0.0605 0.42462-0.0588 0.2286 2e-3 0.32404 0.0111 0.40024 0.0405 0.05504 0.0213 0.1551 0.0537 0.22236 0.0721s0.1373 0.0463 0.15565 0.062c0.01832 0.0157 0.07407 0.049 0.12384 0.074 0.11643 0.0585 0.33325 0.27532 0.39175 0.39175 0.02502 0.0498 0.05851 0.1055 0.07446 0.12385 0.02751 0.0317 0.10074 0.37173 0.13165 0.61147 0.0092 0.0714-0.0021 0.21247-0.03125 0.39431-0.05867 0.3642-0.05896 0.5263-1e-3 0.63963 0.02445 0.048 0.04448 0.10713 0.04448 0.13153 0 0.0924-0.11717 0.45902-0.15817 0.49485-0.11136 0.0973-0.19759 0.22534-0.19759 0.29334 0 0.0666-0.11508 0.3116-0.2098 0.44672-0.03478 0.0496-0.0423 0.0952-0.03929 0.23773 0.0036 0.1616 0.0096 0.18359 0.07344 0.26306 0.03831 0.0477 0.08452 0.0924 0.10264 0.0994 0.05843 0.0224 0.14963-0.0408 0.19528-0.13536 0.04646-0.0962 0.23333-0.32702 0.3575-0.44153 0.11929-0.11002 0.24962-0.21124 0.272-0.21124 0.01158 0 0.03473-0.0166 0.05154-0.037 0.01677-0.0204 0.08555-0.0612 0.15281-0.0909 0.06727-0.0297 0.1373-0.0668 0.15565-0.0825 0.01832-0.0157 0.07338-0.0411 0.1223-0.0564 0.0489-0.0153 0.10895-0.0458 0.13341-0.0679 0.02445-0.0221 0.07449-0.0473 0.11118-0.0562 0.0367-9e-3 0.09957-0.0446 0.13974-0.0795 0.04018-0.0348 0.08137-0.0634 0.09155-0.0634 0.01017 0 0.0449-0.0399 0.07717-0.0886 0.05051-0.0763 0.05921-0.11468 0.06267-0.27554 0.0031-0.1532-0.0036-0.19798-0.03903-0.24831-0.09473-0.13514-0.20981-0.38018-0.20981-0.44674 0-0.068-0.08623-0.19603-0.19758-0.29334-0.04023-0.0351-0.15818-0.40171-0.15818-0.49153 0-0.0226 0.01978-0.0847 0.04397-0.13798 0.05716-0.12598 0.05682-0.27902-0.0016-0.63565-0.02954-0.18102-0.04132-0.3243-0.03244-0.39516 0.02948-0.23549 0.10374-0.57761 0.13249-0.61045 0.01656-0.0189 0.05056-0.0751 0.07558-0.12487 0.05896-0.11735 0.28253-0.34076 0.38218-0.38192 0.04282-0.0177 0.09848-0.0512 0.12372-0.0745 0.02523-0.0233 0.10524-0.0533 0.17777-0.0667 0.15571-0.0288 0.20992-0.0543 0.20992-0.0987 0-0.0273 0.0619-0.0325 0.38653-0.0325 0.36386 0 0.38718 3e-3 0.3978 0.0431 0.0077 0.0296 0.04931 0.0542 0.13271 0.0784 0.06678 0.0194 0.14418 0.0595 0.17198 0.0891 0.02782 0.0296 0.08182 0.0605 0.12003 0.0688 0.0382 8e-3 0.1095 0.0376 0.15841 0.0652 0.0489 0.0277 0.11396 0.0562 0.14453 0.0635 0.05791 0.0138 0.24443 0.18353 0.32384 0.29465 0.02523 0.0353 0.0789 0.1674 0.11922 0.29352 0.07146 0.22347 0.07306 0.23702 0.06309 0.53365-0.0075 0.22335-0.02056 0.32764-0.049 0.39187-0.02133 0.0481-0.04412 0.15858-0.05071 0.24544-0.01002 0.13252-0.0042 0.17284 0.0354 0.25068 0.06009 0.11779 0.0595 0.13842-0.01111 0.38816-0.03857 0.13635-0.07828 0.22753-0.11674 0.26797-0.03208 0.0337-0.0809 0.0849-0.10852 0.1137-0.03109 0.0324-0.05924 0.10229-0.07387 0.18328-0.01303 0.072-0.04796 0.16645-0.07763 0.20992-0.02969 0.0434-0.05398 0.089-0.05398 0.1013 0 0.0122-0.02502 0.0562-0.05559 0.0976-0.04827 0.0655-0.05559 0.0985-0.05559 0.25184 0 0.13811 0.0098 0.19226 0.0448 0.24897 0.05708 0.0923 0.22132 0.22741 0.31583 0.25972 0.04012 0.0137 0.10781 0.0483 0.15039 0.0769 0.04256 0.0286 0.09361 0.052 0.11339 0.052s0.08 0.0298 0.13381 0.0663c0.05382 0.0364 0.10819 0.0665 0.12083 0.0667 0.02979 5e-4 0.25293 0.14118 0.31055 0.19576 0.02445 0.0231 0.07626 0.0639 0.11512 0.0905 0.09291 0.0636 0.36206 0.38619 0.41853 0.50156 0.04578 0.0936 0.13725 0.15639 0.19529 0.13411 0.01812-7e-3 0.06431-0.0516 0.10264-0.0994 0.06386-0.0795 0.07-0.10146 0.07344-0.26307 0.0031-0.14251-0.0047-0.18812-0.03929-0.23772-0.09471-0.13512-0.2098-0.38017-0.2098-0.44673 0-0.068-0.08623-0.19602-0.19759-0.29333-0.04023-0.0351-0.15818-0.40171-0.15818-0.49154 0-0.0226 0.01978-0.0847 0.04397-0.13797 0.05714-0.12593 0.05671-0.26831-0.0021-0.6417l-0.04713-0.30018 0.05664-0.33015c0.03114-0.18158 0.07115-0.34668 0.08888-0.36688 0.01775-0.0202 0.0527-0.0774 0.0777-0.12722 0.0585-0.11644 0.27532-0.33326 0.39176-0.39176 0.04978-0.025 0.1055-0.0583 0.12384-0.074 0.01832-0.0157 0.08839-0.0435 0.15565-0.062 0.06727-0.0184 0.16733-0.0509 0.22236-0.0721 0.0762-0.0294 0.17164-0.0391 0.40024-0.0405 0.28338-2e-3 0.30714 2e-3 0.42462 0.0588 0.06844 0.0333 0.13563 0.0606 0.14931 0.0606 0.0137 0 0.05829 0.0293 0.09913 0.0652 0.04085 0.0359 0.10372 0.0723 0.13974 0.081 0.03602 9e-3 0.10552 0.0382 0.15444 0.0656 0.0489 0.0274 0.11396 0.0558 0.14453 0.0631 0.05791 0.0138 0.24443 0.18353 0.32384 0.29465 0.02523 0.0353 0.0789 0.1674 0.11922 0.29351 0.07146 0.22347 0.07306 0.23702 0.0631 0.53365-0.0075 0.22335-0.02056 0.32764-0.049 0.39187-0.02133 0.0481-0.04412 0.15859-0.05071 0.24544-0.01002 0.13252-0.0042 0.17284 0.0354 0.25068 0.0601 0.1178 0.05951 0.13842-0.01111 0.38817-0.03857 0.13634-0.07827 0.22753-0.11673 0.26797-0.03208 0.0337-0.0809 0.0849-0.10852 0.11369-0.03109 0.0324-0.05924 0.10229-0.07387 0.18329-0.01303 0.072-0.04796 0.16645-0.07763 0.20991-0.02969 0.0435-0.05398 0.089-0.05398 0.1013s-0.02502 0.0562-0.05559 0.0976c-0.04864 0.0659-0.0555 0.0977-0.0549 0.25447 5.19e-4 0.14774 0.0098 0.19385 0.05237 0.26317 0.06124 0.0996 0.20242 0.22507 0.28047 0.24923 0.03057 9e-3 0.08244 0.0361 0.11526 0.0592 0.0328 0.0231 0.10102 0.0566 0.15154 0.0744 0.05051 0.0178 0.11757 0.0526 0.149 0.0773 0.0314 0.0247 0.07003 0.045 0.08579 0.045 0.01573 0 0.05693 0.0236 0.0915 0.0525s0.09312 0.068 0.1301 0.0869c0.03701 0.0189 0.12994 0.0979 0.20656 0.17545 0.18249 0.1847 0.28397 0.34998 0.33726 0.54931 0.01697 0.0635 0.04075 0.10088 0.06877 0.1082 0.04184 0.011 0.04282 0.0522 0.04282 1.7488v1.7376l-0.05004 0.022c-0.03618 0.0159-0.05823 0.0555-0.07967 0.14322-0.0163 0.0667-0.05382 0.15001-0.08338 0.18515-0.02959 0.0351-0.05375 0.0823-0.05375 0.10493 0 0.0226-0.02362 0.0693-0.05246 0.10392-0.02886 0.0346-0.06931 0.0929-0.08989 0.12955-0.05149 0.0918-0.13194 0.20789-0.20645 0.29799-0.13254 0.16026-0.49277 0.5072-0.63018 0.60692-0.07915 0.0575-0.1753 0.12999-0.21366 0.16121-0.03836 0.0312-0.07707 0.0568-0.08601 0.0568-0.0089 0-0.05045 0.03-0.09222 0.0667-0.04178 0.0367-0.08986 0.0667-0.10684 0.0667-0.01697 0-0.05916 0.0236-0.09373 0.0524s-0.09917 0.0642-0.14355 0.0787c-0.04438 0.0145-0.09846 0.0459-0.12018 0.0699-0.0217 0.024-0.05102 0.0436-0.06511 0.0436-0.01412 0-0.09509 0.035-0.18 0.0778-0.0849 0.0428-0.16938 0.0781-0.18772 0.0785-0.01832 4.2e-4 -0.09314 0.0305-0.1662 0.0668-0.07307 0.0363-0.15215 0.066-0.17574 0.066-0.02357 0-0.09484 0.0246-0.15833 0.0546s-0.18453 0.0653-0.26897 0.0783c-0.11694 0.0181-0.1652 0.0369-0.20249 0.0788-0.04334 0.0488-0.0669 0.0551-0.20568 0.0551-0.13961 0-0.15671-5e-3 -0.15671-0.0426 0-0.0235-0.02735-0.0625-0.06079-0.0869-0.05962-0.0434-0.06105-0.05-0.07408-0.34094-0.01251-0.27986-0.01749-0.30484-0.0875-0.44119-0.11394-0.22189-0.40802-0.48496-0.62619-0.5602-0.0408-0.0141-0.10013-0.0446-0.13182-0.0678-0.03166-0.0232-0.10073-0.0519-0.15342-0.0637-0.0527-0.0118-0.12182-0.04-0.15362-0.0626-0.03182-0.0226-0.10284-0.054-0.15787-0.0697-0.05503-0.0157-0.11507-0.041-0.13341-0.0562-0.01832-0.0152-0.09089-0.0529-0.16121-0.0839-0.07032-0.031-0.12786-0.0662-0.12786-0.0783s-0.01749-0.0276-0.03893-0.0346c-0.04173-0.0135-0.16045-0.12745-0.27415-0.26312-0.06096-0.0727-0.07307-0.1093-0.09206-0.27795-0.01204-0.10681-0.01739-0.31713-0.01189-0.46738 0.0093-0.25493 0.01375-0.27724 0.06643-0.33353 0.03104-0.0332 0.07379-0.0954 0.09501-0.13816 0.02123-0.0428 0.0526-0.0939 0.06974-0.11347 0.01713-0.0196 0.04438-0.10466 0.06054-0.189 0.03592-0.18736 0.10884-0.33582 0.18121-0.36879 0.06801-0.031 0.13124-0.18897 0.11578-0.28924-0.0062-0.0404-0.02808-0.11806-0.04853-0.17259-0.04158-0.11085-0.03421-0.1792 0.06769-0.62531 0.06248-0.27358 0.07003-0.56119 0.01832-0.6986-0.01843-0.0489-0.04786-0.13472-0.06543-0.19067-0.02585-0.0823-0.05454-0.11726-0.1505-0.18335-0.0671-0.0462-0.16443-0.0902-0.22432-0.1014-0.05819-0.0109-0.13255-0.044-0.16526-0.0735-0.0327-0.0296-0.10372-0.0832-0.15779-0.1193l-0.09832-0.0655-0.34639 5.2e-4c-0.33114 5.2e-4 -0.35187 3e-3 -0.47083 0.0611-0.06844 0.0333-0.13663 0.0606-0.15152 0.0606-0.03431 0-0.24641 0.18142-0.24696 0.21123-2.55e-4 0.0122-0.02917 0.0646-0.06426 0.11641-0.05159 0.0762-0.0714 0.1442-0.1033 0.35526-0.03883 0.2568-0.03867 0.26781 9e-3 0.67294 0.05906 0.50188 0.05932 0.54688 0.0036 0.6723-0.0326 0.0737-0.03903 0.11601-0.02486 0.16403 0.0353 0.11967 0.07339 0.18195 0.12604 0.20594 0.06746 0.0307 0.1567 0.20737 0.17613 0.34864 0.0084 0.0608 0.03275 0.13549 0.05423 0.16607 0.02149 0.0306 0.05673 0.0906 0.07837 0.13341 0.02164 0.0428 0.06571 0.10598 0.09795 0.14039 0.05733 0.0612 0.05877 0.0701 0.06624 0.40973 0.0097 0.4396-0.0047 0.55723-0.08126 0.6625-0.12228 0.16828-0.34985 0.36641-0.46656 0.4062-0.04028 0.0137-0.10041 0.0443-0.13361 0.0679-0.03322 0.0236-0.10496 0.055-0.15944 0.0697-0.05449 0.0147-0.12344 0.0458-0.15323 0.0693-0.02979 0.0234-0.09331 0.0489-0.14117 0.0565-0.04786 8e-3 -0.11935 0.0359-0.15886 0.0627-0.0395 0.0268-0.10478 0.0602-0.14504 0.0743-0.04028 0.014-0.11821 0.0532-0.17323 0.0871-0.10855 0.0669-0.40752 0.34211-0.40752 0.37516 0 0.0112-0.0272 0.0703-0.06045 0.13135-0.05472 0.10047-0.06157 0.1391-0.07226 0.4074-0.01163 0.29187-0.01277 0.29709-0.07296 0.34095-0.03364 0.0245-0.06115 0.0637-0.06115 0.0872 0 0.0382-0.01666 0.0425-0.16121 0.0412-0.1425-1e-3 -0.16637-8e-3 -0.20568-0.0551zm-0.0137-0.66056c0.05279-0.14142 0.07742-0.21661 0.10742-0.32797 0.01812-0.0673 0.05102-0.14231 0.0731-0.16677 0.02211-0.0245 0.05482-0.0795 0.07274-0.12229 0.03763-0.0899 0.28492-0.34424 0.38305-0.39391 0.0367-0.0186 0.08672-0.0512 0.11118-0.0726 0.02445-0.0213 0.0745-0.0488 0.1112-0.061 0.0367-0.0122 0.10564-0.0486 0.15319-0.0809 0.04755-0.0323 0.1017-0.0587 0.12032-0.0587 0.01863 0 0.07557-0.0245 0.12655-0.0543 0.05097-0.0299 0.1391-0.066 0.19584-0.0803 0.05673-0.0143 0.11476-0.04 0.12897-0.0571 0.01417-0.0171 0.0787-0.0465 0.14334-0.0653 0.06463-0.0188 0.1302-0.0494 0.14569-0.0681 0.01552-0.0187 0.06616-0.0533 0.11258-0.077 0.11451-0.0584 0.14351-0.12761 0.15937-0.38037 0.01474-0.23512-0.0042-0.32758-0.08551-0.41826-0.02746-0.0306-0.06245-0.0956-0.07781-0.14453-0.01536-0.0489-0.04521-0.12396-0.06638-0.16676-0.02113-0.0428-0.04563-0.11724-0.05437-0.16542-0.01002-0.055-0.0421-0.11288-0.08639-0.15564-0.15642-0.15108-0.16932-0.17554-0.20636-0.39115-0.03369-0.19607-0.03348-0.21991 0.0036-0.38125 0.03742-0.16397 0.03748-0.19204 1e-3 -0.59479-0.03192-0.35197-0.0341-0.46654-0.01319-0.68467 0.02871-0.29896 0.05361-0.41226 0.09899-0.44991 0.01744-0.0145 0.03815-0.0555 0.04599-0.0912 0.02497-0.11375 0.32957-0.43459 0.48892-0.51501 0.0489-0.0247 0.10411-0.0582 0.12265-0.0744 0.01853-0.0162 0.08358-0.0405 0.14453-0.0539 0.06095-0.0134 0.16585-0.0454 0.23311-0.0709 0.10225-0.0389 0.17514-0.0469 0.4447-0.0487 0.30841-2e-3 0.32782 3.3e-4 0.44685 0.0585 0.06844 0.0334 0.14146 0.0608 0.16227 0.0608 0.02081 0 0.05986 0.0232 0.08679 0.0514 0.06518 0.0685 0.23986 0.16316 0.375 0.20329 0.06018 0.0179 0.13985 0.0554 0.17706 0.0834 0.10018 0.0755 0.26403 0.23719 0.26403 0.26061 0 0.0112 0.02362 0.0487 0.05249 0.0832 0.03229 0.0387 0.07504 0.1508 0.11117 0.29165 0.07424 0.28942 0.07969 0.60073 0.01537 0.87566-0.06982 0.29829-0.0774 0.43374-0.03499 0.6245 0.03483 0.15656 0.03504 0.18493 0.0026 0.37323-0.03607 0.20989-0.03924 0.21586-0.21737 0.40557-0.03197 0.0341-0.06477 0.0991-0.07294 0.14453-0.0081 0.0455-0.03773 0.12768-0.06575 0.18272-0.02798 0.055-0.0581 0.13007-0.0669 0.16676-0.0088 0.0367-0.04282 0.0949-0.07556 0.1293-0.05696 0.0599-0.05986 0.0744-0.06627 0.33353-6e-3 0.24246-0.0021 0.27867 0.0394 0.3445 0.02533 0.0404 0.07715 0.0905 0.11512 0.11118 0.038 0.0207 0.0953 0.0588 0.12739 0.0848 0.03208 0.0259 0.09039 0.0541 0.12956 0.0627 0.03919 9e-3 0.09456 0.0339 0.12308 0.0563 0.0285 0.0224 0.09653 0.0528 0.15114 0.0675 0.0546 0.0147 0.14018 0.0507 0.19017 0.08 0.04999 0.0293 0.10613 0.0532 0.12475 0.0532 0.01863 0 0.07276 0.0264 0.12031 0.0587 0.04755 0.0323 0.11649 0.0687 0.15319 0.0809 0.0367 0.0122 0.08674 0.0397 0.1112 0.061 0.02445 0.0213 0.07449 0.054 0.11118 0.0726 0.09812 0.0497 0.34542 0.30397 0.38305 0.3939 0.01791 0.0428 0.05066 0.0978 0.07274 0.1223 0.02211 0.0244 0.05499 0.0995 0.07311 0.16676 0.03 0.11136 0.05462 0.18656 0.10742 0.32797 0.0258 0.0691 0.15022 0.0664 0.30702-7e-3 0.06634-0.0309 0.16526-0.0661 0.21983-0.0784 0.05457-0.0122 0.12387-0.0416 0.15402-0.0653 0.03016-0.0237 0.09131-0.0496 0.13593-0.0575 0.04464-8e-3 0.12537-0.0432 0.17944-0.0784 0.05407-0.0352 0.1141-0.0642 0.13341-0.0644 0.01931-2.5e-4 0.07913-0.0303 0.13295-0.0667 0.05381-0.0365 0.11058-0.0663 0.12614-0.0663 0.01557 0 0.05659-0.0236 0.09116-0.0525s0.09287-0.0693 0.12956-0.0899c0.13464-0.0755 0.27178-0.17805 0.4194-0.31348 0.03997-0.0367 0.11274-0.10254 0.16166-0.14635 0.04895-0.0438 0.15571-0.15887 0.23731-0.2557 0.08159-0.0968 0.16833-0.19699 0.19274-0.22257 0.0244-0.0256 0.05898-0.0814 0.0768-0.12406 0.0178-0.0427 0.0475-0.0901 0.06591-0.10537 0.01843-0.0153 0.04542-0.0645 0.05996-0.10941 0.01453-0.0449 0.0476-0.11162 0.0734-0.1483 0.04672-0.0664 0.04692-0.0737 0.04692-1.7121v-1.6454l-0.08374-0.16011c-0.06253-0.11957-0.12058-0.19137-0.22918-0.2835-0.07999-0.0679-0.15593-0.12339-0.16876-0.12339-0.01282 0-0.05305-0.025-0.08938-0.0556s-0.08391-0.0556-0.10572-0.0556c-0.0218 0-0.07472-0.0238-0.11756-0.0529-0.04282-0.0291-0.11267-0.0643-0.15516-0.0784-0.04251-0.014-0.11084-0.0502-0.15187-0.0805-0.04106-0.0303-0.0875-0.055-0.10326-0.055-0.03312 0-0.12974-0.0806-0.26338-0.21988-0.05957-0.062-0.11631-0.15517-0.15583-0.25571-0.05665-0.1441-0.06232-0.18472-0.06409-0.45829l-0.0021-0.30018 0.08312-0.12638c0.04573-0.0695 0.09298-0.13247 0.10501-0.13991 0.01204-7e-3 0.03254-0.0556 0.04557-0.10709 0.01303-0.0514 0.04225-0.12858 0.06494-0.17138 0.02268-0.0428 0.04848-0.12214 0.05736-0.17631 0.01225-0.0747 0.03644-0.11675 0.10054-0.17428 0.12962-0.11636 0.1482-0.18142 0.08757-0.30666-0.0435-0.0898-0.04822-0.1261-0.03722-0.2843 0.0077-0.11054 0.03213-0.22908 0.06252-0.30363 0.04277-0.10489 0.05009-0.165 0.05149-0.42247l0.0016-0.30018-0.07389-0.12698c-0.08601-0.14781-0.20683-0.26212-0.27708-0.26217-0.05766-4e-5 -0.1418-0.0439-0.31989-0.16673l-0.12895-0.0889-0.32274 3.4e-4 -0.32273 3.3e-4 -0.1686 0.0811c-0.23314 0.11216-0.33446 0.23527-0.41106 0.4995-0.07153 0.24671-0.07483 0.47115-0.01137 0.77203 0.06077 0.28807 0.06058 0.48199-5.19e-4 0.60836-0.0573 0.11836-0.03711 0.18582 0.08957 0.29957 0.06116 0.0549 0.08733 0.0993 0.09804 0.16621 8e-3 0.0502 0.03955 0.14497 0.07011 0.21055 0.03052 0.0656 0.05561 0.13581 0.05573 0.15605 1.09e-4 0.0203 0.03275 0.0777 0.07248 0.12768 0.19438 0.24444 0.1773 0.18692 0.16745 0.56408-0.0082 0.31219-0.0135 0.34831-0.06831 0.46102-0.07883 0.16213-0.31674 0.3971-0.43822 0.43281-0.03057 9e-3 -0.09458 0.0427-0.14224 0.075-0.06947 0.047-0.11881 0.0603-0.2488 0.0669-0.14802 7e-3 -0.16687 4e-3 -0.21652-0.0462-0.03223-0.0322-0.06091-0.0943-0.07041-0.15245-0.0088-0.0539-0.03389-0.12808-0.05575-0.16477-0.02185-0.0367-0.04666-0.0995-0.05513-0.1395-0.0085-0.04-0.03794-0.10008-0.06555-0.13342-0.02756-0.0333-0.05925-0.077-0.07038-0.097-0.03789-0.0681-0.36238-0.32645-0.42814-0.34089-0.03602-8e-3 -0.08318-0.0339-0.10473-0.0577-0.02154-0.0238-0.08012-0.0542-0.13016-0.0675-0.05004-0.0133-0.10736-0.0388-0.12739-0.0567-0.02004-0.0179-0.08925-0.0525-0.15384-0.0771-0.06458-0.0246-0.14209-0.064-0.17226-0.0877-0.03016-0.0237-0.06756-0.0431-0.08309-0.0431-0.01552 0-0.07172-0.0351-0.12486-0.078-0.19954-0.16108-0.25041-0.22461-0.32029-0.40008-0.05663-0.14219-0.06214-0.1816-0.06368-0.45582l-0.0016-0.30018 0.08313-0.12638c0.04573-0.0695 0.09297-0.13247 0.10501-0.13991 0.01204-7e-3 0.03254-0.0556 0.04557-0.10709 0.01303-0.0514 0.04225-0.12858 0.06494-0.17139 0.02268-0.0428 0.04848-0.12214 0.05736-0.17631 0.01225-0.0747 0.03644-0.11674 0.10054-0.17427 0.12962-0.11637 0.1482-0.18142 0.08757-0.30666-0.0435-0.0898-0.04822-0.12611-0.03722-0.2843 0.0077-0.11055 0.03208-0.22908 0.06252-0.30363 0.04277-0.1049 0.05009-0.165 0.05149-0.42247l0.0016-0.30018-0.07389-0.12698c-0.08602-0.14781-0.20683-0.26213-0.27709-0.26217-0.05757-4e-5 -0.14206-0.044-0.31808-0.1656-0.11963-0.0826-0.13842-0.0883-0.31828-0.0966-0.41066-0.0188-0.67386 0.0675-0.87352 0.28636-0.09298 0.10193-0.13048 0.16217-0.14148 0.22732-0.0083 0.0487-0.02922 0.12275-0.04666 0.16444-0.04718 0.11294-0.04215 0.40595 0.01178 0.6803 0.0612 0.3116 0.06129 0.48374 3.33e-4 0.60968-0.05729 0.11836-0.03711 0.18582 0.08958 0.29957 0.06116 0.0549 0.08733 0.0993 0.09803 0.16621 8e-3 0.0503 0.03955 0.14497 0.07011 0.21055 0.03052 0.0656 0.05561 0.13581 0.05573 0.15606 8.3e-5 0.0202 0.03275 0.0777 0.07248 0.12767 0.19426 0.24429 0.17721 0.18713 0.16828 0.56408-0.0071 0.30018-0.01365 0.34881-0.05757 0.42734-0.02725 0.0487-0.04973 0.0988-0.04993 0.11118-3.32e-4 0.0202-0.16244 0.19416-0.27755 0.29777-0.02445 0.022-0.07906 0.0519-0.12134 0.0663-0.04225 0.0144-0.09731 0.0452-0.12229 0.0683-0.02497 0.0231-0.08665 0.053-0.13702 0.0663-0.0504 0.0133-0.11577 0.0433-0.14531 0.0666-0.02953 0.0233-0.0943 0.0532-0.1439 0.0665-0.04962 0.0133-0.10782 0.0438-0.12938 0.0676-0.02154 0.0238-0.06868 0.0498-0.10473 0.0577-0.07551 0.0165-0.38903 0.2749-0.44465 0.36635-0.02061 0.0339-0.04801 0.0682-0.06094 0.0761-0.01293 8e-3 -0.03857 0.0654-0.05704 0.12758-0.01848 0.0622-0.04397 0.12562-0.05669 0.14093-0.01272 0.0153-0.0381 0.0866-0.05643 0.15835-0.04687 0.1837-0.09084 0.21472-0.28991 0.20467-0.12602-6e-3 -0.17604-0.02-0.245-0.0667-0.04765-0.0322-0.11167-0.066-0.14224-0.075-0.05556-0.0164-0.13926-0.08-0.29273-0.22254-0.04485-0.0416-0.10925-0.13351-0.14317-0.20414-0.05701-0.11872-0.06235-0.1533-0.07066-0.45777l-9e-3 -0.32936 0.06257-0.0931c0.03441-0.0512 0.09038-0.12599 0.12436-0.16616 0.034-0.0402 0.06188-0.0902 0.062-0.11118 8.3e-5 -0.021 0.02403-0.0892 0.0531-0.15171 0.02907-0.0625 0.05986-0.15488 0.06839-0.20536 0.01158-0.0686 0.04313-0.12001 0.12478-0.2034 0.0601-0.0614 0.10927-0.12944 0.10927-0.15125 0-0.0218-0.01998-0.0789-0.04448-0.12689-0.05862-0.11496-0.05815-0.33287 0.0016-0.61147 0.06215-0.29122 0.05873-0.52373-0.01126-0.76522-0.07508-0.25905-0.18112-0.3874-0.41253-0.4993l-0.16676-0.0806-0.3348-4e-5c-0.32349-3e-5 -0.33718 2e-3 -0.40542 0.0555-0.03883 0.0306-0.10205 0.0799-0.14045 0.10959-0.03841 0.0297-0.11896 0.0668-0.17901 0.0823-0.1215 0.0315-0.22226 0.10198-0.26609 0.18608-0.01594 0.0306-0.04936 0.0856-0.07424 0.1223-0.04038 0.0595-0.04511 0.10016-0.04386 0.378 1e-3 0.26996 8e-3 0.32753 0.05149 0.43359 0.03073 0.075 0.055 0.19243 0.06275 0.30363 0.011 0.15819 0.0063 0.19447-0.03722 0.28429-0.06052 0.12503-0.04204 0.19032 0.08658 0.30578 0.06116 0.0549 0.08733 0.0993 0.09803 0.16621 8e-3 0.0502 0.03961 0.14497 0.07011 0.21055 0.03052 0.0656 0.05561 0.13641 0.05573 0.15738 8.3e-5 0.021 0.03021 0.0723 0.06692 0.11411 0.0367 0.0418 0.0667 0.084 0.0667 0.0939 0 0.01 0.02253 0.0419 0.05004 0.0713 0.04723 0.0505 0.04993 0.0709 0.04796 0.36832-0.0021 0.28928-0.0071 0.32777-0.06409 0.47302-0.0395 0.10075-0.09599 0.19352-0.15568 0.25571-0.13154 0.13703-0.23005 0.21981-0.26215 0.22028-0.01505 2.6e-4 -0.07144 0.0303-0.12526 0.0667-0.05382 0.0365-0.11385 0.0665-0.13342 0.0667-0.01957 2.5e-4 -0.07959 0.0303-0.13341 0.0667-0.05382 0.0364-0.11559 0.0663-0.13727 0.0663-0.0217 0-0.06914 0.025-0.10548 0.0556-0.03633 0.0306-0.07656 0.0556-0.08938 0.0556s-0.08877 0.0555-0.16876 0.12338c-0.1086 0.0921-0.16664 0.16394-0.22918 0.2835l-0.08374 0.16012v1.6454c0 1.6384 1.67e-4 1.6457 0.04692 1.7121 0.0258 0.0367 0.05885 0.10343 0.07341 0.14831 0.01453 0.0449 0.04153 0.0941 0.05996 0.10941 0.01843 0.0153 0.04807 0.0627 0.06591 0.10537 0.0178 0.0427 0.05251 0.0985 0.07709 0.12406 0.02455 0.0256 0.11315 0.12842 0.19682 0.22855 0.08367 0.10012 0.19599 0.22031 0.24959 0.26707 0.05361 0.0468 0.12446 0.10992 0.15745 0.14036 0.13146 0.12127 0.27633 0.22883 0.40695 0.30212 0.0367 0.0206 0.09499 0.061 0.12956 0.0899 0.03457 0.0289 0.07559 0.0525 0.09116 0.0525s0.07233 0.0299 0.12615 0.0663c0.05381 0.0365 0.11396 0.0665 0.13365 0.0667 0.01967 2.5e-4 0.07472 0.0269 0.12229 0.0593 0.04755 0.0324 0.13502 0.0718 0.19434 0.0875 0.05932 0.0157 0.12452 0.0437 0.14489 0.0621 0.02035 0.0184 0.08266 0.0438 0.13841 0.0562 0.05575 0.0125 0.15565 0.048 0.22199 0.0789 0.15679 0.073 0.28122 0.0756 0.30702 7e-3z" stroke-width=".022235"/>
 </g>
</svg>
