<svg width="43.441mm" height="26.789mm" version="1.1" viewBox="0 0 43.441 26.789" xmlns="http://www.w3.org/2000/svg">
 <g transform="translate(-15.67 -108.64)">
  <g transform="matrix(.23297 0 0 .23297 65.07 92.173)" clip-rule="evenodd" fill-rule="evenodd">
   <path transform="matrix(1.1357 0 0 1.1357 -212.04 70.69)" d="m164.19 0c0 5.9934e-14 -31.322 70.97-75.84 77.914-10.205 11.62-20.271 17.55-26.699 20.066 4.9511 2.0998 10.497 3.2695 16.463 3.2695 61.522 0 86.076-101.25 86.076-101.25zm-102.9 29.244s-24.002 9.1046-22.898 34.762c0.19202 4.8646 1.241 9.4706 3.002 13.686 9.0552 0.039194 17.281-2.6029 21.201-4.5859-6.6364-4.9603-10.133-12.995-10.133-22.066 0-15.725 8.8281-21.795 8.8281-21.795z" fill="#d8eaf7" stroke-width="3.8317"/>
   <path d="m-69.129 70.69s-28.199 114.99-97.755 114.99c-25.379 0-44.178-18.486-45.118-42.298-1.2533-29.139 26.005-39.478 26.005-39.478s-10.026 6.893-10.026 24.752c0 15.039 8.4596 27.572 24.126 30.392 59.217 10.34 102.77-88.356 102.77-88.356z" fill="#2c6380" stroke-width="4.3516"/>
  </g>
 </g>
</svg>
